# MagicaVoxel @ Ephtracy

# group
g vegan01

# material
mtllib vegan01.mtl
usemtl palette

# normals
vn -1 0 0
vn 1 0 0
vn 0 0 1
vn 0 0 -1
vn 0 -1 0
vn 0 1 0

# texcoords
vt 0.00195313 0.5
vt 0.0332031 0.5
vt 0.0605469 0.5
vt 0.166016 0.5
vt 0.634766 0.5
vt 0.638672 0.5
vt 0.962891 0.5
vt 0.974609 0.5
vt 0.978516 0.5
vt 0.982422 0.5
vt 0.994141 0.5

# verts
v -5 11 -0
v -5 11 -1
v -5 12 -0
v -5 12 -1
v -4 9 -0
v -4 9 -1
v -4 9 -2
v -4 9 -4
v -4 10 -0
v -4 10 -1
v -4 10 -2
v -4 10 -3
v -4 10 -4
v -4 11 1
v -4 11 -0
v -4 11 -1
v -4 11 -2
v -4 11 -3
v -4 12 1
v -4 12 -0
v -4 12 -1
v -4 12 -2
v -4 13 -0
v -4 13 -1
v -3 3 -0
v -3 3 -1
v -3 4 -0
v -3 4 -1
v -3 5 -0
v -3 5 -1
v -3 6 -0
v -3 6 -1
v -3 7 -0
v -3 7 -1
v -3 8 -0
v -3 8 -3
v -3 9 1
v -3 9 -0
v -3 9 -1
v -3 9 -2
v -3 9 -3
v -3 10 2
v -3 10 1
v -3 10 -0
v -3 10 -1
v -3 10 -2
v -3 11 1
v -3 11 -0
v -3 11 -2
v -3 11 -3
v -3 12 2
v -3 12 1
v -3 12 -0
v -3 12 -1
v -3 12 -2
v -3 13 1
v -3 13 -0
v -3 13 -1
v -3 13 -2
v -3 13 -3
v -3 14 -0
v -3 14 -2
v -2 0 -0
v -2 0 -1
v -2 1 -0
v -2 1 -1
v -2 3 1
v -2 3 -0
v -2 3 -1
v -2 3 -2
v -2 4 1
v -2 4 -0
v -2 4 -1
v -2 4 -2
v -2 5 1
v -2 5 -0
v -2 5 -1
v -2 5 -2
v -2 6 1
v -2 6 -0
v -2 6 -1
v -2 6 -2
v -2 7 1
v -2 7 -0
v -2 7 -1
v -2 8 1
v -2 8 -0
v -2 8 -2
v -2 8 -3
v -2 8 -4
v -2 9 1
v -2 9 -0
v -2 11 3
v -2 11 2
v -2 12 3
v -2 12 2
v -2 12 1
v -2 13 2
v -2 13 1
v -2 13 -0
v -2 13 -2
v -2 13 -3
v -2 13 -4
v -2 14 1
v -2 14 -0
v -2 14 -2
v -2 14 -3
v -2 15 -0
v -2 15 -2
v -1 9 -4
v -1 9 -5
v -1 12 -4
v -1 12 -5
v 0 10 2
v 0 10 1
v 0 11 2
v 0 11 1
v 1 0 -0
v 1 0 -1
v 1 1 -0
v 1 1 -1
v 1 2 -0
v 1 2 -1
v 1 3 -0
v 1 3 -1
v 2 10 2
v 2 10 1
v 2 11 2
v 2 11 1
v 3 9 -3
v 3 9 -4
v 3 10 -3
v 3 10 -4
v 3 12 2
v 3 12 1
v 3 13 2
v 3 13 1
v -3 9 -3
v -3 9 -4
v -3 10 -3
v -3 10 -4
v -2 10 2
v -2 10 1
v -2 11 2
v -2 11 1
v -1 0 -0
v -1 0 -1
v -1 1 -0
v -1 1 -1
v -1 3 -0
v -1 3 -1
v 1 9 -4
v 1 9 -5
v 1 10 2
v 1 10 1
v 1 11 2
v 1 11 1
v 1 12 -4
v 1 12 -5
v 2 0 -0
v 2 0 -1
v 2 1 -0
v 2 1 -1
v 2 2 -0
v 2 2 -1
v 2 3 1
v 2 3 -0
v 2 3 -1
v 2 3 -2
v 2 4 1
v 2 4 -0
v 2 4 -1
v 2 4 -2
v 2 5 1
v 2 5 -0
v 2 5 -1
v 2 5 -2
v 2 6 1
v 2 6 -0
v 2 6 -1
v 2 6 -2
v 2 7 -0
v 2 7 -1
v 2 8 1
v 2 8 -0
v 2 8 -2
v 2 8 -3
v 2 8 -4
v 2 9 1
v 2 9 -0
v 2 11 3
v 2 11 2
v 2 12 3
v 2 12 2
v 2 12 1
v 2 13 2
v 2 13 1
v 2 13 -0
v 2 13 -2
v 2 13 -3
v 2 13 -4
v 2 14 1
v 2 14 -0
v 2 14 -2
v 2 14 -3
v 2 15 -0
v 2 15 -2
v 3 3 -0
v 3 3 -1
v 3 4 -0
v 3 4 -1
v 3 5 -0
v 3 5 -1
v 3 6 -0
v 3 6 -1
v 3 7 -0
v 3 7 -1
v 3 8 -0
v 3 8 -3
v 3 9 1
v 3 9 -0
v 3 9 -1
v 3 9 -2
v 3 9 -3
v 3 10 2
v 3 10 1
v 3 10 -0
v 3 10 -1
v 3 10 -2
v 3 11 1
v 3 11 -0
v 3 11 -2
v 3 11 -3
v 3 12 2
v 3 12 1
v 3 12 -0
v 3 13 1
v 3 13 -0
v 3 13 -2
v 3 13 -3
v 3 14 -0
v 3 14 -2
v 4 9 -0
v 4 9 -1
v 4 9 -2
v 4 9 -4
v 4 10 -0
v 4 10 -1
v 4 10 -2
v 4 10 -3
v 4 10 -4
v 4 11 1
v 4 11 -0
v 4 11 -1
v 4 11 -2
v 4 11 -3
v 4 12 2
v 4 12 1
v 4 12 -0
v 4 12 -1
v 4 13 2
v 4 13 1
v 4 13 -0
v 4 13 -2
v 5 11 -0
v 5 11 -1
v 5 12 -0
v 5 12 -1
v -2 11 3
v -2 12 3
v 2 11 3
v 2 12 3
v -3 10 2
v -3 12 2
v -2 10 2
v -2 11 2
v -2 12 2
v -2 13 2
v 0 10 2
v 0 11 2
v 1 10 2
v 1 11 2
v 2 10 2
v 2 11 2
v 2 12 2
v 2 13 2
v 3 10 2
v 3 12 2
v 3 13 2
v 4 12 2
v 4 13 2
v -4 11 1
v -4 12 1
v -3 9 1
v -3 10 1
v -3 11 1
v -3 12 1
v -3 13 1
v -2 3 1
v -2 4 1
v -2 5 1
v -2 6 1
v -2 7 1
v -2 8 1
v -2 9 1
v -2 10 1
v -2 11 1
v -2 12 1
v -2 13 1
v -2 14 1
v -1 9 1
v -1 10 1
v 0 3 1
v 0 4 1
v 0 5 1
v 0 6 1
v 0 7 1
v 0 8 1
v 0 9 1
v 0 10 1
v 0 11 1
v 1 3 1
v 1 4 1
v 1 5 1
v 1 6 1
v 1 9 1
v 1 10 1
v 1 11 1
v 2 3 1
v 2 4 1
v 2 5 1
v 2 6 1
v 2 8 1
v 2 9 1
v 2 10 1
v 2 11 1
v 2 12 1
v 2 13 1
v 2 14 1
v 3 9 1
v 3 10 1
v 3 11 1
v 3 12 1
v 3 13 1
v 4 11 1
v 4 12 1
v -5 11 -0
v -5 12 -0
v -4 9 -0
v -4 10 -0
v -4 11 -0
v -4 12 -0
v -4 13 -0
v -3 3 -0
v -3 4 -0
v -3 5 -0
v -3 6 -0
v -3 7 -0
v -3 8 -0
v -3 9 -0
v -3 10 -0
v -3 11 -0
v -3 12 -0
v -3 13 -0
v -3 14 -0
v -2 0 -0
v -2 1 -0
v -2 3 -0
v -2 4 -0
v -2 5 -0
v -2 6 -0
v -2 7 -0
v -2 8 -0
v -2 9 -0
v -2 13 -0
v -2 14 -0
v -2 15 -0
v -1 0 -0
v -1 1 -0
v -1 3 -0
v 1 0 -0
v 1 1 -0
v 1 2 -0
v 1 3 -0
v 2 0 -0
v 2 1 -0
v 2 2 -0
v 2 3 -0
v 2 4 -0
v 2 5 -0
v 2 6 -0
v 2 7 -0
v 2 8 -0
v 2 9 -0
v 2 13 -0
v 2 14 -0
v 2 15 -0
v 3 3 -0
v 3 4 -0
v 3 5 -0
v 3 6 -0
v 3 7 -0
v 3 8 -0
v 3 9 -0
v 3 10 -0
v 3 11 -0
v 3 12 -0
v 3 13 -0
v 3 14 -0
v 4 9 -0
v 4 10 -0
v 4 11 -0
v 4 12 -0
v 4 13 -0
v 5 11 -0
v 5 12 -0
v -4 9 -2
v -4 10 -2
v -3 9 -2
v -3 10 -2
v 3 9 -2
v 3 10 -2
v 4 9 -2
v 4 10 -2
v 3 12 1
v 3 13 1
v 4 12 1
v 4 13 1
v -5 11 -1
v -5 12 -1
v -4 9 -1
v -4 10 -1
v -4 11 -1
v -4 12 -1
v -4 13 -1
v -3 3 -1
v -3 4 -1
v -3 5 -1
v -3 6 -1
v -3 7 -1
v -3 9 -1
v -3 10 -1
v -3 12 -1
v -3 13 -1
v -2 0 -1
v -2 1 -1
v -2 3 -1
v -2 4 -1
v -2 5 -1
v -2 6 -1
v -2 7 -1
v -1 0 -1
v -1 1 -1
v -1 3 -1
v 1 0 -1
v 1 1 -1
v 1 2 -1
v 1 3 -1
v 2 0 -1
v 2 1 -1
v 2 2 -1
v 2 3 -1
v 2 4 -1
v 2 5 -1
v 2 6 -1
v 2 7 -1
v 3 3 -1
v 3 4 -1
v 3 5 -1
v 3 6 -1
v 3 7 -1
v 3 9 -1
v 3 10 -1
v 4 9 -1
v 4 10 -1
v 4 11 -1
v 4 12 -1
v 5 11 -1
v 5 12 -1
v -4 11 -2
v -4 12 -2
v -3 11 -2
v -3 12 -2
v -3 13 -2
v -3 14 -2
v -2 3 -2
v -2 4 -2
v -2 5 -2
v -2 6 -2
v -2 8 -2
v -2 13 -2
v -2 14 -2
v -2 15 -2
v 2 3 -2
v 2 4 -2
v 2 5 -2
v 2 6 -2
v 2 8 -2
v 2 13 -2
v 2 14 -2
v 2 15 -2
v 3 11 -2
v 3 13 -2
v 3 14 -2
v 4 11 -2
v 4 13 -2
v -4 10 -3
v -4 11 -3
v -3 8 -3
v -3 9 -3
v -3 10 -3
v -3 11 -3
v -3 13 -3
v -2 8 -3
v -2 13 -3
v -2 14 -3
v 2 8 -3
v 2 13 -3
v 2 14 -3
v 3 8 -3
v 3 9 -3
v 3 10 -3
v 3 11 -3
v 3 13 -3
v 4 10 -3
v 4 11 -3
v -4 9 -4
v -4 10 -4
v -3 9 -4
v -3 10 -4
v -2 8 -4
v -2 13 -4
v -1 9 -4
v -1 12 -4
v 1 9 -4
v 1 12 -4
v 2 8 -4
v 2 13 -4
v 3 9 -4
v 3 10 -4
v 4 9 -4
v 4 10 -4
v -1 9 -5
v -1 12 -5
v 1 9 -5
v 1 12 -5
v -2 0 -0
v -1 0 -0
v 1 0 -0
v 2 0 -0
v -2 0 -1
v -1 0 -1
v 1 0 -1
v 2 0 -1
v -2 3 1
v 0 3 1
v 1 3 1
v 2 3 1
v -3 3 -0
v -2 3 -0
v -1 3 -0
v 0 3 -0
v 1 3 -0
v 2 3 -0
v 3 3 -0
v -3 3 -1
v -2 3 -1
v -1 3 -1
v 1 3 -1
v 2 3 -1
v 3 3 -1
v -2 3 -2
v 2 3 -2
v -3 8 -0
v -2 8 -0
v 2 8 -0
v 3 8 -0
v -2 8 -2
v 2 8 -2
v -3 8 -3
v -2 8 -3
v 2 8 -3
v 3 8 -3
v -2 8 -4
v 2 8 -4
v -3 9 1
v -2 9 1
v 2 9 1
v 3 9 1
v -4 9 -0
v -3 9 -0
v -2 9 -0
v 2 9 -0
v 3 9 -0
v 4 9 -0
v -4 9 -1
v -3 9 -1
v 3 9 -1
v 4 9 -1
v -4 9 -2
v -3 9 -2
v 3 9 -2
v 4 9 -2
v -3 9 -3
v 3 9 -3
v -4 9 -4
v -3 9 -4
v -1 9 -4
v 1 9 -4
v 3 9 -4
v 4 9 -4
v -1 9 -5
v 1 9 -5
v -3 10 2
v -2 10 2
v 0 10 2
v 1 10 2
v 2 10 2
v 3 10 2
v -3 10 1
v -2 10 1
v 0 10 1
v 1 10 1
v 2 10 1
v 3 10 1
v -4 10 -1
v -3 10 -1
v 3 10 -1
v 4 10 -1
v -4 10 -2
v -3 10 -2
v 3 10 -2
v 4 10 -2
v -2 11 3
v 2 11 3
v -2 11 2
v 0 11 2
v 1 11 2
v 2 11 2
v -4 11 1
v -3 11 1
v -2 11 1
v 0 11 1
v 1 11 1
v 2 11 1
v 3 11 1
v 4 11 1
v -5 11 -0
v -4 11 -0
v -3 11 -0
v 3 11 -0
v 4 11 -0
v 5 11 -0
v -5 11 -1
v -4 11 -1
v 4 11 -1
v 5 11 -1
v 3 12 2
v 4 12 2
v 3 12 1
v 4 12 1
v -3 7 -0
v -2 7 -0
v 2 7 -0
v 3 7 -0
v -3 7 -1
v -2 7 -1
v 2 7 -1
v 3 7 -1
v -4 10 -3
v -3 10 -3
v 3 10 -3
v 4 10 -3
v -4 10 -4
v -3 10 -4
v 3 10 -4
v 4 10 -4
v -4 11 -2
v -3 11 -2
v 3 11 -2
v 4 11 -2
v -4 11 -3
v -3 11 -3
v 3 11 -3
v 4 11 -3
v -2 12 3
v 2 12 3
v -3 12 2
v -2 12 2
v 2 12 2
v 3 12 2
v -4 12 1
v -3 12 1
v -2 12 1
v 2 12 1
v 3 12 1
v 4 12 1
v -5 12 -0
v -4 12 -0
v -3 12 -0
v 3 12 -0
v 4 12 -0
v 5 12 -0
v -5 12 -1
v -4 12 -1
v -3 12 -1
v 4 12 -1
v 5 12 -1
v -4 12 -2
v -3 12 -2
v -1 12 -4
v 1 12 -4
v -1 12 -5
v 1 12 -5
v -2 13 2
v 2 13 2
v 3 13 2
v 4 13 2
v -3 13 1
v -2 13 1
v 2 13 1
v 3 13 1
v 4 13 1
v -4 13 -0
v -3 13 -0
v -2 13 -0
v 2 13 -0
v 3 13 -0
v 4 13 -0
v -4 13 -1
v -3 13 -1
v -3 13 -2
v -2 13 -2
v 2 13 -2
v 3 13 -2
v 4 13 -2
v -3 13 -3
v -2 13 -3
v 2 13 -3
v 3 13 -3
v -2 13 -4
v 2 13 -4
v -2 14 1
v 2 14 1
v -3 14 -0
v -2 14 -0
v 2 14 -0
v 3 14 -0
v -3 14 -2
v -2 14 -2
v 2 14 -2
v 3 14 -2
v -2 14 -3
v 2 14 -3
v -2 15 -0
v 2 15 -0
v -2 15 -2
v 2 15 -2

# faces
f 3/5/1 2/5/1 1/5/1
f 4/5/1 2/5/1 3/5/1
f 9/3/1 6/3/1 5/3/1
f 10/3/1 6/3/1 9/3/1
f 11/5/1 8/5/1 7/5/1
f 12/5/1 8/5/1 11/5/1
f 13/5/1 8/5/1 12/5/1
f 15/5/1 10/5/1 9/5/1
f 15/5/1 11/5/1 10/5/1
f 15/5/1 12/5/1 11/5/1
f 16/5/1 12/5/1 15/5/1
f 17/5/1 12/5/1 16/5/1
f 18/5/1 12/5/1 17/5/1
f 19/5/1 15/5/1 14/5/1
f 20/5/1 15/5/1 19/5/1
f 21/5/1 17/5/1 16/5/1
f 22/5/1 17/5/1 21/5/1
f 23/5/1 21/5/1 20/5/1
f 24/5/1 21/5/1 23/5/1
f 27/2/1 26/2/1 25/2/1
f 28/2/1 26/2/1 27/2/1
f 29/1/1 28/1/1 27/1/1
f 30/1/1 28/1/1 29/1/1
f 31/10/1 30/10/1 29/10/1
f 32/10/1 30/10/1 31/10/1
f 33/6/1 32/6/1 31/6/1
f 34/6/1 32/6/1 33/6/1
f 38/5/1 36/5/1 35/5/1
f 39/5/1 36/5/1 38/5/1
f 40/5/1 36/5/1 39/5/1
f 41/5/1 36/5/1 40/5/1
f 43/5/1 38/5/1 37/5/1
f 44/5/1 38/5/1 43/5/1
f 45/5/1 40/5/1 39/5/1
f 46/5/1 40/5/1 45/5/1
f 47/5/1 44/5/1 43/5/1
f 47/5/1 43/5/1 42/5/1
f 48/5/1 44/5/1 47/5/1
f 51/5/1 47/5/1 42/5/1
f 52/5/1 47/5/1 51/5/1
f 55/5/1 50/5/1 49/5/1
f 56/5/1 53/5/1 52/5/1
f 57/5/1 53/5/1 56/5/1
f 58/5/1 55/5/1 54/5/1
f 59/5/1 50/5/1 55/5/1
f 59/5/1 55/5/1 58/5/1
f 60/5/1 50/5/1 59/5/1
f 61/5/1 58/5/1 57/5/1
f 61/5/1 59/5/1 58/5/1
f 62/5/1 59/5/1 61/5/1
f 65/6/1 64/6/1 63/6/1
f 66/6/1 64/6/1 65/6/1
f 68/7/1 66/7/1 65/7/1
f 69/7/1 66/7/1 68/7/1
f 71/4/1 68/4/1 67/4/1
f 72/4/1 68/4/1 71/4/1
f 73/4/1 70/4/1 69/4/1
f 74/4/1 70/4/1 73/4/1
f 75/10/1 72/10/1 71/10/1
f 76/10/1 72/10/1 75/10/1
f 77/9/1 74/9/1 73/9/1
f 78/9/1 74/9/1 77/9/1
f 79/4/1 76/4/1 75/4/1
f 80/4/1 76/4/1 79/4/1
f 81/4/1 78/4/1 77/4/1
f 82/4/1 78/4/1 81/4/1
f 83/6/1 80/6/1 79/6/1
f 84/6/1 80/6/1 83/6/1
f 85/5/1 82/5/1 81/5/1
f 86/5/1 84/5/1 83/5/1
f 86/5/1 85/5/1 84/5/1
f 87/5/1 85/5/1 86/5/1
f 88/5/1 82/5/1 85/5/1
f 88/5/1 85/5/1 87/5/1
f 91/3/1 87/3/1 86/3/1
f 92/3/1 87/3/1 91/3/1
f 95/5/1 94/5/1 93/5/1
f 96/5/1 94/5/1 95/5/1
f 98/5/1 97/5/1 96/5/1
f 99/5/1 97/5/1 98/5/1
f 102/5/1 90/5/1 89/5/1
f 103/5/1 90/5/1 102/5/1
f 104/5/1 100/5/1 99/5/1
f 105/5/1 100/5/1 104/5/1
f 106/5/1 102/5/1 101/5/1
f 107/5/1 102/5/1 106/5/1
f 108/5/1 106/5/1 105/5/1
f 109/5/1 106/5/1 108/5/1
f 112/5/1 111/5/1 110/5/1
f 113/5/1 111/5/1 112/5/1
f 116/5/1 115/5/1 114/5/1
f 117/5/1 115/5/1 116/5/1
f 120/6/1 119/6/1 118/6/1
f 121/6/1 119/6/1 120/6/1
f 122/7/1 121/7/1 120/7/1
f 123/7/1 121/7/1 122/7/1
f 124/4/1 123/4/1 122/4/1
f 125/4/1 123/4/1 124/4/1
f 128/5/1 127/5/1 126/5/1
f 129/5/1 127/5/1 128/5/1
f 132/5/1 131/5/1 130/5/1
f 133/5/1 131/5/1 132/5/1
f 136/5/1 135/5/1 134/5/1
f 137/5/1 135/5/1 136/5/1
f 138/5/2 139/5/2 140/5/2
f 140/5/2 139/5/2 141/5/2
f 142/5/2 143/5/2 144/5/2
f 144/5/2 143/5/2 145/5/2
f 146/6/2 147/6/2 148/6/2
f 148/6/2 147/6/2 149/6/2
f 148/7/2 149/7/2 150/7/2
f 150/7/2 149/7/2 151/7/2
f 154/5/2 155/5/2 156/5/2
f 156/5/2 155/5/2 157/5/2
f 152/5/2 153/5/2 158/5/2
f 158/5/2 153/5/2 159/5/2
f 160/6/2 161/6/2 162/6/2
f 162/6/2 161/6/2 163/6/2
f 162/7/2 163/7/2 164/7/2
f 164/7/2 163/7/2 165/7/2
f 164/4/2 165/4/2 167/4/2
f 167/4/2 165/4/2 168/4/2
f 166/4/2 167/4/2 170/4/2
f 170/4/2 167/4/2 171/4/2
f 168/4/2 169/4/2 172/4/2
f 172/4/2 169/4/2 173/4/2
f 170/9/2 171/9/2 174/9/2
f 174/9/2 171/9/2 175/9/2
f 172/9/2 173/9/2 176/9/2
f 176/9/2 173/9/2 177/9/2
f 174/1/2 175/1/2 178/1/2
f 178/1/2 175/1/2 179/1/2
f 176/4/2 177/4/2 180/4/2
f 180/4/2 177/4/2 181/4/2
f 178/5/2 179/5/2 182/5/2
f 180/5/2 181/5/2 183/5/2
f 178/5/2 182/5/2 184/5/2
f 182/5/2 183/5/2 184/5/2
f 184/5/2 183/5/2 185/5/2
f 183/5/2 181/5/2 186/5/2
f 185/5/2 183/5/2 186/5/2
f 184/2/2 185/2/2 189/2/2
f 189/2/2 185/2/2 190/2/2
f 191/5/2 192/5/2 193/5/2
f 193/5/2 192/5/2 194/5/2
f 194/5/2 195/5/2 196/5/2
f 196/5/2 195/5/2 197/5/2
f 187/5/2 188/5/2 200/5/2
f 200/5/2 188/5/2 201/5/2
f 197/5/2 198/5/2 202/5/2
f 202/5/2 198/5/2 203/5/2
f 199/5/2 200/5/2 204/5/2
f 204/5/2 200/5/2 205/5/2
f 203/5/2 204/5/2 206/5/2
f 206/5/2 204/5/2 207/5/2
f 208/2/2 209/2/2 210/2/2
f 210/2/2 209/2/2 211/2/2
f 210/1/2 211/1/2 212/1/2
f 212/1/2 211/1/2 213/1/2
f 212/8/2 213/8/2 214/8/2
f 214/8/2 213/8/2 215/8/2
f 214/6/2 215/6/2 216/6/2
f 216/6/2 215/6/2 217/6/2
f 218/5/2 219/5/2 221/5/2
f 221/5/2 219/5/2 222/5/2
f 222/5/2 219/5/2 223/5/2
f 223/5/2 219/5/2 224/5/2
f 220/5/2 221/5/2 226/5/2
f 226/5/2 221/5/2 227/5/2
f 222/5/2 223/5/2 228/5/2
f 228/5/2 223/5/2 229/5/2
f 226/5/2 227/5/2 230/5/2
f 225/5/2 226/5/2 230/5/2
f 230/5/2 227/5/2 231/5/2
f 225/5/2 230/5/2 234/5/2
f 234/5/2 230/5/2 235/5/2
f 235/5/2 236/5/2 237/5/2
f 237/5/2 236/5/2 238/5/2
f 232/5/2 233/5/2 239/5/2
f 239/5/2 233/5/2 240/5/2
f 238/5/2 239/5/2 241/5/2
f 241/5/2 239/5/2 242/5/2
f 243/3/2 244/3/2 247/3/2
f 247/3/2 244/3/2 248/3/2
f 245/5/2 246/5/2 249/5/2
f 249/5/2 246/5/2 250/5/2
f 250/5/2 246/5/2 251/5/2
f 247/5/2 248/5/2 253/5/2
f 248/5/2 249/5/2 253/5/2
f 249/5/2 250/5/2 253/5/2
f 253/5/2 250/5/2 254/5/2
f 254/5/2 250/5/2 255/5/2
f 255/5/2 250/5/2 256/5/2
f 252/5/2 253/5/2 258/5/2
f 258/5/2 253/5/2 259/5/2
f 254/5/2 255/5/2 260/5/2
f 257/5/2 258/5/2 261/5/2
f 261/5/2 258/5/2 262/5/2
f 259/5/2 260/5/2 263/5/2
f 260/5/2 255/5/2 264/5/2
f 263/5/2 260/5/2 264/5/2
f 265/5/2 266/5/2 267/5/2
f 267/5/2 266/5/2 268/5/2
f 271/5/3 270/5/3 269/5/3
f 272/5/3 270/5/3 271/5/3
f 275/5/3 274/5/3 273/5/3
f 276/5/3 274/5/3 275/5/3
f 277/5/3 274/5/3 276/5/3
f 281/5/3 280/5/3 279/5/3
f 282/5/3 280/5/3 281/5/3
f 285/5/3 278/5/3 277/5/3
f 286/5/3 278/5/3 285/5/3
f 287/5/3 284/5/3 283/5/3
f 287/5/3 285/5/3 284/5/3
f 288/5/3 285/5/3 287/5/3
f 290/5/3 289/5/3 288/5/3
f 291/5/3 289/5/3 290/5/3
f 296/5/3 293/5/3 292/5/3
f 297/5/3 293/5/3 296/5/3
f 305/5/3 295/5/3 294/5/3
f 306/5/3 295/5/3 305/5/3
f 308/5/3 298/5/3 297/5/3
f 309/5/3 298/5/3 308/5/3
f 311/3/3 305/3/3 304/3/3
f 311/11/3 306/11/3 305/11/3
f 312/5/3 307/5/3 306/5/3
f 312/11/3 306/11/3 311/11/3
f 313/4/3 300/4/3 299/4/3
f 314/10/3 301/10/3 300/10/3
f 314/4/3 300/4/3 313/4/3
f 315/4/3 302/4/3 301/4/3
f 315/10/3 301/10/3 314/10/3
f 316/6/3 303/6/3 302/6/3
f 316/4/3 302/4/3 315/4/3
f 317/5/3 304/5/3 303/5/3
f 317/6/3 303/6/3 316/6/3
f 318/3/3 311/3/3 304/3/3
f 318/5/3 304/5/3 317/5/3
f 319/2/3 312/2/3 311/2/3
f 319/3/3 311/3/3 318/3/3
f 320/5/3 307/5/3 312/5/3
f 320/2/3 312/2/3 319/2/3
f 321/5/3 307/5/3 320/5/3
f 322/1/3 314/1/3 313/1/3
f 322/1/3 315/1/3 314/1/3
f 323/1/3 315/1/3 322/1/3
f 324/4/3 316/4/3 315/4/3
f 324/1/3 315/1/3 323/1/3
f 325/5/3 317/5/3 316/5/3
f 325/4/3 316/4/3 324/4/3
f 325/5/3 318/5/3 317/5/3
f 326/2/3 319/2/3 318/2/3
f 326/2/3 320/2/3 319/2/3
f 327/2/3 320/2/3 326/2/3
f 329/4/3 323/4/3 322/4/3
f 330/9/3 324/9/3 323/9/3
f 330/4/3 323/4/3 329/4/3
f 331/1/3 325/1/3 324/1/3
f 331/9/3 324/9/3 330/9/3
f 332/5/3 318/5/3 325/5/3
f 332/1/3 325/1/3 331/1/3
f 333/2/3 326/2/3 318/2/3
f 333/5/3 318/5/3 332/5/3
f 334/11/3 327/11/3 326/11/3
f 334/2/3 326/2/3 333/2/3
f 335/5/3 328/5/3 327/5/3
f 335/11/3 327/11/3 334/11/3
f 336/5/3 328/5/3 335/5/3
f 338/5/3 310/5/3 309/5/3
f 339/5/3 310/5/3 338/5/3
f 340/5/3 335/5/3 334/5/3
f 341/5/3 335/5/3 340/5/3
f 343/5/3 338/5/3 337/5/3
f 344/5/3 338/5/3 343/5/3
f 345/5/3 343/5/3 342/5/3
f 346/5/3 343/5/3 345/5/3
f 351/5/3 348/5/3 347/5/3
f 352/5/3 348/5/3 351/5/3
f 360/3/3 350/3/3 349/3/3
f 361/5/3 351/5/3 350/5/3
f 361/3/3 350/3/3 360/3/3
f 362/5/3 351/5/3 361/5/3
f 363/5/3 353/5/3 352/5/3
f 364/5/3 353/5/3 363/5/3
f 368/2/3 355/2/3 354/2/3
f 369/1/3 356/1/3 355/1/3
f 369/2/3 355/2/3 368/2/3
f 370/10/3 357/10/3 356/10/3
f 370/1/3 356/1/3 369/1/3
f 371/6/3 358/6/3 357/6/3
f 371/10/3 357/10/3 370/10/3
f 372/6/3 358/6/3 371/6/3
f 373/5/3 360/5/3 359/5/3
f 374/5/3 360/5/3 373/5/3
f 375/5/3 365/5/3 364/5/3
f 376/5/3 365/5/3 375/5/3
f 378/6/3 367/6/3 366/6/3
f 379/7/3 368/7/3 367/7/3
f 379/6/3 367/6/3 378/6/3
f 380/7/3 368/7/3 379/7/3
f 385/6/3 382/6/3 381/6/3
f 386/7/3 383/7/3 382/7/3
f 386/6/3 382/6/3 385/6/3
f 387/4/3 384/4/3 383/4/3
f 387/7/3 383/7/3 386/7/3
f 388/4/3 384/4/3 387/4/3
f 396/5/3 377/5/3 376/5/3
f 397/5/3 377/5/3 396/5/3
f 398/2/3 389/2/3 388/2/3
f 399/1/3 390/1/3 389/1/3
f 399/2/3 389/2/3 398/2/3
f 400/8/3 391/8/3 390/8/3
f 400/1/3 390/1/3 399/1/3
f 401/6/3 392/6/3 391/6/3
f 401/8/3 391/8/3 400/8/3
f 402/6/3 392/6/3 401/6/3
f 403/5/3 394/5/3 393/5/3
f 404/5/3 394/5/3 403/5/3
f 408/5/3 396/5/3 395/5/3
f 409/5/3 396/5/3 408/5/3
f 410/3/3 405/3/3 404/3/3
f 411/5/3 406/5/3 405/5/3
f 411/3/3 405/3/3 410/3/3
f 412/5/3 406/5/3 411/5/3
f 413/5/3 408/5/3 407/5/3
f 414/5/3 408/5/3 413/5/3
f 415/5/3 413/5/3 412/5/3
f 416/5/3 413/5/3 415/5/3
f 419/5/3 418/5/3 417/5/3
f 420/5/3 418/5/3 419/5/3
f 423/5/3 422/5/3 421/5/3
f 424/5/3 422/5/3 423/5/3
f 425/5/4 426/5/4 427/5/4
f 427/5/4 426/5/4 428/5/4
f 429/5/4 430/5/4 433/5/4
f 433/5/4 430/5/4 434/5/4
f 431/3/4 432/3/4 441/3/4
f 441/3/4 432/3/4 442/3/4
f 434/5/4 435/5/4 443/5/4
f 443/5/4 435/5/4 444/5/4
f 436/2/4 437/2/4 447/2/4
f 437/1/4 438/1/4 448/1/4
f 447/2/4 437/2/4 448/2/4
f 438/10/4 439/10/4 449/10/4
f 448/1/4 438/1/4 449/1/4
f 439/6/4 440/6/4 450/6/4
f 449/10/4 439/10/4 450/10/4
f 450/6/4 440/6/4 451/6/4
f 445/6/4 446/6/4 452/6/4
f 446/7/4 447/7/4 453/7/4
f 452/6/4 446/6/4 453/6/4
f 453/7/4 447/7/4 454/7/4
f 455/6/4 456/6/4 459/6/4
f 456/7/4 457/7/4 460/7/4
f 459/6/4 456/6/4 460/6/4
f 457/4/4 458/4/4 461/4/4
f 460/7/4 457/7/4 461/7/4
f 461/4/4 458/4/4 462/4/4
f 462/2/4 463/2/4 467/2/4
f 463/1/4 464/1/4 468/1/4
f 467/2/4 463/2/4 468/2/4
f 464/8/4 465/8/4 469/8/4
f 468/1/4 464/1/4 469/1/4
f 465/6/4 466/6/4 470/6/4
f 469/8/4 465/8/4 470/8/4
f 470/6/4 466/6/4 471/6/4
f 472/3/4 473/3/4 474/3/4
f 474/3/4 473/3/4 475/3/4
f 476/5/4 477/5/4 478/5/4
f 478/5/4 477/5/4 479/5/4
f 480/5/4 481/5/4 482/5/4
f 482/5/4 481/5/4 483/5/4
f 484/5/4 485/5/4 491/5/4
f 491/5/4 485/5/4 492/5/4
f 486/4/4 487/4/4 494/4/4
f 487/9/4 488/9/4 495/9/4
f 494/4/4 487/4/4 495/4/4
f 488/4/4 489/4/4 496/4/4
f 495/9/4 488/9/4 496/9/4
f 489/5/4 490/5/4 497/5/4
f 496/4/4 489/4/4 497/4/4
f 497/5/4 490/5/4 498/5/4
f 492/5/4 493/5/4 500/5/4
f 500/5/4 493/5/4 501/5/4
f 499/5/4 500/5/4 503/5/4
f 503/5/4 500/5/4 504/5/4
f 502/5/4 503/5/4 505/5/4
f 505/5/4 503/5/4 506/5/4
f 507/5/4 508/5/4 511/5/4
f 511/5/4 508/5/4 512/5/4
f 509/5/4 510/5/4 514/5/4
f 512/5/4 513/5/4 514/5/4
f 511/5/4 512/5/4 514/5/4
f 510/5/4 511/5/4 514/5/4
f 514/5/4 513/5/4 515/5/4
f 515/5/4 516/5/4 518/5/4
f 518/5/4 516/5/4 519/5/4
f 517/5/4 518/5/4 520/5/4
f 520/5/4 518/5/4 521/5/4
f 521/5/4 518/5/4 522/5/4
f 522/5/4 518/5/4 523/5/4
f 523/5/4 518/5/4 524/5/4
f 522/5/4 523/5/4 525/5/4
f 525/5/4 523/5/4 526/5/4
f 527/5/4 528/5/4 529/5/4
f 529/5/4 528/5/4 530/5/4
f 531/5/4 532/5/4 533/5/4
f 533/5/4 532/5/4 534/5/4
f 531/5/4 533/5/4 535/5/4
f 534/5/4 532/5/4 536/5/4
f 531/5/4 535/5/4 537/5/4
f 535/5/4 536/5/4 537/5/4
f 536/5/4 532/5/4 538/5/4
f 537/5/4 536/5/4 538/5/4
f 539/5/4 540/5/4 541/5/4
f 541/5/4 540/5/4 542/5/4
f 543/5/4 544/5/4 545/5/4
f 545/5/4 544/5/4 546/5/4
f 551/6/5 548/6/5 547/6/5
f 552/6/5 548/6/5 551/6/5
f 553/6/5 550/6/5 549/6/5
f 554/6/5 550/6/5 553/6/5
f 560/4/5 556/4/5 555/4/5
f 561/4/5 556/4/5 560/4/5
f 562/1/5 557/1/5 556/1/5
f 562/4/5 556/4/5 561/4/5
f 563/4/5 558/4/5 557/4/5
f 563/1/5 557/1/5 562/1/5
f 564/4/5 558/4/5 563/4/5
f 566/2/5 560/2/5 559/2/5
f 567/2/5 560/2/5 566/2/5
f 568/4/5 562/4/5 561/4/5
f 568/4/5 563/4/5 562/4/5
f 569/4/5 563/4/5 568/4/5
f 570/2/5 565/2/5 564/2/5
f 571/2/5 565/2/5 570/2/5
f 572/4/5 569/4/5 568/4/5
f 572/4/5 570/4/5 569/4/5
f 572/4/5 568/4/5 567/4/5
f 573/4/5 570/4/5 572/4/5
f 578/5/5 575/5/5 574/5/5
f 579/5/5 577/5/5 576/5/5
f 580/5/5 578/5/5 574/5/5
f 580/5/5 579/5/5 578/5/5
f 581/5/5 579/5/5 580/5/5
f 582/5/5 577/5/5 579/5/5
f 582/5/5 579/5/5 581/5/5
f 583/5/5 577/5/5 582/5/5
f 584/5/5 582/5/5 581/5/5
f 585/5/5 582/5/5 584/5/5
f 591/5/5 587/5/5 586/5/5
f 592/5/5 587/5/5 591/5/5
f 593/5/5 589/5/5 588/5/5
f 594/5/5 589/5/5 593/5/5
f 596/3/5 591/3/5 590/3/5
f 597/3/5 591/3/5 596/3/5
f 598/3/5 595/3/5 594/3/5
f 599/3/5 595/3/5 598/3/5
f 604/5/5 601/5/5 600/5/5
f 605/5/5 603/5/5 602/5/5
f 606/5/5 604/5/5 600/5/5
f 607/5/5 604/5/5 606/5/5
f 610/5/5 603/5/5 605/5/5
f 611/5/5 603/5/5 610/5/5
f 612/5/5 609/5/5 608/5/5
f 613/5/5 609/5/5 612/5/5
f 620/5/5 615/5/5 614/5/5
f 621/5/5 615/5/5 620/5/5
f 622/5/5 617/5/5 616/5/5
f 623/5/5 617/5/5 622/5/5
f 624/5/5 619/5/5 618/5/5
f 625/5/5 619/5/5 624/5/5
f 630/5/5 627/5/5 626/5/5
f 631/5/5 627/5/5 630/5/5
f 632/5/5 629/5/5 628/5/5
f 633/5/5 629/5/5 632/5/5
f 636/5/5 635/5/5 634/5/5
f 637/5/5 635/5/5 636/5/5
f 638/5/5 635/5/5 637/5/5
f 639/5/5 635/5/5 638/5/5
f 642/5/5 637/5/5 636/5/5
f 643/5/5 637/5/5 642/5/5
f 644/5/5 639/5/5 638/5/5
f 645/5/5 639/5/5 644/5/5
f 649/5/5 641/5/5 640/5/5
f 650/5/5 641/5/5 649/5/5
f 651/5/5 647/5/5 646/5/5
f 652/5/5 647/5/5 651/5/5
f 654/5/5 649/5/5 648/5/5
f 655/5/5 649/5/5 654/5/5
f 656/5/5 653/5/5 652/5/5
f 657/5/5 653/5/5 656/5/5
f 660/5/5 659/5/5 658/5/5
f 661/5/5 659/5/5 660/5/5
f 662/6/6 663/6/6 666/6/6
f 666/6/6 663/6/6 667/6/6
f 664/6/6 665/6/6 668/6/6
f 668/6/6 665/6/6 669/6/6
f 670/5/6 671/5/6 674/5/6
f 674/5/6 671/5/6 675/5/6
f 672/5/6 673/5/6 676/5/6
f 676/5/6 673/5/6 677/5/6
f 678/5/6 679/5/6 682/5/6
f 682/5/6 679/5/6 683/5/6
f 680/5/6 681/5/6 684/5/6
f 684/5/6 681/5/6 685/5/6
f 686/5/6 687/5/6 689/5/6
f 689/5/6 687/5/6 690/5/6
f 688/5/6 689/5/6 693/5/6
f 693/5/6 689/5/6 694/5/6
f 690/5/6 691/5/6 695/5/6
f 695/5/6 691/5/6 696/5/6
f 692/5/6 693/5/6 699/5/6
f 699/5/6 693/5/6 700/5/6
f 696/5/6 697/5/6 701/5/6
f 701/5/6 697/5/6 702/5/6
f 698/5/6 699/5/6 704/5/6
f 704/5/6 699/5/6 705/5/6
f 702/5/6 703/5/6 707/5/6
f 707/5/6 703/5/6 708/5/6
f 705/5/6 706/5/6 709/5/6
f 709/5/6 706/5/6 710/5/6
f 711/5/6 712/5/6 713/5/6
f 713/5/6 712/5/6 714/5/6
f 715/5/6 716/5/6 720/5/6
f 720/5/6 716/5/6 721/5/6
f 717/5/6 718/5/6 722/5/6
f 722/5/6 718/5/6 723/5/6
f 719/5/6 720/5/6 725/5/6
f 725/5/6 720/5/6 726/5/6
f 721/5/6 722/5/6 727/5/6
f 727/5/6 722/5/6 728/5/6
f 724/5/6 725/5/6 730/5/6
f 730/5/6 725/5/6 731/5/6
f 728/5/6 729/5/6 735/5/6
f 735/5/6 729/5/6 736/5/6
f 732/5/6 733/5/6 737/5/6
f 737/5/6 733/5/6 738/5/6
f 734/5/6 735/5/6 739/5/6
f 739/5/6 735/5/6 740/5/6
f 738/5/6 739/5/6 741/5/6
f 741/5/6 739/5/6 742/5/6
f 743/5/6 744/5/6 746/5/6
f 746/5/6 744/5/6 747/5/6
f 745/5/6 746/5/6 749/5/6
f 749/5/6 746/5/6 750/5/6
f 747/5/6 748/5/6 751/5/6
f 751/5/6 748/5/6 752/5/6
f 750/5/6 751/5/6 753/5/6
f 753/5/6 751/5/6 754/5/6
f 755/5/6 756/5/6 757/5/6
f 757/5/6 756/5/6 758/5/6
