# MagicaVoxel @ Ephtracy

# group
g vegan03_step1

# material
mtllib vegan03_step1.mtl
usemtl palette

# normals
vn -1 0 0
vn 1 0 0
vn 0 0 1
vn 0 0 -1
vn 0 -1 0
vn 0 1 0

# texcoords
vt 0.0605469 0.5
vt 0.0917969 0.5
vt 0.208984 0.5
vt 0.396484 0.5
vt 0.634766 0.5
vt 0.646484 0.5
vt 0.650391 0.5
vt 0.666016 0.5
vt 0.673828 0.5
vt 0.677734 0.5
vt 0.802734 0.5
vt 0.982422 0.5
vt 0.994141 0.5

# verts
v -4 9 -0
v -4 9 -1
v -4 10 1
v -4 10 -0
v -4 10 -1
v -4 11 1
v -4 11 -0
v -3 3 -1
v -3 3 -2
v -3 4 -1
v -3 4 -2
v -3 5 1
v -3 5 -0
v -3 5 -1
v -3 5 -2
v -3 6 1
v -3 6 -0
v -3 6 -3
v -3 6 -4
v -3 7 2
v -3 7 1
v -3 7 -0
v -3 7 -1
v -3 7 -3
v -3 7 -4
v -3 8 2
v -3 8 1
v -3 8 -0
v -3 8 -3
v -3 9 -0
v -3 9 -1
v -3 9 -2
v -3 10 2
v -3 10 1
v -3 10 -0
v -3 10 -1
v -3 10 -2
v -3 11 2
v -3 11 1
v -3 11 -0
v -3 12 2
v -3 12 1
v -3 12 -2
v -3 12 -3
v -3 13 1
v -3 13 -0
v -3 13 -2
v -3 13 -3
v -3 14 -0
v -3 14 -2
v -2 0 1
v -2 0 -0
v -2 1 1
v -2 1 -0
v -2 2 1
v -2 2 -0
v -2 3 -0
v -2 3 -1
v -2 4 1
v -2 4 -1
v -2 5 1
v -2 5 -0
v -2 5 -1
v -2 5 -2
v -2 6 2
v -2 6 1
v -2 6 -0
v -2 7 2
v -2 7 1
v -2 7 -0
v -2 7 -1
v -2 7 -2
v -2 7 -3
v -2 8 -0
v -2 8 -2
v -2 8 -3
v -2 10 -3
v -2 10 -4
v -2 12 2
v -2 12 1
v -2 12 -3
v -2 12 -4
v -2 13 2
v -2 13 1
v -2 13 -0
v -2 13 -2
v -2 13 -3
v -2 14 1
v -2 14 -0
v -2 14 -2
v -2 14 -3
v -2 15 -0
v -2 15 -2
v -1 5 2
v -1 5 1
v -1 6 2
v -1 6 1
v -1 9 -3
v -1 9 -4
v -1 10 -3
v -1 10 -4
v -1 12 -3
v -1 12 -4
v -1 13 -3
v -1 13 -4
v 0 7 -2
v 0 7 -3
v 0 8 -2
v 0 8 -3
v 0 11 3
v 0 11 2
v 0 12 3
v 0 12 2
v 1 0 -1
v 1 0 -2
v 1 1 -1
v 1 1 -2
v 1 2 -1
v 1 2 -2
v 1 3 -1
v 1 3 -2
v 1 5 3
v 1 5 2
v 1 6 3
v 1 6 2
v 1 6 -2
v 1 6 -3
v 1 7 -2
v 1 7 -3
v 2 3 2
v 2 3 1
v 2 4 2
v 2 4 1
v 2 8 2
v 2 8 1
v 2 9 1
v 2 10 2
v 2 10 1
v -2 6 -3
v -2 6 -4
v -2 7 -3
v -2 7 -4
v -2 8 2
v -2 8 1
v -2 9 1
v -2 10 2
v -2 10 1
v -1 0 1
v -1 0 -0
v -1 1 1
v -1 1 -0
v -1 2 1
v -1 2 -0
v -1 3 1
v -1 3 -0
v -1 7 -2
v -1 7 -3
v -1 8 -2
v -1 8 -3
v 1 5 2
v 1 5 1
v 1 6 2
v 1 6 1
v 1 7 -2
v 1 7 -3
v 1 8 -2
v 1 8 -3
v 1 9 -3
v 1 9 -4
v 1 10 -3
v 1 10 -4
v 1 11 3
v 1 11 2
v 1 12 3
v 1 12 2
v 1 12 -3
v 1 12 -4
v 1 13 -3
v 1 13 -4
v 2 0 -1
v 2 0 -2
v 2 1 -1
v 2 1 -2
v 2 2 -1
v 2 2 -2
v 2 3 1
v 2 3 -1
v 2 4 1
v 2 4 -0
v 2 4 -2
v 2 5 3
v 2 5 2
v 2 5 1
v 2 5 -0
v 2 5 -1
v 2 6 3
v 2 6 2
v 2 6 1
v 2 6 -2
v 2 6 -3
v 2 7 2
v 2 7 1
v 2 7 -0
v 2 7 -1
v 2 7 -2
v 2 7 -3
v 2 8 -0
v 2 8 -1
v 2 8 -2
v 2 8 -3
v 2 9 -2
v 2 9 -3
v 2 10 -3
v 2 10 -4
v 2 11 -3
v 2 12 2
v 2 12 1
v 2 12 -3
v 2 12 -4
v 2 13 2
v 2 13 1
v 2 13 -0
v 2 13 -2
v 2 13 -3
v 2 14 1
v 2 14 -0
v 2 14 -1
v 2 14 -2
v 2 14 -3
v 2 15 -0
v 2 15 -2
v 3 3 2
v 3 3 1
v 3 4 2
v 3 4 1
v 3 4 -0
v 3 5 1
v 3 5 -0
v 3 5 -1
v 3 7 2
v 3 7 -0
v 3 7 -1
v 3 8 -0
v 3 8 -1
v 3 8 -2
v 3 9 -0
v 3 9 -1
v 3 9 -2
v 3 9 -3
v 3 10 2
v 3 10 1
v 3 10 -0
v 3 10 -1
v 3 10 -2
v 3 10 -3
v 3 11 2
v 3 11 1
v 3 11 -1
v 3 11 -2
v 3 11 -3
v 3 12 2
v 3 12 1
v 3 13 1
v 3 13 -0
v 3 13 -1
v 3 13 -2
v 3 13 -3
v 3 14 -0
v 3 14 -1
v 3 14 -2
v 4 9 -0
v 4 9 -1
v 4 10 2
v 4 10 1
v 4 10 -0
v 4 10 -1
v 4 10 -2
v 4 11 2
v 4 11 1
v 4 11 -1
v 4 11 -2
v 0 11 3
v 0 12 3
v 1 5 3
v 1 6 3
v 1 11 3
v 1 12 3
v 2 5 3
v 2 6 3
v -3 7 2
v -3 8 2
v -3 10 2
v -3 11 2
v -3 12 2
v -2 6 2
v -2 7 2
v -2 8 2
v -2 10 2
v -2 11 2
v -2 12 2
v -2 13 2
v -1 5 2
v -1 6 2
v -1 7 2
v -1 12 2
v -1 13 2
v 0 11 2
v 0 12 2
v 1 5 2
v 1 6 2
v 1 8 2
v 1 11 2
v 1 12 2
v 2 3 2
v 2 4 2
v 2 6 2
v 2 7 2
v 2 8 2
v 2 10 2
v 2 11 2
v 2 12 2
v 2 13 2
v 3 3 2
v 3 4 2
v 3 7 2
v 3 10 2
v 3 11 2
v 3 12 2
v 4 10 2
v 4 11 2
v -4 10 1
v -4 11 1
v -3 5 1
v -3 6 1
v -3 10 1
v -3 11 1
v -3 12 1
v -3 13 1
v -2 0 1
v -2 1 1
v -2 2 1
v -2 4 1
v -2 5 1
v -2 6 1
v -2 8 1
v -2 9 1
v -2 10 1
v -2 12 1
v -2 13 1
v -2 14 1
v -1 0 1
v -1 1 1
v -1 2 1
v -1 3 1
v -1 5 1
v -1 6 1
v -1 9 1
v -1 10 1
v -1 13 1
v 1 5 1
v 1 6 1
v 1 8 1
v 1 9 1
v 1 10 1
v 2 3 1
v 2 4 1
v 2 5 1
v 2 6 1
v 2 8 1
v 2 9 1
v 2 10 1
v 2 12 1
v 2 13 1
v 2 14 1
v 3 4 1
v 3 5 1
v 3 12 1
v 3 13 1
v -4 9 -0
v -4 10 -0
v -3 6 -0
v -3 7 -0
v -3 9 -0
v -3 10 -0
v -3 13 -0
v -3 14 -0
v -2 6 -0
v -2 7 -0
v -2 13 -0
v -2 14 -0
v -2 15 -0
v 2 5 -0
v 2 7 -0
v 2 13 -0
v 2 14 -0
v 2 15 -0
v 3 5 -0
v 3 7 -0
v 3 9 -0
v 3 10 -0
v 3 13 -0
v 3 14 -0
v 4 9 -0
v 4 10 -0
v -3 3 -1
v -3 4 -1
v -3 5 -1
v -2 3 -1
v -2 4 -1
v -2 5 -1
v 1 0 -1
v 1 1 -1
v 1 2 -1
v 1 3 -1
v 2 0 -1
v 2 1 -1
v 2 2 -1
v 2 3 -1
v 3 10 -1
v 3 11 -1
v 4 10 -1
v 4 11 -1
v -3 6 -3
v -3 7 -3
v -2 6 -3
v -2 7 -3
v 1 5 2
v 1 6 2
v 2 5 2
v 2 6 2
v 2 3 1
v 2 4 1
v 3 3 1
v 3 4 1
v 3 10 1
v 3 11 1
v 4 10 1
v 4 11 1
v -4 10 -0
v -4 11 -0
v -3 7 -0
v -3 8 -0
v -3 10 -0
v -3 11 -0
v -2 0 -0
v -2 1 -0
v -2 2 -0
v -2 3 -0
v -2 7 -0
v -2 8 -0
v -1 0 -0
v -1 1 -0
v -1 2 -0
v -1 3 -0
v 2 4 -0
v 2 5 -0
v 2 7 -0
v 2 8 -0
v 3 4 -0
v 3 5 -0
v 3 7 -0
v 3 8 -0
v -4 9 -1
v -4 10 -1
v -3 5 -1
v -3 7 -1
v -3 9 -1
v -3 10 -1
v -2 5 -1
v -2 7 -1
v 2 5 -1
v 2 7 -1
v 3 5 -1
v 3 7 -1
v 3 9 -1
v 3 10 -1
v 4 9 -1
v 4 10 -1
v -3 3 -2
v -3 4 -2
v -3 5 -2
v -3 13 -2
v -3 14 -2
v -2 3 -2
v -2 4 -2
v -2 5 -2
v -2 7 -2
v -2 13 -2
v -2 14 -2
v -2 15 -2
v -1 7 -2
v -1 8 -2
v -1 14 -2
v -1 15 -2
v 0 7 -2
v 0 8 -2
v 0 14 -2
v 0 15 -2
v 1 0 -2
v 1 1 -2
v 1 2 -2
v 1 3 -2
v 1 6 -2
v 1 7 -2
v 1 8 -2
v 2 0 -2
v 2 1 -2
v 2 2 -2
v 2 4 -2
v 2 6 -2
v 2 7 -2
v 2 8 -2
v 2 9 -2
v 2 13 -2
v 2 14 -2
v 2 15 -2
v 3 8 -2
v 3 9 -2
v 3 10 -2
v 3 11 -2
v 3 13 -2
v 3 14 -2
v 4 10 -2
v 4 11 -2
v -3 8 -3
v -3 12 -3
v -3 13 -3
v -2 7 -3
v -2 8 -3
v -2 10 -3
v -2 12 -3
v -2 13 -3
v -2 14 -3
v -1 7 -3
v -1 8 -3
v -1 9 -3
v -1 10 -3
v -1 12 -3
v -1 13 -3
v 0 7 -3
v 0 8 -3
v 0 9 -3
v 0 13 -3
v 1 6 -3
v 1 7 -3
v 1 8 -3
v 1 9 -3
v 1 10 -3
v 1 12 -3
v 1 13 -3
v 2 6 -3
v 2 7 -3
v 2 8 -3
v 2 9 -3
v 2 10 -3
v 2 11 -3
v 2 12 -3
v 2 13 -3
v 2 14 -3
v 3 9 -3
v 3 10 -3
v 3 11 -3
v 3 13 -3
v -3 6 -4
v -3 7 -4
v -2 6 -4
v -2 7 -4
v -2 10 -4
v -2 12 -4
v -1 9 -4
v -1 10 -4
v -1 12 -4
v -1 13 -4
v 0 9 -4
v 0 10 -4
v 0 12 -4
v 0 13 -4
v 1 9 -4
v 1 10 -4
v 1 12 -4
v 1 13 -4
v 2 10 -4
v 2 12 -4
v -2 0 1
v -1 0 1
v -2 0 -0
v -1 0 -0
v 1 0 -1
v 2 0 -1
v 1 0 -2
v 2 0 -2
v 2 3 2
v 3 3 2
v -1 3 1
v 2 3 1
v 3 3 1
v -2 3 -0
v -1 3 -0
v -3 3 -1
v -2 3 -1
v 1 3 -1
v 2 3 -1
v -3 3 -2
v -2 3 -2
v 1 3 -2
v 2 4 1
v 3 4 1
v 2 4 -0
v 3 4 -0
v 1 5 3
v 2 5 3
v -1 5 2
v 1 5 2
v 2 5 2
v -3 5 1
v -2 5 1
v -1 5 1
v 1 5 1
v -3 5 -0
v -2 5 -0
v 2 5 -0
v 3 5 -0
v -3 5 -1
v -2 5 -1
v 2 5 -1
v 3 5 -1
v -2 6 2
v -1 6 2
v 1 6 2
v 2 6 2
v -2 6 1
v -1 6 1
v 1 6 1
v 2 6 1
v 1 6 -2
v 2 6 -2
v -3 6 -3
v -2 6 -3
v 1 6 -3
v 2 6 -3
v -3 6 -4
v -2 6 -4
v -3 7 2
v -2 7 2
v 2 7 2
v 3 7 2
v -3 7 1
v -2 7 1
v 2 7 1
v -3 7 -0
v -2 7 -0
v 2 7 -0
v 3 7 -0
v -2 7 -2
v -1 7 -2
v 0 7 -2
v 1 7 -2
v -2 7 -3
v -1 7 -3
v 0 7 -3
v 1 7 -3
v -3 8 -0
v -2 8 -0
v 2 8 -0
v 3 8 -0
v 2 8 -1
v 3 8 -1
v -2 8 -2
v -1 8 -2
v 0 8 -2
v 1 8 -2
v 2 8 -2
v 3 8 -2
v -3 8 -3
v -2 8 -3
v -1 8 -3
v 0 8 -3
v 1 8 -3
v 2 8 -3
v -4 9 -0
v -3 9 -0
v 3 9 -0
v 4 9 -0
v -4 9 -1
v -3 9 -1
v 3 9 -1
v 4 9 -1
v 2 9 -2
v 3 9 -2
v -1 9 -3
v 0 9 -3
v 1 9 -3
v 2 9 -3
v 3 9 -3
v -1 9 -4
v 0 9 -4
v 1 9 -4
v -2 10 2
v 2 10 2
v 3 10 2
v 4 10 2
v -4 10 1
v -3 10 1
v -2 10 1
v -1 10 1
v 1 10 1
v 2 10 1
v 3 10 1
v 4 10 1
v -4 10 -0
v -3 10 -0
v 3 10 -1
v 4 10 -1
v 3 10 -2
v 4 10 -2
v -2 10 -3
v -1 10 -3
v 1 10 -3
v 2 10 -3
v -2 10 -4
v -1 10 -4
v 1 10 -4
v 2 10 -4
v 0 11 3
v 1 11 3
v 0 11 2
v 1 11 2
v 2 4 2
v 3 4 2
v 2 4 1
v 3 4 1
v 2 5 1
v 3 5 1
v 2 5 -0
v 3 5 -0
v -3 5 -1
v -2 5 -1
v -3 5 -2
v -2 5 -2
v 1 6 3
v 2 6 3
v 1 6 2
v 2 6 2
v -3 6 1
v -2 6 1
v -3 6 -0
v -2 6 -0
v -3 7 -0
v -2 7 -0
v 2 7 -0
v 3 7 -0
v -3 7 -1
v -2 7 -1
v 2 7 -1
v 3 7 -1
v 1 7 -2
v 2 7 -2
v -3 7 -3
v -2 7 -3
v 1 7 -3
v 2 7 -3
v -3 7 -4
v -2 7 -4
v -2 8 2
v 1 8 2
v 2 8 2
v -2 8 1
v 1 8 1
v 2 8 1
v -4 10 -0
v -3 10 -0
v 3 10 -0
v 4 10 -0
v -4 10 -1
v -3 10 -1
v 3 10 -1
v 4 10 -1
v 3 11 2
v 4 11 2
v -4 11 1
v -3 11 1
v 3 11 1
v 4 11 1
v -4 11 -0
v -3 11 -0
v 3 11 -1
v 4 11 -1
v 3 11 -2
v 4 11 -2
v 0 12 3
v 1 12 3
v -3 12 2
v -2 12 2
v 0 12 2
v 1 12 2
v 2 12 2
v 3 12 2
v -3 12 1
v -2 12 1
v 2 12 1
v 3 12 1
v -2 12 -3
v -1 12 -3
v 1 12 -3
v 2 12 -3
v -2 12 -4
v -1 12 -4
v 1 12 -4
v 2 12 -4
v -2 13 2
v -1 13 2
v 2 13 2
v -3 13 1
v -2 13 1
v -1 13 1
v 2 13 1
v 3 13 1
v -3 13 -0
v -2 13 -0
v 2 13 -0
v 3 13 -0
v -3 13 -2
v -2 13 -2
v 2 13 -2
v 3 13 -2
v -3 13 -3
v -2 13 -3
v -1 13 -3
v 0 13 -3
v 1 13 -3
v 2 13 -3
v 3 13 -3
v -1 13 -4
v 0 13 -4
v 1 13 -4
v -2 14 1
v 2 14 1
v -3 14 -0
v -2 14 -0
v 2 14 -0
v 3 14 -0
v 2 14 -1
v 3 14 -1
v -3 14 -2
v -2 14 -2
v -1 14 -2
v 0 14 -2
v 2 14 -2
v 3 14 -2
v -2 14 -3
v 2 14 -3
v -2 15 -0
v 2 15 -0
v -1 15 -1
v 0 15 -1
v -2 15 -2
v -1 15 -2
v 0 15 -2
v 2 15 -2

# faces
f 4/1/1 2/1/1 1/1/1
f 5/1/1 2/1/1 4/1/1
f 6/7/1 4/7/1 3/7/1
f 7/7/1 4/7/1 6/7/1
f 10/1/1 9/1/1 8/1/1
f 11/1/1 9/1/1 10/1/1
f 14/10/1 11/10/1 10/10/1
f 15/10/1 11/10/1 14/10/1
f 16/7/1 13/7/1 12/7/1
f 17/9/1 14/9/1 13/9/1
f 17/7/1 13/7/1 16/7/1
f 22/9/1 14/9/1 17/9/1
f 23/9/1 14/9/1 22/9/1
f 24/7/1 19/7/1 18/7/1
f 25/7/1 19/7/1 24/7/1
f 26/6/1 21/6/1 20/6/1
f 27/7/1 22/7/1 21/7/1
f 27/6/1 21/6/1 26/6/1
f 28/7/1 22/7/1 27/7/1
f 30/7/1 27/7/1 26/7/1
f 30/7/1 29/7/1 28/7/1
f 30/7/1 28/7/1 27/7/1
f 31/7/1 29/7/1 30/7/1
f 32/7/1 29/7/1 31/7/1
f 33/7/1 30/7/1 26/7/1
f 34/7/1 30/7/1 33/7/1
f 35/7/1 30/7/1 34/7/1
f 36/6/1 32/6/1 31/6/1
f 37/7/1 29/7/1 32/7/1
f 37/6/1 32/6/1 36/6/1
f 38/6/1 34/6/1 33/6/1
f 39/6/1 34/6/1 38/6/1
f 40/7/1 36/7/1 35/7/1
f 40/7/1 37/7/1 36/7/1
f 41/7/1 39/7/1 38/7/1
f 41/7/1 40/7/1 39/7/1
f 42/7/1 40/7/1 41/7/1
f 43/7/1 37/7/1 40/7/1
f 43/7/1 40/7/1 42/7/1
f 43/7/1 29/7/1 37/7/1
f 44/7/1 29/7/1 43/7/1
f 45/7/1 43/7/1 42/7/1
f 46/7/1 43/7/1 45/7/1
f 47/6/1 44/6/1 43/6/1
f 47/7/1 43/7/1 46/7/1
f 48/6/1 44/6/1 47/6/1
f 49/7/1 47/7/1 46/7/1
f 50/7/1 47/7/1 49/7/1
f 53/4/1 52/4/1 51/4/1
f 54/4/1 52/4/1 53/4/1
f 55/9/1 54/9/1 53/9/1
f 56/9/1 54/9/1 55/9/1
f 57/10/1 56/10/1 55/10/1
f 59/10/1 57/10/1 55/10/1
f 59/10/1 58/10/1 57/10/1
f 60/10/1 58/10/1 59/10/1
f 61/8/1 60/8/1 59/8/1
f 62/8/1 60/8/1 61/8/1
f 63/8/1 60/8/1 62/8/1
f 68/6/1 66/6/1 65/6/1
f 69/8/1 67/8/1 66/8/1
f 69/6/1 66/6/1 68/6/1
f 70/8/1 67/8/1 69/8/1
f 71/8/1 64/8/1 63/8/1
f 72/8/1 64/8/1 71/8/1
f 74/8/1 72/8/1 71/8/1
f 74/8/1 71/8/1 70/8/1
f 75/7/1 73/7/1 72/7/1
f 75/8/1 72/8/1 74/8/1
f 76/7/1 73/7/1 75/7/1
f 81/7/1 78/7/1 77/7/1
f 82/7/1 78/7/1 81/7/1
f 83/6/1 80/6/1 79/6/1
f 84/6/1 80/6/1 83/6/1
f 88/7/1 85/7/1 84/7/1
f 89/7/1 85/7/1 88/7/1
f 90/7/1 87/7/1 86/7/1
f 91/7/1 87/7/1 90/7/1
f 92/7/1 90/7/1 89/7/1
f 93/7/1 90/7/1 92/7/1
f 96/7/1 95/7/1 94/7/1
f 97/7/1 95/7/1 96/7/1
f 100/6/1 99/6/1 98/6/1
f 101/6/1 99/6/1 100/6/1
f 104/6/1 103/6/1 102/6/1
f 105/6/1 103/6/1 104/6/1
f 108/7/1 107/7/1 106/7/1
f 109/7/1 107/7/1 108/7/1
f 112/7/1 111/7/1 110/7/1
f 113/7/1 111/7/1 112/7/1
f 116/4/1 115/4/1 114/4/1
f 117/4/1 115/4/1 116/4/1
f 118/9/1 117/9/1 116/9/1
f 119/9/1 117/9/1 118/9/1
f 120/10/1 119/10/1 118/10/1
f 121/10/1 119/10/1 120/10/1
f 124/7/1 123/7/1 122/7/1
f 125/7/1 123/7/1 124/7/1
f 128/6/1 127/6/1 126/6/1
f 129/6/1 127/6/1 128/6/1
f 132/1/1 131/1/1 130/1/1
f 133/1/1 131/1/1 132/1/1
f 136/7/1 135/7/1 134/7/1
f 137/7/1 136/7/1 134/7/1
f 138/7/1 136/7/1 137/7/1
f 139/7/2 140/7/2 141/7/2
f 141/7/2 140/7/2 142/7/2
f 143/7/2 144/7/2 145/7/2
f 143/7/2 145/7/2 146/7/2
f 146/7/2 145/7/2 147/7/2
f 148/4/2 149/4/2 150/4/2
f 150/4/2 149/4/2 151/4/2
f 150/9/2 151/9/2 152/9/2
f 152/9/2 151/9/2 153/9/2
f 152/10/2 153/10/2 154/10/2
f 154/10/2 153/10/2 155/10/2
f 156/7/2 157/7/2 158/7/2
f 158/7/2 157/7/2 159/7/2
f 160/7/2 161/7/2 162/7/2
f 162/7/2 161/7/2 163/7/2
f 164/7/2 165/7/2 166/7/2
f 166/7/2 165/7/2 167/7/2
f 168/7/2 169/7/2 170/7/2
f 170/7/2 169/7/2 171/7/2
f 172/7/2 173/7/2 174/7/2
f 174/7/2 173/7/2 175/7/2
f 176/7/2 177/7/2 178/7/2
f 178/7/2 177/7/2 179/7/2
f 180/4/2 181/4/2 182/4/2
f 182/4/2 181/4/2 183/4/2
f 182/9/2 183/9/2 184/9/2
f 184/9/2 183/9/2 185/9/2
f 184/10/2 185/10/2 187/10/2
f 186/10/2 187/10/2 188/10/2
f 188/10/2 187/10/2 189/10/2
f 187/10/2 185/10/2 190/10/2
f 189/10/2 187/10/2 190/10/2
f 189/8/2 190/8/2 194/8/2
f 194/8/2 190/8/2 195/8/2
f 191/7/2 192/7/2 196/7/2
f 196/7/2 192/7/2 197/7/2
f 193/8/2 194/8/2 198/8/2
f 195/8/2 190/8/2 199/8/2
f 197/6/2 198/6/2 201/6/2
f 198/8/2 194/8/2 202/8/2
f 201/6/2 198/6/2 202/6/2
f 202/8/2 194/8/2 203/8/2
f 195/8/2 199/8/2 204/8/2
f 199/6/2 200/6/2 205/6/2
f 204/8/2 199/8/2 205/8/2
f 205/6/2 200/6/2 206/6/2
f 203/8/2 204/8/2 207/8/2
f 204/8/2 205/8/2 207/8/2
f 207/8/2 205/8/2 208/8/2
f 208/8/2 205/8/2 209/8/2
f 209/7/2 210/7/2 211/7/2
f 211/7/2 210/7/2 212/7/2
f 213/7/2 214/7/2 215/7/2
f 215/7/2 214/7/2 218/7/2
f 218/7/2 214/7/2 219/7/2
f 216/7/2 217/7/2 220/7/2
f 220/7/2 217/7/2 221/7/2
f 221/7/2 222/7/2 225/7/2
f 225/7/2 222/7/2 226/7/2
f 223/7/2 224/7/2 228/7/2
f 228/7/2 224/7/2 229/7/2
f 226/7/2 227/7/2 230/7/2
f 227/7/2 228/7/2 230/7/2
f 230/7/2 228/7/2 231/7/2
f 232/1/2 233/1/2 234/1/2
f 234/1/2 233/1/2 235/1/2
f 235/10/2 236/10/2 237/10/2
f 237/10/2 236/10/2 238/10/2
f 238/9/2 239/9/2 241/9/2
f 241/9/2 239/9/2 242/9/2
f 240/7/2 241/7/2 243/7/2
f 243/7/2 244/7/2 246/7/2
f 240/7/2 243/7/2 246/7/2
f 244/6/2 245/6/2 247/6/2
f 246/7/2 244/7/2 247/7/2
f 247/6/2 245/6/2 248/6/2
f 240/7/2 246/7/2 250/7/2
f 250/7/2 246/7/2 251/7/2
f 251/7/2 246/7/2 252/7/2
f 248/7/2 249/7/2 253/7/2
f 247/7/2 248/7/2 253/7/2
f 253/7/2 249/7/2 254/7/2
f 254/7/2 249/7/2 255/7/2
f 251/7/2 252/7/2 257/7/2
f 252/7/2 253/7/2 257/7/2
f 257/7/2 253/7/2 258/7/2
f 254/6/2 255/6/2 259/6/2
f 259/6/2 255/6/2 260/6/2
f 256/6/2 257/6/2 261/6/2
f 257/7/2 258/7/2 262/7/2
f 261/6/2 257/6/2 262/6/2
f 258/7/2 259/7/2 262/7/2
f 259/7/2 260/7/2 262/7/2
f 262/7/2 260/7/2 263/7/2
f 263/7/2 260/7/2 264/7/2
f 264/7/2 260/7/2 265/7/2
f 265/7/2 260/7/2 266/7/2
f 266/7/2 260/7/2 267/7/2
f 264/7/2 265/7/2 268/7/2
f 265/6/2 266/6/2 269/6/2
f 268/7/2 265/7/2 269/7/2
f 269/6/2 266/6/2 270/6/2
f 271/1/2 272/1/2 275/1/2
f 275/1/2 272/1/2 276/1/2
f 273/7/2 274/7/2 278/7/2
f 278/7/2 274/7/2 279/7/2
f 276/7/2 277/7/2 280/7/2
f 280/7/2 277/7/2 281/7/2
f 286/7/3 283/7/3 282/7/3
f 287/7/3 283/7/3 286/7/3
f 288/7/3 285/7/3 284/7/3
f 289/7/3 285/7/3 288/7/3
f 296/6/3 291/6/3 290/6/3
f 297/7/3 292/7/3 291/7/3
f 297/6/3 291/6/3 296/6/3
f 298/6/3 293/6/3 292/6/3
f 298/7/3 292/7/3 297/7/3
f 299/7/3 294/7/3 293/7/3
f 299/6/3 293/6/3 298/6/3
f 300/7/3 294/7/3 299/7/3
f 303/6/3 296/6/3 295/6/3
f 304/7/3 297/7/3 296/7/3
f 304/6/3 296/6/3 303/6/3
f 305/6/3 301/6/3 300/6/3
f 305/7/3 300/7/3 299/7/3
f 305/7/3 299/7/3 298/7/3
f 306/6/3 301/6/3 305/6/3
f 307/7/3 305/7/3 298/7/3
f 307/7/3 306/7/3 305/7/3
f 308/7/3 306/7/3 307/7/3
f 309/7/3 304/7/3 303/7/3
f 309/7/3 303/7/3 302/7/3
f 310/7/3 304/7/3 309/7/3
f 311/7/3 297/7/3 304/7/3
f 311/7/3 304/7/3 310/7/3
f 312/7/3 307/7/3 298/7/3
f 313/7/3 306/7/3 308/7/3
f 316/6/3 311/6/3 310/6/3
f 317/6/3 311/6/3 316/6/3
f 318/6/3 311/6/3 317/6/3
f 319/7/3 313/7/3 312/7/3
f 319/7/3 312/7/3 298/7/3
f 320/7/3 313/7/3 319/7/3
f 321/7/3 306/7/3 313/7/3
f 321/7/3 313/7/3 320/7/3
f 322/7/3 306/7/3 321/7/3
f 323/1/3 315/1/3 314/1/3
f 324/1/3 315/1/3 323/1/3
f 325/7/3 318/7/3 317/7/3
f 325/7/3 320/7/3 319/7/3
f 325/7/3 319/7/3 318/7/3
f 326/7/3 320/7/3 325/7/3
f 327/6/3 321/6/3 320/6/3
f 327/7/3 320/7/3 326/7/3
f 328/6/3 321/6/3 327/6/3
f 329/7/3 327/7/3 326/7/3
f 330/7/3 327/7/3 329/7/3
f 335/7/3 332/7/3 331/7/3
f 336/7/3 332/7/3 335/7/3
f 343/7/3 334/7/3 333/7/3
f 344/7/3 334/7/3 343/7/3
f 348/7/3 338/7/3 337/7/3
f 349/7/3 338/7/3 348/7/3
f 351/4/3 340/4/3 339/4/3
f 352/9/3 341/9/3 340/9/3
f 352/4/3 340/4/3 351/4/3
f 353/10/3 342/10/3 341/10/3
f 353/9/3 341/9/3 352/9/3
f 354/10/3 342/10/3 353/10/3
f 355/8/3 343/8/3 342/8/3
f 355/8/3 344/8/3 343/8/3
f 356/8/3 344/8/3 355/8/3
f 357/12/3 347/12/3 346/12/3
f 357/1/3 346/1/3 345/1/3
f 358/12/3 347/12/3 357/12/3
f 359/7/3 350/7/3 349/7/3
f 360/8/3 355/8/3 342/8/3
f 362/1/3 358/1/3 357/1/3
f 362/1/3 357/1/3 345/1/3
f 363/1/3 358/1/3 362/1/3
f 364/1/3 358/1/3 363/1/3
f 365/10/3 342/10/3 354/10/3
f 366/8/3 361/8/3 360/8/3
f 366/10/3 342/10/3 365/10/3
f 366/8/3 360/8/3 342/8/3
f 367/8/3 361/8/3 366/8/3
f 368/8/3 361/8/3 367/8/3
f 369/1/3 363/1/3 362/1/3
f 370/13/3 364/13/3 363/13/3
f 370/1/3 363/1/3 369/1/3
f 371/13/3 364/13/3 370/13/3
f 373/7/3 350/7/3 359/7/3
f 374/7/3 350/7/3 373/7/3
f 375/10/3 367/10/3 366/10/3
f 376/10/3 367/10/3 375/10/3
f 377/7/3 373/7/3 372/7/3
f 378/7/3 373/7/3 377/7/3
f 383/1/3 380/1/3 379/1/3
f 384/1/3 380/1/3 383/1/3
f 387/9/3 382/9/3 381/9/3
f 388/9/3 382/9/3 387/9/3
f 389/7/3 386/7/3 385/7/3
f 390/7/3 386/7/3 389/7/3
f 395/7/3 391/7/3 390/7/3
f 396/7/3 391/7/3 395/7/3
f 397/9/3 393/9/3 392/9/3
f 398/9/3 393/9/3 397/9/3
f 401/7/3 395/7/3 394/7/3
f 402/7/3 395/7/3 401/7/3
f 403/1/3 400/1/3 399/1/3
f 404/1/3 400/1/3 403/1/3
f 408/1/3 406/1/3 405/1/3
f 409/10/3 407/10/3 406/10/3
f 409/1/3 406/1/3 408/1/3
f 410/10/3 407/10/3 409/10/3
f 415/4/3 412/4/3 411/4/3
f 416/9/3 413/9/3 412/9/3
f 416/4/3 412/4/3 415/4/3
f 417/10/3 414/10/3 413/10/3
f 417/9/3 413/9/3 416/9/3
f 418/10/3 414/10/3 417/10/3
f 421/7/3 420/7/3 419/7/3
f 422/7/3 420/7/3 421/7/3
f 425/7/3 424/7/3 423/7/3
f 426/7/3 424/7/3 425/7/3
f 427/7/4 428/7/4 429/7/4
f 429/7/4 428/7/4 430/7/4
f 431/1/4 432/1/4 433/1/4
f 433/1/4 432/1/4 434/1/4
f 435/7/4 436/7/4 437/7/4
f 437/7/4 436/7/4 438/7/4
f 439/7/4 440/7/4 443/7/4
f 443/7/4 440/7/4 444/7/4
f 441/7/4 442/7/4 449/7/4
f 449/7/4 442/7/4 450/7/4
f 445/4/4 446/4/4 451/4/4
f 446/9/4 447/9/4 452/9/4
f 451/4/4 446/4/4 452/4/4
f 447/10/4 448/10/4 453/10/4
f 452/9/4 447/9/4 453/9/4
f 453/10/4 448/10/4 454/10/4
f 455/10/4 456/10/4 459/10/4
f 459/10/4 456/10/4 460/10/4
f 457/7/4 458/7/4 461/7/4
f 461/7/4 458/7/4 462/7/4
f 463/1/4 464/1/4 467/1/4
f 467/1/4 464/1/4 468/1/4
f 465/9/4 466/9/4 469/9/4
f 469/9/4 466/9/4 470/9/4
f 471/9/4 472/9/4 473/9/4
f 473/9/4 472/9/4 474/9/4
f 475/1/4 476/1/4 477/1/4
f 477/1/4 476/1/4 478/1/4
f 479/1/4 480/1/4 484/1/4
f 480/10/4 481/10/4 485/10/4
f 484/1/4 480/1/4 485/1/4
f 485/10/4 481/10/4 486/10/4
f 482/7/4 483/7/4 488/7/4
f 488/7/4 483/7/4 489/7/4
f 486/8/4 487/8/4 491/8/4
f 485/8/4 486/8/4 491/8/4
f 489/7/4 490/7/4 493/7/4
f 493/7/4 490/7/4 494/7/4
f 491/11/4 492/11/4 495/11/4
f 485/8/4 491/8/4 495/8/4
f 495/11/4 492/11/4 496/11/4
f 493/6/4 494/6/4 497/6/4
f 497/6/4 494/6/4 498/6/4
f 484/10/4 485/10/4 502/10/4
f 485/8/4 495/8/4 503/8/4
f 503/8/4 495/8/4 504/8/4
f 499/4/4 500/4/4 506/4/4
f 500/9/4 501/9/4 507/9/4
f 506/4/4 500/4/4 507/4/4
f 501/10/4 502/10/4 508/10/4
f 507/9/4 501/9/4 508/9/4
f 502/10/4 485/10/4 509/10/4
f 508/10/4 502/10/4 509/10/4
f 485/8/4 503/8/4 509/8/4
f 509/8/4 503/8/4 510/8/4
f 504/8/4 505/8/4 511/8/4
f 511/8/4 505/8/4 512/8/4
f 497/7/4 498/7/4 515/7/4
f 515/7/4 498/7/4 516/7/4
f 512/6/4 513/6/4 517/6/4
f 517/6/4 513/6/4 518/6/4
f 514/6/4 515/6/4 521/6/4
f 521/6/4 515/6/4 522/6/4
f 519/7/4 520/7/4 523/7/4
f 523/7/4 520/7/4 524/7/4
f 525/7/4 526/7/4 529/7/4
f 529/7/4 526/7/4 530/7/4
f 526/6/4 527/6/4 531/6/4
f 530/7/4 526/7/4 531/7/4
f 531/6/4 527/6/4 532/6/4
f 529/7/4 530/7/4 534/7/4
f 528/7/4 529/7/4 534/7/4
f 534/7/4 530/7/4 535/7/4
f 535/7/4 530/7/4 536/7/4
f 536/7/4 530/7/4 537/7/4
f 532/7/4 533/7/4 538/7/4
f 531/7/4 532/7/4 538/7/4
f 538/7/4 533/7/4 539/7/4
f 535/7/4 536/7/4 541/7/4
f 541/7/4 536/7/4 542/7/4
f 539/7/4 533/7/4 543/7/4
f 541/7/4 542/7/4 545/7/4
f 540/7/4 541/7/4 545/7/4
f 545/7/4 542/7/4 546/7/4
f 546/7/4 542/7/4 547/7/4
f 543/7/4 533/7/4 550/7/4
f 544/6/4 545/6/4 551/6/4
f 551/6/4 545/6/4 552/6/4
f 547/7/4 548/7/4 553/7/4
f 546/7/4 547/7/4 553/7/4
f 553/7/4 548/7/4 554/7/4
f 554/7/4 548/7/4 555/7/4
f 549/7/4 550/7/4 557/7/4
f 550/7/4 533/7/4 558/7/4
f 557/7/4 550/7/4 558/7/4
f 558/7/4 533/7/4 559/7/4
f 554/7/4 555/7/4 560/7/4
f 555/6/4 556/6/4 561/6/4
f 560/7/4 555/7/4 561/7/4
f 556/7/4 557/7/4 562/7/4
f 561/6/4 556/6/4 562/6/4
f 557/7/4 558/7/4 562/7/4
f 562/7/4 558/7/4 563/7/4
f 564/7/4 565/7/4 566/7/4
f 566/7/4 565/7/4 567/7/4
f 568/7/4 569/7/4 571/7/4
f 571/7/4 569/7/4 572/7/4
f 570/6/4 571/6/4 574/6/4
f 571/7/4 572/7/4 575/7/4
f 574/6/4 571/6/4 575/6/4
f 572/6/4 573/6/4 576/6/4
f 575/7/4 572/7/4 576/7/4
f 576/6/4 573/6/4 577/6/4
f 574/7/4 575/7/4 578/7/4
f 575/7/4 576/7/4 578/7/4
f 576/7/4 577/7/4 578/7/4
f 578/7/4 577/7/4 579/7/4
f 579/7/4 577/7/4 580/7/4
f 580/7/4 577/7/4 581/7/4
f 579/7/4 580/7/4 582/7/4
f 582/7/4 580/7/4 583/7/4
f 586/4/5 585/4/5 584/4/5
f 587/4/5 585/4/5 586/4/5
f 590/4/5 589/4/5 588/4/5
f 591/4/5 589/4/5 590/4/5
f 595/1/5 593/1/5 592/1/5
f 596/1/5 593/1/5 595/1/5
f 598/10/5 595/10/5 594/10/5
f 600/10/5 598/10/5 597/10/5
f 601/10/5 595/10/5 598/10/5
f 601/10/5 598/10/5 600/10/5
f 602/10/5 595/10/5 601/10/5
f 603/1/5 600/1/5 599/1/5
f 604/10/5 601/10/5 600/10/5
f 604/1/5 600/1/5 603/1/5
f 605/10/5 601/10/5 604/10/5
f 608/10/5 607/10/5 606/10/5
f 609/10/5 607/10/5 608/10/5
f 613/7/5 611/7/5 610/7/5
f 614/7/5 611/7/5 613/7/5
f 617/7/5 613/7/5 612/7/5
f 618/7/5 613/7/5 617/7/5
f 619/7/5 616/7/5 615/7/5
f 620/7/5 616/7/5 619/7/5
f 623/9/5 620/9/5 619/9/5
f 624/9/5 620/9/5 623/9/5
f 625/9/5 622/9/5 621/9/5
f 626/9/5 622/9/5 625/9/5
f 631/6/5 628/6/5 627/6/5
f 632/6/5 628/6/5 631/6/5
f 633/6/5 630/6/5 629/6/5
f 634/6/5 630/6/5 633/6/5
f 639/6/5 636/6/5 635/6/5
f 640/6/5 636/6/5 639/6/5
f 641/7/5 638/7/5 637/7/5
f 642/7/5 638/7/5 641/7/5
f 647/6/5 644/6/5 643/6/5
f 648/6/5 644/6/5 647/6/5
f 649/7/5 646/7/5 645/7/5
f 650/7/5 648/7/5 647/7/5
f 651/7/5 648/7/5 650/7/5
f 652/7/5 646/7/5 649/7/5
f 653/7/5 646/7/5 652/7/5
f 658/7/5 655/7/5 654/7/5
f 659/7/5 655/7/5 658/7/5
f 660/7/5 657/7/5 656/7/5
f 661/7/5 657/7/5 660/7/5
f 666/7/5 665/7/5 664/7/5
f 667/7/5 665/7/5 666/7/5
f 668/7/5 663/7/5 662/7/5
f 672/6/5 667/6/5 666/6/5
f 673/6/5 667/6/5 672/6/5
f 674/7/5 668/7/5 662/7/5
f 675/7/5 668/7/5 674/7/5
f 676/7/5 670/7/5 669/7/5
f 677/7/5 670/7/5 676/7/5
f 678/7/5 672/7/5 671/7/5
f 679/7/5 672/7/5 678/7/5
f 684/1/5 681/1/5 680/1/5
f 685/1/5 681/1/5 684/1/5
f 686/1/5 683/1/5 682/1/5
f 687/1/5 683/1/5 686/1/5
f 693/7/5 689/7/5 688/7/5
f 694/7/5 689/7/5 693/7/5
f 695/6/5 691/6/5 690/6/5
f 696/7/5 692/7/5 691/7/5
f 696/6/5 691/6/5 695/6/5
f 697/7/5 692/7/5 696/7/5
f 704/7/5 699/7/5 698/7/5
f 705/7/5 699/7/5 704/7/5
f 706/7/5 699/7/5 705/7/5
f 707/7/5 699/7/5 706/7/5
f 708/7/5 701/7/5 700/7/5
f 709/7/5 701/7/5 708/7/5
f 710/7/5 703/7/5 702/7/5
f 711/7/5 703/7/5 710/7/5
f 714/7/5 713/7/5 712/7/5
f 715/7/5 713/7/5 714/7/5
f 720/7/5 717/7/5 716/7/5
f 721/7/5 717/7/5 720/7/5
f 722/7/5 719/7/5 718/7/5
f 723/7/5 719/7/5 722/7/5
f 726/7/5 725/7/5 724/7/5
f 727/7/5 725/7/5 726/7/5
f 728/1/6 729/1/6 730/1/6
f 730/1/6 729/1/6 731/1/6
f 732/10/6 733/10/6 734/10/6
f 734/10/6 733/10/6 735/10/6
f 736/10/6 737/10/6 738/10/6
f 738/10/6 737/10/6 739/10/6
f 740/7/6 741/7/6 742/7/6
f 742/7/6 741/7/6 743/7/6
f 744/7/6 745/7/6 746/7/6
f 746/7/6 745/7/6 747/7/6
f 748/9/6 749/9/6 752/9/6
f 752/9/6 749/9/6 753/9/6
f 750/9/6 751/9/6 754/9/6
f 754/9/6 751/9/6 755/9/6
f 756/6/6 757/6/6 760/6/6
f 760/6/6 757/6/6 761/6/6
f 758/7/6 759/7/6 762/7/6
f 762/7/6 759/7/6 763/7/6
f 764/7/6 765/7/6 767/7/6
f 765/6/6 766/6/6 768/6/6
f 767/7/6 765/7/6 768/7/6
f 768/6/6 766/6/6 769/6/6
f 770/1/6 771/1/6 774/1/6
f 774/1/6 771/1/6 775/1/6
f 772/1/6 773/1/6 776/1/6
f 776/1/6 773/1/6 777/1/6
f 778/7/6 779/7/6 782/7/6
f 782/7/6 779/7/6 783/7/6
f 780/7/6 781/7/6 784/7/6
f 784/7/6 781/7/6 785/7/6
f 786/7/6 787/7/6 788/7/6
f 788/7/6 787/7/6 789/7/6
f 790/7/6 791/7/6 794/7/6
f 794/7/6 791/7/6 795/7/6
f 792/7/6 793/7/6 798/7/6
f 798/7/6 793/7/6 799/7/6
f 796/6/6 797/6/6 800/6/6
f 800/6/6 797/6/6 801/6/6
f 802/7/6 803/7/6 806/7/6
f 806/7/6 803/7/6 807/7/6
f 804/7/6 805/7/6 808/7/6
f 808/7/6 805/7/6 809/7/6
f 810/6/6 811/6/6 814/6/6
f 811/7/6 812/7/6 815/7/6
f 814/6/6 811/6/6 815/6/6
f 815/7/6 812/7/6 816/7/6
f 813/7/6 814/7/6 818/7/6
f 818/7/6 814/7/6 819/7/6
f 816/7/6 817/7/6 820/7/6
f 820/7/6 817/7/6 821/7/6
f 822/6/6 823/6/6 826/6/6
f 826/6/6 823/6/6 827/6/6
f 824/7/6 825/7/6 831/7/6
f 831/7/6 825/7/6 832/7/6
f 828/6/6 829/6/6 833/6/6
f 829/7/6 830/7/6 834/7/6
f 833/6/6 829/6/6 834/6/6
f 834/7/6 830/7/6 835/7/6
f 836/7/6 837/7/6 839/7/6
f 839/7/6 837/7/6 840/7/6
f 840/7/6 841/7/6 842/7/6
f 842/7/6 841/7/6 843/7/6
f 838/7/6 839/7/6 844/7/6
f 844/7/6 839/7/6 845/7/6
f 842/6/6 843/6/6 848/6/6
f 848/6/6 843/6/6 849/6/6
f 846/7/6 847/7/6 850/7/6
f 847/7/6 848/7/6 850/7/6
f 845/7/6 846/7/6 850/7/6
f 850/7/6 848/7/6 851/7/6
f 852/7/6 853/7/6 854/7/6
f 854/7/6 853/7/6 855/7/6
f 852/7/6 854/7/6 856/7/6
f 854/6/6 855/6/6 857/6/6
f 856/7/6 854/7/6 857/7/6
f 855/7/6 853/7/6 858/7/6
f 857/6/6 855/6/6 858/6/6
f 858/7/6 853/7/6 859/7/6
