# MagicaVoxel @ Ephtracy

# group
g vegan01_happy0

# material
mtllib vegan01_happy0.mtl
usemtl palette

# normals
vn -1 0 0
vn 1 0 0
vn 0 0 1
vn 0 0 -1
vn 0 -1 0
vn 0 1 0

# texcoords
vt 0.00195313 0.5
vt 0.0332031 0.5
vt 0.0605469 0.5
vt 0.166016 0.5
vt 0.634766 0.5
vt 0.638672 0.5
vt 0.962891 0.5
vt 0.974609 0.5
vt 0.978516 0.5
vt 0.982422 0.5
vt 0.994141 0.5

# verts
v -5 7 -0
v -5 7 -1
v -5 8 -0
v -5 8 -1
v -5 9 -0
v -5 9 -1
v -5 11 -0
v -5 11 -1
v -5 12 -0
v -5 12 -1
v -4 6 -0
v -4 6 -1
v -4 7 -0
v -4 7 -1
v -4 9 -0
v -4 9 -1
v -4 9 -2
v -4 9 -4
v -4 10 -0
v -4 10 -1
v -4 10 -2
v -4 10 -3
v -4 10 -4
v -4 11 1
v -4 11 -0
v -4 11 -1
v -4 11 -2
v -4 11 -3
v -4 12 1
v -4 12 -0
v -4 12 -1
v -4 12 -2
v -4 13 -0
v -4 13 -1
v -3 8 -0
v -3 8 -3
v -3 9 1
v -3 9 -0
v -3 9 -1
v -3 9 -2
v -3 9 -3
v -3 10 2
v -3 10 1
v -3 10 -0
v -3 10 -1
v -3 10 -2
v -3 11 1
v -3 11 -0
v -3 11 -2
v -3 11 -3
v -3 12 2
v -3 12 1
v -3 12 -0
v -3 12 -1
v -3 12 -2
v -3 13 1
v -3 13 -0
v -3 13 -1
v -3 13 -2
v -3 13 -3
v -3 14 -0
v -3 14 -2
v -2 0 -0
v -2 0 -1
v -2 1 -0
v -2 1 -1
v -2 3 1
v -2 3 -0
v -2 3 -1
v -2 3 -2
v -2 4 1
v -2 4 -0
v -2 4 -1
v -2 4 -2
v -2 5 1
v -2 5 -0
v -2 5 -1
v -2 5 -2
v -2 6 1
v -2 6 -0
v -2 6 -1
v -2 6 -2
v -2 7 1
v -2 7 -0
v -2 7 -1
v -2 8 1
v -2 8 -0
v -2 8 -2
v -2 8 -3
v -2 8 -4
v -2 9 1
v -2 9 -0
v -2 11 3
v -2 11 2
v -2 12 3
v -2 12 2
v -2 12 1
v -2 13 2
v -2 13 1
v -2 13 -0
v -2 13 -2
v -2 13 -3
v -2 13 -4
v -2 14 1
v -2 14 -0
v -2 14 -2
v -2 14 -3
v -2 15 -0
v -2 15 -2
v -1 9 -4
v -1 9 -5
v -1 12 -4
v -1 12 -5
v 0 10 2
v 0 10 1
v 0 11 2
v 0 11 1
v 1 0 -0
v 1 0 -1
v 1 1 -0
v 1 1 -1
v 1 2 -0
v 1 2 -1
v 1 3 -0
v 1 3 -1
v 2 10 2
v 2 10 1
v 2 11 2
v 2 11 1
v 3 9 -3
v 3 9 -4
v 3 10 -3
v 3 10 -4
v 3 12 2
v 3 12 1
v 3 13 2
v 3 13 1
v 4 7 -0
v 4 7 -1
v 4 8 -0
v 4 8 -1
v 4 9 -0
v 4 9 -1
v -4 7 -0
v -4 7 -1
v -4 8 -0
v -4 8 -1
v -4 9 -0
v -4 9 -1
v -3 9 -3
v -3 9 -4
v -3 10 -3
v -3 10 -4
v -2 10 2
v -2 10 1
v -2 11 2
v -2 11 1
v -1 0 -0
v -1 0 -1
v -1 1 -0
v -1 1 -1
v -1 3 -0
v -1 3 -1
v 1 9 -4
v 1 9 -5
v 1 10 2
v 1 10 1
v 1 11 2
v 1 11 1
v 1 12 -4
v 1 12 -5
v 2 0 -0
v 2 0 -1
v 2 1 -0
v 2 1 -1
v 2 2 -0
v 2 2 -1
v 2 3 1
v 2 3 -0
v 2 3 -1
v 2 3 -2
v 2 4 1
v 2 4 -0
v 2 4 -1
v 2 4 -2
v 2 5 1
v 2 5 -0
v 2 5 -1
v 2 5 -2
v 2 6 1
v 2 6 -0
v 2 6 -1
v 2 6 -2
v 2 7 -0
v 2 7 -1
v 2 8 1
v 2 8 -0
v 2 8 -2
v 2 8 -3
v 2 8 -4
v 2 9 1
v 2 9 -0
v 2 11 3
v 2 11 2
v 2 12 3
v 2 12 2
v 2 12 1
v 2 13 2
v 2 13 1
v 2 13 -0
v 2 13 -2
v 2 13 -3
v 2 13 -4
v 2 14 1
v 2 14 -0
v 2 14 -2
v 2 14 -3
v 2 15 -0
v 2 15 -2
v 3 8 -0
v 3 8 -3
v 3 9 1
v 3 9 -0
v 3 9 -1
v 3 9 -2
v 3 9 -3
v 3 10 2
v 3 10 1
v 3 10 -0
v 3 10 -1
v 3 10 -2
v 3 11 1
v 3 11 -0
v 3 11 -2
v 3 11 -3
v 3 12 2
v 3 12 1
v 3 12 -0
v 3 13 1
v 3 13 -0
v 3 13 -2
v 3 13 -3
v 3 14 -0
v 3 14 -2
v 4 6 -0
v 4 6 -1
v 4 7 -0
v 4 7 -1
v 4 9 -0
v 4 9 -1
v 4 9 -2
v 4 9 -4
v 4 10 -0
v 4 10 -1
v 4 10 -2
v 4 10 -3
v 4 10 -4
v 4 11 1
v 4 11 -0
v 4 11 -1
v 4 11 -2
v 4 11 -3
v 4 12 2
v 4 12 1
v 4 12 -0
v 4 12 -1
v 4 13 2
v 4 13 1
v 4 13 -0
v 4 13 -2
v 5 7 -0
v 5 7 -1
v 5 8 -0
v 5 8 -1
v 5 9 -0
v 5 9 -1
v 5 11 -0
v 5 11 -1
v 5 12 -0
v 5 12 -1
v -2 11 3
v -2 12 3
v 2 11 3
v 2 12 3
v -3 10 2
v -3 12 2
v -2 10 2
v -2 11 2
v -2 12 2
v -2 13 2
v 0 10 2
v 0 11 2
v 1 10 2
v 1 11 2
v 2 10 2
v 2 11 2
v 2 12 2
v 2 13 2
v 3 10 2
v 3 12 2
v 3 13 2
v 4 12 2
v 4 13 2
v -4 11 1
v -4 12 1
v -3 9 1
v -3 10 1
v -3 11 1
v -3 12 1
v -3 13 1
v -2 3 1
v -2 4 1
v -2 5 1
v -2 6 1
v -2 7 1
v -2 8 1
v -2 9 1
v -2 10 1
v -2 11 1
v -2 12 1
v -2 13 1
v -2 14 1
v -1 9 1
v -1 10 1
v 0 3 1
v 0 4 1
v 0 5 1
v 0 6 1
v 0 7 1
v 0 8 1
v 0 9 1
v 0 10 1
v 0 11 1
v 1 3 1
v 1 4 1
v 1 5 1
v 1 6 1
v 1 9 1
v 1 10 1
v 1 11 1
v 2 3 1
v 2 4 1
v 2 5 1
v 2 6 1
v 2 8 1
v 2 9 1
v 2 10 1
v 2 11 1
v 2 12 1
v 2 13 1
v 2 14 1
v 3 9 1
v 3 10 1
v 3 11 1
v 3 12 1
v 3 13 1
v 4 11 1
v 4 12 1
v -5 7 -0
v -5 8 -0
v -5 9 -0
v -5 11 -0
v -5 12 -0
v -4 6 -0
v -4 7 -0
v -4 8 -0
v -4 9 -0
v -4 10 -0
v -4 11 -0
v -4 12 -0
v -4 13 -0
v -3 6 -0
v -3 7 -0
v -3 8 -0
v -3 9 -0
v -3 10 -0
v -3 11 -0
v -3 12 -0
v -3 13 -0
v -3 14 -0
v -2 0 -0
v -2 1 -0
v -2 3 -0
v -2 6 -0
v -2 7 -0
v -2 8 -0
v -2 9 -0
v -2 13 -0
v -2 14 -0
v -2 15 -0
v -1 0 -0
v -1 1 -0
v -1 3 -0
v 1 0 -0
v 1 1 -0
v 1 2 -0
v 1 3 -0
v 2 0 -0
v 2 1 -0
v 2 2 -0
v 2 3 -0
v 2 6 -0
v 2 7 -0
v 2 8 -0
v 2 9 -0
v 2 13 -0
v 2 14 -0
v 2 15 -0
v 3 6 -0
v 3 7 -0
v 3 8 -0
v 3 9 -0
v 3 10 -0
v 3 11 -0
v 3 12 -0
v 3 13 -0
v 3 14 -0
v 4 6 -0
v 4 7 -0
v 4 8 -0
v 4 9 -0
v 4 10 -0
v 4 11 -0
v 4 12 -0
v 4 13 -0
v 5 7 -0
v 5 8 -0
v 5 9 -0
v 5 11 -0
v 5 12 -0
v -4 9 -2
v -4 10 -2
v -3 9 -2
v -3 10 -2
v 3 9 -2
v 3 10 -2
v 4 9 -2
v 4 10 -2
v 3 12 1
v 3 13 1
v 4 12 1
v 4 13 1
v -5 7 -1
v -5 8 -1
v -5 9 -1
v -5 11 -1
v -5 12 -1
v -4 6 -1
v -4 7 -1
v -4 8 -1
v -4 9 -1
v -4 10 -1
v -4 11 -1
v -4 12 -1
v -4 13 -1
v -3 6 -1
v -3 7 -1
v -3 9 -1
v -3 10 -1
v -3 12 -1
v -3 13 -1
v -2 0 -1
v -2 1 -1
v -2 3 -1
v -2 6 -1
v -2 7 -1
v -1 0 -1
v -1 1 -1
v -1 3 -1
v 1 0 -1
v 1 1 -1
v 1 2 -1
v 1 3 -1
v 2 0 -1
v 2 1 -1
v 2 2 -1
v 2 3 -1
v 2 6 -1
v 2 7 -1
v 3 6 -1
v 3 7 -1
v 3 9 -1
v 3 10 -1
v 4 6 -1
v 4 7 -1
v 4 8 -1
v 4 9 -1
v 4 10 -1
v 4 11 -1
v 4 12 -1
v 5 7 -1
v 5 8 -1
v 5 9 -1
v 5 11 -1
v 5 12 -1
v -4 11 -2
v -4 12 -2
v -3 11 -2
v -3 12 -2
v -3 13 -2
v -3 14 -2
v -2 3 -2
v -2 4 -2
v -2 5 -2
v -2 6 -2
v -2 8 -2
v -2 13 -2
v -2 14 -2
v -2 15 -2
v 2 3 -2
v 2 4 -2
v 2 5 -2
v 2 6 -2
v 2 8 -2
v 2 13 -2
v 2 14 -2
v 2 15 -2
v 3 11 -2
v 3 13 -2
v 3 14 -2
v 4 11 -2
v 4 13 -2
v -4 10 -3
v -4 11 -3
v -3 8 -3
v -3 9 -3
v -3 10 -3
v -3 11 -3
v -3 13 -3
v -2 8 -3
v -2 13 -3
v -2 14 -3
v 2 8 -3
v 2 13 -3
v 2 14 -3
v 3 8 -3
v 3 9 -3
v 3 10 -3
v 3 11 -3
v 3 13 -3
v 4 10 -3
v 4 11 -3
v -4 9 -4
v -4 10 -4
v -3 9 -4
v -3 10 -4
v -2 8 -4
v -2 13 -4
v -1 9 -4
v -1 12 -4
v 1 9 -4
v 1 12 -4
v 2 8 -4
v 2 13 -4
v 3 9 -4
v 3 10 -4
v 4 9 -4
v 4 10 -4
v -1 9 -5
v -1 12 -5
v 1 9 -5
v 1 12 -5
v -2 0 -0
v -1 0 -0
v 1 0 -0
v 2 0 -0
v -2 0 -1
v -1 0 -1
v 1 0 -1
v 2 0 -1
v -2 3 1
v 0 3 1
v 1 3 1
v 2 3 1
v -2 3 -0
v -1 3 -0
v 0 3 -0
v 1 3 -0
v 2 3 -0
v -2 3 -1
v -1 3 -1
v 1 3 -1
v 2 3 -1
v -2 3 -2
v 2 3 -2
v -4 6 -0
v -3 6 -0
v -2 6 -0
v 2 6 -0
v 3 6 -0
v 4 6 -0
v -4 6 -1
v -3 6 -1
v -2 6 -1
v 2 6 -1
v 3 6 -1
v 4 6 -1
v -5 7 -0
v -4 7 -0
v 4 7 -0
v 5 7 -0
v -5 7 -1
v -4 7 -1
v 4 7 -1
v 5 7 -1
v -3 8 -0
v -2 8 -0
v 2 8 -0
v 3 8 -0
v -2 8 -2
v 2 8 -2
v -3 8 -3
v -2 8 -3
v 2 8 -3
v 3 8 -3
v -2 8 -4
v 2 8 -4
v -3 9 1
v -2 9 1
v 2 9 1
v 3 9 1
v -4 9 -0
v -3 9 -0
v -2 9 -0
v 2 9 -0
v 3 9 -0
v 4 9 -0
v -4 9 -1
v -3 9 -1
v 3 9 -1
v 4 9 -1
v -4 9 -2
v -3 9 -2
v 3 9 -2
v 4 9 -2
v -3 9 -3
v 3 9 -3
v -4 9 -4
v -3 9 -4
v -1 9 -4
v 1 9 -4
v 3 9 -4
v 4 9 -4
v -1 9 -5
v 1 9 -5
v -3 10 2
v -2 10 2
v 0 10 2
v 1 10 2
v 2 10 2
v 3 10 2
v -3 10 1
v -2 10 1
v 0 10 1
v 1 10 1
v 2 10 1
v 3 10 1
v -4 10 -1
v -3 10 -1
v 3 10 -1
v 4 10 -1
v -4 10 -2
v -3 10 -2
v 3 10 -2
v 4 10 -2
v -2 11 3
v 2 11 3
v -2 11 2
v 0 11 2
v 1 11 2
v 2 11 2
v -4 11 1
v -3 11 1
v -2 11 1
v 0 11 1
v 1 11 1
v 2 11 1
v 3 11 1
v 4 11 1
v -5 11 -0
v -4 11 -0
v -3 11 -0
v 3 11 -0
v 4 11 -0
v 5 11 -0
v -5 11 -1
v -4 11 -1
v 4 11 -1
v 5 11 -1
v 3 12 2
v 4 12 2
v 3 12 1
v 4 12 1
v -4 7 -0
v -3 7 -0
v -2 7 -0
v 2 7 -0
v 3 7 -0
v 4 7 -0
v -4 7 -1
v -3 7 -1
v -2 7 -1
v 2 7 -1
v 3 7 -1
v 4 7 -1
v -5 9 -0
v -4 9 -0
v 4 9 -0
v 5 9 -0
v -5 9 -1
v -4 9 -1
v 4 9 -1
v 5 9 -1
v -4 10 -3
v -3 10 -3
v 3 10 -3
v 4 10 -3
v -4 10 -4
v -3 10 -4
v 3 10 -4
v 4 10 -4
v -4 11 -2
v -3 11 -2
v 3 11 -2
v 4 11 -2
v -4 11 -3
v -3 11 -3
v 3 11 -3
v 4 11 -3
v -2 12 3
v 2 12 3
v -3 12 2
v -2 12 2
v 2 12 2
v 3 12 2
v -4 12 1
v -3 12 1
v -2 12 1
v 2 12 1
v 3 12 1
v 4 12 1
v -5 12 -0
v -4 12 -0
v -3 12 -0
v 3 12 -0
v 4 12 -0
v 5 12 -0
v -5 12 -1
v -4 12 -1
v -3 12 -1
v 4 12 -1
v 5 12 -1
v -4 12 -2
v -3 12 -2
v -1 12 -4
v 1 12 -4
v -1 12 -5
v 1 12 -5
v -2 13 2
v 2 13 2
v 3 13 2
v 4 13 2
v -3 13 1
v -2 13 1
v 2 13 1
v 3 13 1
v 4 13 1
v -4 13 -0
v -3 13 -0
v -2 13 -0
v 2 13 -0
v 3 13 -0
v 4 13 -0
v -4 13 -1
v -3 13 -1
v -3 13 -2
v -2 13 -2
v 2 13 -2
v 3 13 -2
v 4 13 -2
v -3 13 -3
v -2 13 -3
v 2 13 -3
v 3 13 -3
v -2 13 -4
v 2 13 -4
v -2 14 1
v 2 14 1
v -3 14 -0
v -2 14 -0
v 2 14 -0
v 3 14 -0
v -3 14 -2
v -2 14 -2
v 2 14 -2
v 3 14 -2
v -2 14 -3
v 2 14 -3
v -2 15 -0
v 2 15 -0
v -2 15 -2
v 2 15 -2

# faces
f 3/1/1 2/1/1 1/1/1
f 4/1/1 2/1/1 3/1/1
f 5/2/1 4/2/1 3/2/1
f 6/2/1 4/2/1 5/2/1
f 9/5/1 8/5/1 7/5/1
f 10/5/1 8/5/1 9/5/1
f 13/10/1 12/10/1 11/10/1
f 14/10/1 12/10/1 13/10/1
f 19/3/1 16/3/1 15/3/1
f 20/3/1 16/3/1 19/3/1
f 21/5/1 18/5/1 17/5/1
f 22/5/1 18/5/1 21/5/1
f 23/5/1 18/5/1 22/5/1
f 25/5/1 20/5/1 19/5/1
f 25/5/1 21/5/1 20/5/1
f 25/5/1 22/5/1 21/5/1
f 26/5/1 22/5/1 25/5/1
f 27/5/1 22/5/1 26/5/1
f 28/5/1 22/5/1 27/5/1
f 29/5/1 25/5/1 24/5/1
f 30/5/1 25/5/1 29/5/1
f 31/5/1 27/5/1 26/5/1
f 32/5/1 27/5/1 31/5/1
f 33/5/1 31/5/1 30/5/1
f 34/5/1 31/5/1 33/5/1
f 38/5/1 36/5/1 35/5/1
f 39/5/1 36/5/1 38/5/1
f 40/5/1 36/5/1 39/5/1
f 41/5/1 36/5/1 40/5/1
f 43/5/1 38/5/1 37/5/1
f 44/5/1 38/5/1 43/5/1
f 45/5/1 40/5/1 39/5/1
f 46/5/1 40/5/1 45/5/1
f 47/5/1 44/5/1 43/5/1
f 47/5/1 43/5/1 42/5/1
f 48/5/1 44/5/1 47/5/1
f 51/5/1 47/5/1 42/5/1
f 52/5/1 47/5/1 51/5/1
f 55/5/1 50/5/1 49/5/1
f 56/5/1 53/5/1 52/5/1
f 57/5/1 53/5/1 56/5/1
f 58/5/1 55/5/1 54/5/1
f 59/5/1 50/5/1 55/5/1
f 59/5/1 55/5/1 58/5/1
f 60/5/1 50/5/1 59/5/1
f 61/5/1 58/5/1 57/5/1
f 61/5/1 59/5/1 58/5/1
f 62/5/1 59/5/1 61/5/1
f 65/6/1 64/6/1 63/6/1
f 66/6/1 64/6/1 65/6/1
f 68/7/1 66/7/1 65/7/1
f 69/7/1 66/7/1 68/7/1
f 71/4/1 68/4/1 67/4/1
f 72/5/1 69/5/1 68/5/1
f 72/4/1 68/4/1 71/4/1
f 73/4/1 70/4/1 69/4/1
f 73/5/1 69/5/1 72/5/1
f 74/4/1 70/4/1 73/4/1
f 75/10/1 72/10/1 71/10/1
f 76/5/1 73/5/1 72/5/1
f 76/10/1 72/10/1 75/10/1
f 77/9/1 74/9/1 73/9/1
f 77/5/1 73/5/1 76/5/1
f 78/9/1 74/9/1 77/9/1
f 79/4/1 76/4/1 75/4/1
f 80/5/1 77/5/1 76/5/1
f 80/4/1 76/4/1 79/4/1
f 81/4/1 78/4/1 77/4/1
f 81/5/1 77/5/1 80/5/1
f 82/4/1 78/4/1 81/4/1
f 83/6/1 80/6/1 79/6/1
f 84/6/1 80/6/1 83/6/1
f 85/5/1 82/5/1 81/5/1
f 86/5/1 84/5/1 83/5/1
f 86/5/1 85/5/1 84/5/1
f 87/5/1 85/5/1 86/5/1
f 88/5/1 82/5/1 85/5/1
f 88/5/1 85/5/1 87/5/1
f 91/3/1 87/3/1 86/3/1
f 92/3/1 87/3/1 91/3/1
f 95/5/1 94/5/1 93/5/1
f 96/5/1 94/5/1 95/5/1
f 98/5/1 97/5/1 96/5/1
f 99/5/1 97/5/1 98/5/1
f 102/5/1 90/5/1 89/5/1
f 103/5/1 90/5/1 102/5/1
f 104/5/1 100/5/1 99/5/1
f 105/5/1 100/5/1 104/5/1
f 106/5/1 102/5/1 101/5/1
f 107/5/1 102/5/1 106/5/1
f 108/5/1 106/5/1 105/5/1
f 109/5/1 106/5/1 108/5/1
f 112/5/1 111/5/1 110/5/1
f 113/5/1 111/5/1 112/5/1
f 116/5/1 115/5/1 114/5/1
f 117/5/1 115/5/1 116/5/1
f 120/6/1 119/6/1 118/6/1
f 121/6/1 119/6/1 120/6/1
f 122/7/1 121/7/1 120/7/1
f 123/7/1 121/7/1 122/7/1
f 124/4/1 123/4/1 122/4/1
f 125/4/1 123/4/1 124/4/1
f 128/5/1 127/5/1 126/5/1
f 129/5/1 127/5/1 128/5/1
f 132/5/1 131/5/1 130/5/1
f 133/5/1 131/5/1 132/5/1
f 136/5/1 135/5/1 134/5/1
f 137/5/1 135/5/1 136/5/1
f 140/1/1 139/1/1 138/1/1
f 141/1/1 139/1/1 140/1/1
f 142/2/1 141/2/1 140/2/1
f 143/2/1 141/2/1 142/2/1
f 144/1/2 145/1/2 146/1/2
f 146/1/2 145/1/2 147/1/2
f 146/2/2 147/2/2 148/2/2
f 148/2/2 147/2/2 149/2/2
f 150/5/2 151/5/2 152/5/2
f 152/5/2 151/5/2 153/5/2
f 154/5/2 155/5/2 156/5/2
f 156/5/2 155/5/2 157/5/2
f 158/6/2 159/6/2 160/6/2
f 160/6/2 159/6/2 161/6/2
f 160/7/2 161/7/2 162/7/2
f 162/7/2 161/7/2 163/7/2
f 166/5/2 167/5/2 168/5/2
f 168/5/2 167/5/2 169/5/2
f 164/5/2 165/5/2 170/5/2
f 170/5/2 165/5/2 171/5/2
f 172/6/2 173/6/2 174/6/2
f 174/6/2 173/6/2 175/6/2
f 174/7/2 175/7/2 176/7/2
f 176/7/2 175/7/2 177/7/2
f 176/4/2 177/4/2 179/4/2
f 179/4/2 177/4/2 180/4/2
f 178/4/2 179/4/2 182/4/2
f 179/5/2 180/5/2 183/5/2
f 182/4/2 179/4/2 183/4/2
f 180/4/2 181/4/2 184/4/2
f 183/5/2 180/5/2 184/5/2
f 184/4/2 181/4/2 185/4/2
f 182/9/2 183/9/2 186/9/2
f 183/5/2 184/5/2 187/5/2
f 186/9/2 183/9/2 187/9/2
f 184/9/2 185/9/2 188/9/2
f 187/5/2 184/5/2 188/5/2
f 188/9/2 185/9/2 189/9/2
f 186/1/2 187/1/2 190/1/2
f 187/5/2 188/5/2 191/5/2
f 190/1/2 187/1/2 191/1/2
f 188/4/2 189/4/2 192/4/2
f 191/5/2 188/5/2 192/5/2
f 192/4/2 189/4/2 193/4/2
f 190/5/2 191/5/2 194/5/2
f 192/5/2 193/5/2 195/5/2
f 190/5/2 194/5/2 196/5/2
f 194/5/2 195/5/2 196/5/2
f 196/5/2 195/5/2 197/5/2
f 195/5/2 193/5/2 198/5/2
f 197/5/2 195/5/2 198/5/2
f 196/2/2 197/2/2 201/2/2
f 201/2/2 197/2/2 202/2/2
f 203/5/2 204/5/2 205/5/2
f 205/5/2 204/5/2 206/5/2
f 206/5/2 207/5/2 208/5/2
f 208/5/2 207/5/2 209/5/2
f 199/5/2 200/5/2 212/5/2
f 212/5/2 200/5/2 213/5/2
f 209/5/2 210/5/2 214/5/2
f 214/5/2 210/5/2 215/5/2
f 211/5/2 212/5/2 216/5/2
f 216/5/2 212/5/2 217/5/2
f 215/5/2 216/5/2 218/5/2
f 218/5/2 216/5/2 219/5/2
f 220/5/2 221/5/2 223/5/2
f 223/5/2 221/5/2 224/5/2
f 224/5/2 221/5/2 225/5/2
f 225/5/2 221/5/2 226/5/2
f 222/5/2 223/5/2 228/5/2
f 228/5/2 223/5/2 229/5/2
f 224/5/2 225/5/2 230/5/2
f 230/5/2 225/5/2 231/5/2
f 228/5/2 229/5/2 232/5/2
f 227/5/2 228/5/2 232/5/2
f 232/5/2 229/5/2 233/5/2
f 227/5/2 232/5/2 236/5/2
f 236/5/2 232/5/2 237/5/2
f 237/5/2 238/5/2 239/5/2
f 239/5/2 238/5/2 240/5/2
f 234/5/2 235/5/2 241/5/2
f 241/5/2 235/5/2 242/5/2
f 240/5/2 241/5/2 243/5/2
f 243/5/2 241/5/2 244/5/2
f 245/8/2 246/8/2 247/8/2
f 247/8/2 246/8/2 248/8/2
f 249/3/2 250/3/2 253/3/2
f 253/3/2 250/3/2 254/3/2
f 251/5/2 252/5/2 255/5/2
f 255/5/2 252/5/2 256/5/2
f 256/5/2 252/5/2 257/5/2
f 253/5/2 254/5/2 259/5/2
f 254/5/2 255/5/2 259/5/2
f 255/5/2 256/5/2 259/5/2
f 259/5/2 256/5/2 260/5/2
f 260/5/2 256/5/2 261/5/2
f 261/5/2 256/5/2 262/5/2
f 258/5/2 259/5/2 264/5/2
f 264/5/2 259/5/2 265/5/2
f 260/5/2 261/5/2 266/5/2
f 263/5/2 264/5/2 267/5/2
f 267/5/2 264/5/2 268/5/2
f 265/5/2 266/5/2 269/5/2
f 266/5/2 261/5/2 270/5/2
f 269/5/2 266/5/2 270/5/2
f 271/1/2 272/1/2 273/1/2
f 273/1/2 272/1/2 274/1/2
f 273/2/2 274/2/2 275/2/2
f 275/2/2 274/2/2 276/2/2
f 277/5/2 278/5/2 279/5/2
f 279/5/2 278/5/2 280/5/2
f 283/5/3 282/5/3 281/5/3
f 284/5/3 282/5/3 283/5/3
f 287/5/3 286/5/3 285/5/3
f 288/5/3 286/5/3 287/5/3
f 289/5/3 286/5/3 288/5/3
f 293/5/3 292/5/3 291/5/3
f 294/5/3 292/5/3 293/5/3
f 297/5/3 290/5/3 289/5/3
f 298/5/3 290/5/3 297/5/3
f 299/5/3 296/5/3 295/5/3
f 299/5/3 297/5/3 296/5/3
f 300/5/3 297/5/3 299/5/3
f 302/5/3 301/5/3 300/5/3
f 303/5/3 301/5/3 302/5/3
f 308/5/3 305/5/3 304/5/3
f 309/5/3 305/5/3 308/5/3
f 317/5/3 307/5/3 306/5/3
f 318/5/3 307/5/3 317/5/3
f 320/5/3 310/5/3 309/5/3
f 321/5/3 310/5/3 320/5/3
f 323/3/3 317/3/3 316/3/3
f 323/11/3 318/11/3 317/11/3
f 324/5/3 319/5/3 318/5/3
f 324/11/3 318/11/3 323/11/3
f 325/4/3 312/4/3 311/4/3
f 326/10/3 313/10/3 312/10/3
f 326/4/3 312/4/3 325/4/3
f 327/4/3 314/4/3 313/4/3
f 327/10/3 313/10/3 326/10/3
f 328/6/3 315/6/3 314/6/3
f 328/4/3 314/4/3 327/4/3
f 329/5/3 316/5/3 315/5/3
f 329/6/3 315/6/3 328/6/3
f 330/3/3 323/3/3 316/3/3
f 330/5/3 316/5/3 329/5/3
f 331/2/3 324/2/3 323/2/3
f 331/3/3 323/3/3 330/3/3
f 332/5/3 319/5/3 324/5/3
f 332/2/3 324/2/3 331/2/3
f 333/5/3 319/5/3 332/5/3
f 334/1/3 326/1/3 325/1/3
f 334/1/3 327/1/3 326/1/3
f 335/1/3 327/1/3 334/1/3
f 336/4/3 328/4/3 327/4/3
f 336/1/3 327/1/3 335/1/3
f 337/5/3 329/5/3 328/5/3
f 337/4/3 328/4/3 336/4/3
f 337/5/3 330/5/3 329/5/3
f 338/2/3 331/2/3 330/2/3
f 338/2/3 332/2/3 331/2/3
f 339/2/3 332/2/3 338/2/3
f 341/4/3 335/4/3 334/4/3
f 342/9/3 336/9/3 335/9/3
f 342/4/3 335/4/3 341/4/3
f 343/1/3 337/1/3 336/1/3
f 343/9/3 336/9/3 342/9/3
f 344/5/3 330/5/3 337/5/3
f 344/1/3 337/1/3 343/1/3
f 345/2/3 338/2/3 330/2/3
f 345/5/3 330/5/3 344/5/3
f 346/11/3 339/11/3 338/11/3
f 346/2/3 338/2/3 345/2/3
f 347/5/3 340/5/3 339/5/3
f 347/11/3 339/11/3 346/11/3
f 348/5/3 340/5/3 347/5/3
f 350/5/3 322/5/3 321/5/3
f 351/5/3 322/5/3 350/5/3
f 352/5/3 347/5/3 346/5/3
f 353/5/3 347/5/3 352/5/3
f 355/5/3 350/5/3 349/5/3
f 356/5/3 350/5/3 355/5/3
f 357/5/3 355/5/3 354/5/3
f 358/5/3 355/5/3 357/5/3
f 365/1/3 360/1/3 359/1/3
f 366/2/3 361/2/3 360/2/3
f 366/1/3 360/1/3 365/1/3
f 367/2/3 361/2/3 366/2/3
f 369/5/3 363/5/3 362/5/3
f 370/5/3 363/5/3 369/5/3
f 372/10/3 365/10/3 364/10/3
f 373/10/3 365/10/3 372/10/3
f 375/3/3 368/3/3 367/3/3
f 376/5/3 369/5/3 368/5/3
f 376/3/3 368/3/3 375/3/3
f 377/5/3 369/5/3 376/5/3
f 378/5/3 371/5/3 370/5/3
f 379/5/3 371/5/3 378/5/3
f 384/6/3 373/6/3 372/6/3
f 385/6/3 373/6/3 384/6/3
f 386/5/3 375/5/3 374/5/3
f 387/5/3 375/5/3 386/5/3
f 388/5/3 380/5/3 379/5/3
f 389/5/3 380/5/3 388/5/3
f 391/6/3 382/6/3 381/6/3
f 392/7/3 383/7/3 382/7/3
f 392/6/3 382/6/3 391/6/3
f 393/7/3 383/7/3 392/7/3
f 398/6/3 395/6/3 394/6/3
f 399/7/3 396/7/3 395/7/3
f 399/6/3 395/6/3 398/6/3
f 400/4/3 397/4/3 396/4/3
f 400/7/3 396/7/3 399/7/3
f 401/4/3 397/4/3 400/4/3
f 407/5/3 390/5/3 389/5/3
f 408/5/3 390/5/3 407/5/3
f 409/6/3 403/6/3 402/6/3
f 410/6/3 403/6/3 409/6/3
f 411/5/3 405/5/3 404/5/3
f 412/5/3 405/5/3 411/5/3
f 416/5/3 407/5/3 406/5/3
f 417/5/3 407/5/3 416/5/3
f 418/8/3 410/8/3 409/8/3
f 419/8/3 410/8/3 418/8/3
f 421/3/3 413/3/3 412/3/3
f 422/5/3 414/5/3 413/5/3
f 422/3/3 413/3/3 421/3/3
f 423/5/3 414/5/3 422/5/3
f 424/5/3 416/5/3 415/5/3
f 425/5/3 416/5/3 424/5/3
f 426/1/3 420/1/3 419/1/3
f 427/2/3 421/2/3 420/2/3
f 427/1/3 420/1/3 426/1/3
f 428/2/3 421/2/3 427/2/3
f 429/5/3 424/5/3 423/5/3
f 430/5/3 424/5/3 429/5/3
f 433/5/3 432/5/3 431/5/3
f 434/5/3 432/5/3 433/5/3
f 437/5/3 436/5/3 435/5/3
f 438/5/3 436/5/3 437/5/3
f 439/5/4 440/5/4 441/5/4
f 441/5/4 440/5/4 442/5/4
f 443/1/4 444/1/4 449/1/4
f 444/2/4 445/2/4 450/2/4
f 449/1/4 444/1/4 450/1/4
f 450/2/4 445/2/4 451/2/4
f 446/5/4 447/5/4 453/5/4
f 453/5/4 447/5/4 454/5/4
f 448/10/4 449/10/4 456/10/4
f 456/10/4 449/10/4 457/10/4
f 451/3/4 452/3/4 458/3/4
f 458/3/4 452/3/4 459/3/4
f 454/5/4 455/5/4 460/5/4
f 460/5/4 455/5/4 461/5/4
f 456/6/4 457/6/4 465/6/4
f 465/6/4 457/6/4 466/6/4
f 462/6/4 463/6/4 467/6/4
f 463/7/4 464/7/4 468/7/4
f 467/6/4 463/6/4 468/6/4
f 468/7/4 464/7/4 469/7/4
f 470/6/4 471/6/4 474/6/4
f 471/7/4 472/7/4 475/7/4
f 474/6/4 471/6/4 475/6/4
f 472/4/4 473/4/4 476/4/4
f 475/7/4 472/7/4 476/7/4
f 476/4/4 473/4/4 477/4/4
f 478/6/4 479/6/4 480/6/4
f 480/6/4 479/6/4 481/6/4
f 480/8/4 481/8/4 484/8/4
f 484/8/4 481/8/4 485/8/4
f 482/3/4 483/3/4 487/3/4
f 487/3/4 483/3/4 488/3/4
f 485/1/4 486/1/4 491/1/4
f 486/2/4 487/2/4 492/2/4
f 491/1/4 486/1/4 492/1/4
f 492/2/4 487/2/4 493/2/4
f 489/5/4 490/5/4 494/5/4
f 494/5/4 490/5/4 495/5/4
f 496/5/4 497/5/4 498/5/4
f 498/5/4 497/5/4 499/5/4
f 500/5/4 501/5/4 507/5/4
f 507/5/4 501/5/4 508/5/4
f 502/4/4 503/4/4 510/4/4
f 503/9/4 504/9/4 511/9/4
f 510/4/4 503/4/4 511/4/4
f 504/4/4 505/4/4 512/4/4
f 511/9/4 504/9/4 512/9/4
f 505/5/4 506/5/4 513/5/4
f 512/4/4 505/4/4 513/4/4
f 513/5/4 506/5/4 514/5/4
f 508/5/4 509/5/4 516/5/4
f 516/5/4 509/5/4 517/5/4
f 515/5/4 516/5/4 519/5/4
f 519/5/4 516/5/4 520/5/4
f 518/5/4 519/5/4 521/5/4
f 521/5/4 519/5/4 522/5/4
f 523/5/4 524/5/4 527/5/4
f 527/5/4 524/5/4 528/5/4
f 525/5/4 526/5/4 530/5/4
f 528/5/4 529/5/4 530/5/4
f 527/5/4 528/5/4 530/5/4
f 526/5/4 527/5/4 530/5/4
f 530/5/4 529/5/4 531/5/4
f 531/5/4 532/5/4 534/5/4
f 534/5/4 532/5/4 535/5/4
f 533/5/4 534/5/4 536/5/4
f 536/5/4 534/5/4 537/5/4
f 537/5/4 534/5/4 538/5/4
f 538/5/4 534/5/4 539/5/4
f 539/5/4 534/5/4 540/5/4
f 538/5/4 539/5/4 541/5/4
f 541/5/4 539/5/4 542/5/4
f 543/5/4 544/5/4 545/5/4
f 545/5/4 544/5/4 546/5/4
f 547/5/4 548/5/4 549/5/4
f 549/5/4 548/5/4 550/5/4
f 547/5/4 549/5/4 551/5/4
f 550/5/4 548/5/4 552/5/4
f 547/5/4 551/5/4 553/5/4
f 551/5/4 552/5/4 553/5/4
f 552/5/4 548/5/4 554/5/4
f 553/5/4 552/5/4 554/5/4
f 555/5/4 556/5/4 557/5/4
f 557/5/4 556/5/4 558/5/4
f 559/5/4 560/5/4 561/5/4
f 561/5/4 560/5/4 562/5/4
f 567/6/5 564/6/5 563/6/5
f 568/6/5 564/6/5 567/6/5
f 569/6/5 566/6/5 565/6/5
f 570/6/5 566/6/5 569/6/5
f 575/4/5 572/4/5 571/4/5
f 576/4/5 572/4/5 575/4/5
f 577/1/5 573/1/5 572/1/5
f 577/4/5 572/4/5 576/4/5
f 578/4/5 574/4/5 573/4/5
f 578/1/5 573/1/5 577/1/5
f 579/4/5 574/4/5 578/4/5
f 581/4/5 577/4/5 576/4/5
f 581/4/5 578/4/5 577/4/5
f 582/4/5 578/4/5 581/4/5
f 584/4/5 581/4/5 580/4/5
f 584/4/5 583/4/5 582/4/5
f 584/4/5 582/4/5 581/4/5
f 585/4/5 583/4/5 584/4/5
f 592/10/5 587/10/5 586/10/5
f 593/6/5 588/6/5 587/6/5
f 593/10/5 587/10/5 592/10/5
f 594/6/5 588/6/5 593/6/5
f 595/6/5 590/6/5 589/6/5
f 596/8/5 591/8/5 590/8/5
f 596/6/5 590/6/5 595/6/5
f 597/8/5 591/8/5 596/8/5
f 602/1/5 599/1/5 598/1/5
f 603/1/5 599/1/5 602/1/5
f 604/1/5 601/1/5 600/1/5
f 605/1/5 601/1/5 604/1/5
f 610/5/5 607/5/5 606/5/5
f 611/5/5 609/5/5 608/5/5
f 612/5/5 610/5/5 606/5/5
f 612/5/5 611/5/5 610/5/5
f 613/5/5 611/5/5 612/5/5
f 614/5/5 609/5/5 611/5/5
f 614/5/5 611/5/5 613/5/5
f 615/5/5 609/5/5 614/5/5
f 616/5/5 614/5/5 613/5/5
f 617/5/5 614/5/5 616/5/5
f 623/5/5 619/5/5 618/5/5
f 624/5/5 619/5/5 623/5/5
f 625/5/5 621/5/5 620/5/5
f 626/5/5 621/5/5 625/5/5
f 628/3/5 623/3/5 622/3/5
f 629/3/5 623/3/5 628/3/5
f 630/3/5 627/3/5 626/3/5
f 631/3/5 627/3/5 630/3/5
f 636/5/5 633/5/5 632/5/5
f 637/5/5 635/5/5 634/5/5
f 638/5/5 636/5/5 632/5/5
f 639/5/5 636/5/5 638/5/5
f 642/5/5 635/5/5 637/5/5
f 643/5/5 635/5/5 642/5/5
f 644/5/5 641/5/5 640/5/5
f 645/5/5 641/5/5 644/5/5
f 652/5/5 647/5/5 646/5/5
f 653/5/5 647/5/5 652/5/5
f 654/5/5 649/5/5 648/5/5
f 655/5/5 649/5/5 654/5/5
f 656/5/5 651/5/5 650/5/5
f 657/5/5 651/5/5 656/5/5
f 662/5/5 659/5/5 658/5/5
f 663/5/5 659/5/5 662/5/5
f 664/5/5 661/5/5 660/5/5
f 665/5/5 661/5/5 664/5/5
f 668/5/5 667/5/5 666/5/5
f 669/5/5 667/5/5 668/5/5
f 670/5/5 667/5/5 669/5/5
f 671/5/5 667/5/5 670/5/5
f 674/5/5 669/5/5 668/5/5
f 675/5/5 669/5/5 674/5/5
f 676/5/5 671/5/5 670/5/5
f 677/5/5 671/5/5 676/5/5
f 681/5/5 673/5/5 672/5/5
f 682/5/5 673/5/5 681/5/5
f 683/5/5 679/5/5 678/5/5
f 684/5/5 679/5/5 683/5/5
f 686/5/5 681/5/5 680/5/5
f 687/5/5 681/5/5 686/5/5
f 688/5/5 685/5/5 684/5/5
f 689/5/5 685/5/5 688/5/5
f 692/5/5 691/5/5 690/5/5
f 693/5/5 691/5/5 692/5/5
f 694/10/6 695/10/6 700/10/6
f 695/6/6 696/6/6 701/6/6
f 700/10/6 695/10/6 701/10/6
f 701/6/6 696/6/6 702/6/6
f 697/6/6 698/6/6 703/6/6
f 698/8/6 699/8/6 704/8/6
f 703/6/6 698/6/6 704/6/6
f 704/8/6 699/8/6 705/8/6
f 706/2/6 707/2/6 710/2/6
f 710/2/6 707/2/6 711/2/6
f 708/2/6 709/2/6 712/2/6
f 712/2/6 709/2/6 713/2/6
f 714/5/6 715/5/6 718/5/6
f 718/5/6 715/5/6 719/5/6
f 716/5/6 717/5/6 720/5/6
f 720/5/6 717/5/6 721/5/6
f 722/5/6 723/5/6 726/5/6
f 726/5/6 723/5/6 727/5/6
f 724/5/6 725/5/6 728/5/6
f 728/5/6 725/5/6 729/5/6
f 730/5/6 731/5/6 733/5/6
f 733/5/6 731/5/6 734/5/6
f 732/5/6 733/5/6 737/5/6
f 737/5/6 733/5/6 738/5/6
f 734/5/6 735/5/6 739/5/6
f 739/5/6 735/5/6 740/5/6
f 736/5/6 737/5/6 743/5/6
f 743/5/6 737/5/6 744/5/6
f 740/5/6 741/5/6 745/5/6
f 745/5/6 741/5/6 746/5/6
f 742/5/6 743/5/6 748/5/6
f 748/5/6 743/5/6 749/5/6
f 746/5/6 747/5/6 751/5/6
f 751/5/6 747/5/6 752/5/6
f 749/5/6 750/5/6 753/5/6
f 753/5/6 750/5/6 754/5/6
f 755/5/6 756/5/6 757/5/6
f 757/5/6 756/5/6 758/5/6
f 759/5/6 760/5/6 764/5/6
f 764/5/6 760/5/6 765/5/6
f 761/5/6 762/5/6 766/5/6
f 766/5/6 762/5/6 767/5/6
f 763/5/6 764/5/6 769/5/6
f 769/5/6 764/5/6 770/5/6
f 765/5/6 766/5/6 771/5/6
f 771/5/6 766/5/6 772/5/6
f 768/5/6 769/5/6 774/5/6
f 774/5/6 769/5/6 775/5/6
f 772/5/6 773/5/6 779/5/6
f 779/5/6 773/5/6 780/5/6
f 776/5/6 777/5/6 781/5/6
f 781/5/6 777/5/6 782/5/6
f 778/5/6 779/5/6 783/5/6
f 783/5/6 779/5/6 784/5/6
f 782/5/6 783/5/6 785/5/6
f 785/5/6 783/5/6 786/5/6
f 787/5/6 788/5/6 790/5/6
f 790/5/6 788/5/6 791/5/6
f 789/5/6 790/5/6 793/5/6
f 793/5/6 790/5/6 794/5/6
f 791/5/6 792/5/6 795/5/6
f 795/5/6 792/5/6 796/5/6
f 794/5/6 795/5/6 797/5/6
f 797/5/6 795/5/6 798/5/6
f 799/5/6 800/5/6 801/5/6
f 801/5/6 800/5/6 802/5/6
