# MagicaVoxel @ Ephtracy

# group
g vegan02

# material
mtllib vegan02.mtl
usemtl palette

# normals
vn -1 0 0
vn 1 0 0
vn 0 0 1
vn 0 0 -1
vn 0 -1 0
vn 0 1 0

# texcoords
vt 0.00976563 0.5
vt 0.0332031 0.5
vt 0.0917969 0.5
vt 0.115234 0.5
vt 0.208984 0.5
vt 0.634766 0.5
vt 0.986328 0.5
vt 0.994141 0.5

# verts
v -4 9 -0
v -4 9 -1
v -4 9 -2
v -4 9 -3
v -4 10 -0
v -4 10 -1
v -4 10 -2
v -4 11 1
v -4 11 -0
v -4 11 -2
v -4 11 -3
v -4 12 1
v -4 12 -0
v -4 12 -1
v -4 12 -2
v -4 13 -0
v -4 13 -1
v -3 3 -0
v -3 3 -1
v -3 4 -0
v -3 4 -1
v -3 5 -0
v -3 5 -1
v -3 7 2
v -3 7 1
v -3 7 -0
v -3 7 -1
v -3 8 2
v -3 8 1
v -3 8 -0
v -3 8 -3
v -3 9 1
v -3 9 -0
v -3 9 -1
v -3 9 -2
v -3 9 -3
v -3 10 -0
v -3 10 -1
v -3 10 -2
v -3 11 2
v -3 11 1
v -3 11 -0
v -3 11 -2
v -3 11 -3
v -3 12 2
v -3 12 1
v -3 12 -0
v -3 12 -1
v -3 12 -2
v -3 13 1
v -3 13 -0
v -3 13 -1
v -3 13 -2
v -3 13 -3
v -3 14 -0
v -3 14 -2
v -2 0 -0
v -2 0 -1
v -2 1 -0
v -2 1 -1
v -2 2 -0
v -2 2 -1
v -2 3 1
v -2 3 -0
v -2 3 -1
v -2 3 -2
v -2 4 -0
v -2 4 -1
v -2 4 -2
v -2 4 -3
v -2 5 1
v -2 5 -0
v -2 5 -1
v -2 5 -2
v -2 6 2
v -2 6 1
v -2 7 2
v -2 7 1
v -2 7 -0
v -2 7 -1
v -2 7 -2
v -2 8 2
v -2 8 1
v -2 8 -0
v -2 8 -2
v -2 8 -3
v -2 8 -4
v -2 9 2
v -2 9 1
v -2 9 -0
v -2 12 2
v -2 12 1
v -2 13 2
v -2 13 1
v -2 13 -0
v -2 13 -2
v -2 13 -3
v -2 13 -4
v -2 14 1
v -2 14 -0
v -2 14 -2
v -2 14 -3
v -2 15 -0
v -2 15 -2
v -1 3 -2
v -1 3 -3
v -1 4 -2
v -1 4 -3
v -1 5 -3
v -1 5 -4
v -1 8 -3
v -1 8 -4
v -1 9 2
v -1 9 1
v -1 10 1
v -1 11 2
v -1 11 1
v 1 0 -0
v 1 0 -1
v 1 1 -0
v 1 1 -1
v 1 2 -0
v 1 2 -1
v 1 3 -0
v 1 3 -1
v 2 10 2
v 2 10 1
v 2 11 2
v 2 11 1
v -2 7 2
v -2 7 1
v -2 8 2
v -2 8 1
v -1 0 -0
v -1 0 -1
v -1 1 -0
v -1 1 -1
v -1 2 -0
v -1 2 -1
v -1 3 -0
v -1 3 -1
v -1 8 2
v -1 8 1
v -1 9 2
v -1 9 1
v 0 9 2
v 0 9 1
v 0 10 2
v 0 10 1
v 1 3 -2
v 1 3 -3
v 1 4 -2
v 1 4 -3
v 1 5 -3
v 1 5 -4
v 1 8 -3
v 1 8 -4
v 1 10 2
v 1 10 1
v 1 11 2
v 1 11 1
v 2 0 -0
v 2 0 -1
v 2 1 -0
v 2 1 -1
v 2 2 -0
v 2 2 -1
v 2 3 1
v 2 3 -0
v 2 3 -1
v 2 3 -2
v 2 4 -0
v 2 4 -1
v 2 4 -2
v 2 4 -3
v 2 5 1
v 2 5 -0
v 2 5 -1
v 2 5 -2
v 2 6 2
v 2 6 1
v 2 7 2
v 2 7 1
v 2 7 -0
v 2 7 -1
v 2 7 -2
v 2 8 1
v 2 8 -0
v 2 8 -2
v 2 8 -3
v 2 8 -4
v 2 9 1
v 2 9 -0
v 2 12 2
v 2 12 1
v 2 13 2
v 2 13 1
v 2 13 -0
v 2 13 -2
v 2 13 -3
v 2 13 -4
v 2 14 1
v 2 14 -0
v 2 14 -2
v 2 14 -3
v 2 15 -0
v 2 15 -2
v 3 3 -0
v 3 3 -1
v 3 4 -0
v 3 4 -1
v 3 5 -0
v 3 5 -1
v 3 7 1
v 3 7 -0
v 3 7 -1
v 3 8 1
v 3 8 -0
v 3 8 -3
v 3 9 1
v 3 9 -0
v 3 9 -1
v 3 9 -2
v 3 9 -3
v 3 10 2
v 3 10 1
v 3 10 -0
v 3 10 -1
v 3 10 -2
v 3 11 1
v 3 11 -0
v 3 11 -2
v 3 11 -3
v 3 12 2
v 3 12 1
v 3 12 -0
v 3 12 -1
v 3 12 -2
v 3 13 1
v 3 13 -0
v 3 13 -1
v 3 13 -2
v 3 13 -3
v 3 14 -0
v 3 14 -2
v 4 9 -0
v 4 9 -1
v 4 9 -2
v 4 9 -3
v 4 10 -0
v 4 10 -1
v 4 10 -2
v 4 11 1
v 4 11 -0
v 4 11 -2
v 4 11 -3
v 4 12 1
v 4 12 -0
v 4 12 -1
v 4 12 -2
v 4 13 -0
v 4 13 -1
v -3 7 2
v -3 8 2
v -3 11 2
v -3 12 2
v -2 6 2
v -2 7 2
v -2 8 2
v -2 9 2
v -2 12 2
v -2 13 2
v -1 8 2
v -1 9 2
v -1 11 2
v 0 9 2
v 0 10 2
v 1 10 2
v 1 11 2
v 2 6 2
v 2 7 2
v 2 10 2
v 2 11 2
v 2 12 2
v 2 13 2
v 3 10 2
v 3 12 2
v -4 11 1
v -4 12 1
v -3 9 1
v -3 11 1
v -3 12 1
v -3 13 1
v -2 3 1
v -2 5 1
v -2 6 1
v -2 7 1
v -2 8 1
v -2 9 1
v -2 10 1
v -2 12 1
v -2 13 1
v -2 14 1
v -1 8 1
v -1 9 1
v -1 10 1
v -1 11 1
v 0 9 1
v 0 10 1
v 1 9 1
v 1 10 1
v 1 11 1
v 2 3 1
v 2 5 1
v 2 6 1
v 2 7 1
v 2 8 1
v 2 9 1
v 2 10 1
v 2 11 1
v 2 12 1
v 2 13 1
v 2 14 1
v 3 7 1
v 3 8 1
v 3 9 1
v 3 10 1
v 3 11 1
v 3 12 1
v 3 13 1
v 4 11 1
v 4 12 1
v -4 9 -0
v -4 10 -0
v -4 11 -0
v -4 12 -0
v -4 13 -0
v -3 3 -0
v -3 4 -0
v -3 5 -0
v -3 7 -0
v -3 8 -0
v -3 9 -0
v -3 10 -0
v -3 11 -0
v -3 12 -0
v -3 13 -0
v -3 14 -0
v -2 0 -0
v -2 1 -0
v -2 2 -0
v -2 3 -0
v -2 4 -0
v -2 5 -0
v -2 7 -0
v -2 8 -0
v -2 9 -0
v -2 13 -0
v -2 14 -0
v -2 15 -0
v -1 0 -0
v -1 1 -0
v -1 2 -0
v -1 3 -0
v 1 0 -0
v 1 1 -0
v 1 2 -0
v 1 3 -0
v 2 0 -0
v 2 1 -0
v 2 2 -0
v 2 3 -0
v 2 4 -0
v 2 5 -0
v 2 7 -0
v 2 8 -0
v 2 9 -0
v 2 13 -0
v 2 14 -0
v 2 15 -0
v 3 3 -0
v 3 4 -0
v 3 5 -0
v 3 7 -0
v 3 8 -0
v 3 9 -0
v 3 10 -0
v 3 11 -0
v 3 12 -0
v 3 13 -0
v 3 14 -0
v 4 9 -0
v 4 10 -0
v 4 11 -0
v 4 12 -0
v 4 13 -0
v -4 9 -2
v -4 10 -2
v -3 9 -2
v -3 10 -2
v 3 9 -2
v 3 10 -2
v 4 9 -2
v 4 10 -2
v -3 7 1
v -3 8 1
v -2 7 1
v -2 8 1
v 2 7 -0
v 2 8 -0
v 3 7 -0
v 3 8 -0
v -4 9 -1
v -4 10 -1
v -4 12 -1
v -4 13 -1
v -3 3 -1
v -3 4 -1
v -3 5 -1
v -3 7 -1
v -3 9 -1
v -3 10 -1
v -3 12 -1
v -3 13 -1
v -2 0 -1
v -2 1 -1
v -2 2 -1
v -2 3 -1
v -2 4 -1
v -2 5 -1
v -2 7 -1
v -1 0 -1
v -1 1 -1
v -1 2 -1
v -1 3 -1
v 1 0 -1
v 1 1 -1
v 1 2 -1
v 1 3 -1
v 2 0 -1
v 2 1 -1
v 2 2 -1
v 2 3 -1
v 2 4 -1
v 2 5 -1
v 2 7 -1
v 3 3 -1
v 3 4 -1
v 3 5 -1
v 3 7 -1
v 3 9 -1
v 3 10 -1
v 3 12 -1
v 3 13 -1
v 4 9 -1
v 4 10 -1
v 4 12 -1
v 4 13 -1
v -4 11 -2
v -4 12 -2
v -3 11 -2
v -3 12 -2
v -3 13 -2
v -3 14 -2
v -2 3 -2
v -2 4 -2
v -2 13 -2
v -2 14 -2
v -2 15 -2
v -1 3 -2
v -1 4 -2
v 1 3 -2
v 1 4 -2
v 2 3 -2
v 2 4 -2
v 2 13 -2
v 2 14 -2
v 2 15 -2
v 3 11 -2
v 3 12 -2
v 3 13 -2
v 3 14 -2
v 4 11 -2
v 4 12 -2
v -4 9 -3
v -4 11 -3
v -3 8 -3
v -3 9 -3
v -3 11 -3
v -3 13 -3
v -2 4 -3
v -2 8 -3
v -2 13 -3
v -2 14 -3
v -1 3 -3
v -1 4 -3
v -1 5 -3
v -1 8 -3
v 1 3 -3
v 1 4 -3
v 1 5 -3
v 1 8 -3
v 2 4 -3
v 2 8 -3
v 2 13 -3
v 2 14 -3
v 3 8 -3
v 3 9 -3
v 3 11 -3
v 3 13 -3
v 4 9 -3
v 4 11 -3
v -2 8 -4
v -2 13 -4
v -1 5 -4
v -1 8 -4
v 1 5 -4
v 1 8 -4
v 2 8 -4
v 2 13 -4
v -2 0 -0
v -1 0 -0
v 1 0 -0
v 2 0 -0
v -2 0 -1
v -1 0 -1
v 1 0 -1
v 2 0 -1
v -2 3 1
v 2 3 1
v -3 3 -0
v -2 3 -0
v -1 3 -0
v 1 3 -0
v 2 3 -0
v 3 3 -0
v -3 3 -1
v -2 3 -1
v -1 3 -1
v 1 3 -1
v 2 3 -1
v 3 3 -1
v -2 3 -2
v -1 3 -2
v 1 3 -2
v 2 3 -2
v -1 3 -3
v 1 3 -3
v -2 4 -2
v -1 4 -2
v 1 4 -2
v 2 4 -2
v -2 4 -3
v -1 4 -3
v 1 4 -3
v 2 4 -3
v -1 5 -3
v 1 5 -3
v -1 5 -4
v 1 5 -4
v -2 6 2
v 2 6 2
v -2 6 1
v 2 6 1
v -3 7 2
v -2 7 2
v -3 7 1
v -2 7 1
v 2 7 1
v 3 7 1
v 2 7 -0
v 3 7 -0
v -2 8 2
v -1 8 2
v -2 8 1
v -1 8 1
v -3 8 -0
v -2 8 -0
v 2 8 -0
v 3 8 -0
v -2 8 -2
v 2 8 -2
v -3 8 -3
v -2 8 -3
v -1 8 -3
v 1 8 -3
v 2 8 -3
v 3 8 -3
v -2 8 -4
v -1 8 -4
v 1 8 -4
v 2 8 -4
v -1 9 2
v 0 9 2
v -3 9 1
v -2 9 1
v -1 9 1
v 0 9 1
v 2 9 1
v 3 9 1
v -4 9 -0
v -3 9 -0
v -2 9 -0
v 2 9 -0
v 3 9 -0
v 4 9 -0
v -4 9 -1
v -3 9 -1
v 3 9 -1
v 4 9 -1
v -4 9 -2
v -3 9 -2
v 3 9 -2
v 4 9 -2
v -4 9 -3
v -3 9 -3
v 3 9 -3
v 4 9 -3
v 0 10 2
v 1 10 2
v 2 10 2
v 3 10 2
v 0 10 1
v 1 10 1
v 2 10 1
v 3 10 1
v -4 10 -1
v -3 10 -1
v 3 10 -1
v 4 10 -1
v -4 10 -2
v -3 10 -2
v 3 10 -2
v 4 10 -2
v -3 11 2
v -1 11 2
v 1 11 2
v 2 11 2
v -4 11 1
v -3 11 1
v -1 11 1
v 1 11 1
v 2 11 1
v 3 11 1
v 4 11 1
v -4 11 -0
v -3 11 -0
v 3 11 -0
v 4 11 -0
v -2 7 2
v 2 7 2
v -2 7 1
v 2 7 1
v -3 7 -0
v -2 7 -0
v 2 7 -0
v 3 7 -0
v -3 7 -1
v -2 7 -1
v 2 7 -1
v 3 7 -1
v -3 8 2
v -2 8 2
v -3 8 1
v -2 8 1
v 2 8 1
v 3 8 1
v 2 8 -0
v 3 8 -0
v -2 9 2
v -1 9 2
v -2 9 1
v -1 9 1
v -4 11 -2
v -3 11 -2
v 3 11 -2
v 4 11 -2
v -4 11 -3
v -3 11 -3
v 3 11 -3
v 4 11 -3
v -3 12 2
v -2 12 2
v 2 12 2
v 3 12 2
v -4 12 1
v -3 12 1
v -2 12 1
v 2 12 1
v 3 12 1
v 4 12 1
v -4 12 -0
v -3 12 -0
v 3 12 -0
v 4 12 -0
v -4 12 -1
v -3 12 -1
v 3 12 -1
v 4 12 -1
v -4 12 -2
v -3 12 -2
v 3 12 -2
v 4 12 -2
v -2 13 2
v 2 13 2
v -3 13 1
v -2 13 1
v 2 13 1
v 3 13 1
v -4 13 -0
v -3 13 -0
v -2 13 -0
v 2 13 -0
v 3 13 -0
v 4 13 -0
v -4 13 -1
v -3 13 -1
v 3 13 -1
v 4 13 -1
v -3 13 -2
v -2 13 -2
v 2 13 -2
v 3 13 -2
v -3 13 -3
v -2 13 -3
v 2 13 -3
v 3 13 -3
v -2 13 -4
v 2 13 -4
v -2 14 1
v 2 14 1
v -3 14 -0
v -2 14 -0
v 2 14 -0
v 3 14 -0
v -3 14 -2
v -2 14 -2
v 2 14 -2
v 3 14 -2
v -2 14 -3
v 2 14 -3
v -2 15 -0
v 2 15 -0
v -2 15 -2
v 2 15 -2

# faces
f 5/1/1 2/1/1 1/1/1
f 6/1/1 2/1/1 5/1/1
f 7/4/1 4/4/1 3/4/1
f 9/4/1 6/4/1 5/4/1
f 9/4/1 7/4/1 6/4/1
f 10/4/1 4/4/1 7/4/1
f 10/4/1 7/4/1 9/4/1
f 11/4/1 4/4/1 10/4/1
f 12/4/1 9/4/1 8/4/1
f 12/4/1 10/4/1 9/4/1
f 13/4/1 10/4/1 12/4/1
f 14/4/1 10/4/1 13/4/1
f 15/4/1 10/4/1 14/4/1
f 16/4/1 14/4/1 13/4/1
f 17/4/1 14/4/1 16/4/1
f 20/1/1 19/1/1 18/1/1
f 21/1/1 19/1/1 20/1/1
f 22/5/1 21/5/1 20/5/1
f 23/5/1 21/5/1 22/5/1
f 26/7/1 23/7/1 22/7/1
f 27/7/1 23/7/1 26/7/1
f 28/4/1 25/4/1 24/4/1
f 29/4/1 25/4/1 28/4/1
f 33/4/1 31/4/1 30/4/1
f 34/4/1 31/4/1 33/4/1
f 35/4/1 31/4/1 34/4/1
f 36/4/1 31/4/1 35/4/1
f 37/4/1 33/4/1 32/4/1
f 38/4/1 35/4/1 34/4/1
f 39/4/1 35/4/1 38/4/1
f 41/4/1 37/4/1 32/4/1
f 42/4/1 37/4/1 41/4/1
f 45/4/1 41/4/1 40/4/1
f 46/4/1 41/4/1 45/4/1
f 49/4/1 44/4/1 43/4/1
f 50/4/1 47/4/1 46/4/1
f 51/4/1 47/4/1 50/4/1
f 52/4/1 49/4/1 48/4/1
f 53/4/1 44/4/1 49/4/1
f 53/4/1 49/4/1 52/4/1
f 54/4/1 44/4/1 53/4/1
f 55/4/1 52/4/1 51/4/1
f 55/4/1 53/4/1 52/4/1
f 56/4/1 53/4/1 55/4/1
f 59/7/1 58/7/1 57/7/1
f 60/7/1 58/7/1 59/7/1
f 61/3/1 60/3/1 59/3/1
f 62/3/1 60/3/1 61/3/1
f 64/5/1 62/5/1 61/5/1
f 65/5/1 62/5/1 64/5/1
f 67/5/1 64/5/1 63/5/1
f 68/5/1 66/5/1 65/5/1
f 69/5/1 66/5/1 68/5/1
f 71/5/1 67/5/1 63/5/1
f 72/5/1 67/5/1 71/5/1
f 73/5/1 69/5/1 68/5/1
f 74/4/1 70/4/1 69/4/1
f 74/5/1 69/5/1 73/5/1
f 76/3/1 72/3/1 71/3/1
f 77/3/1 76/3/1 75/3/1
f 78/3/1 72/3/1 76/3/1
f 78/3/1 76/3/1 77/3/1
f 79/3/1 72/3/1 78/3/1
f 80/3/1 74/3/1 73/3/1
f 81/4/1 70/4/1 74/4/1
f 81/3/1 74/3/1 80/3/1
f 83/5/1 80/5/1 79/5/1
f 83/5/1 81/5/1 80/5/1
f 83/5/1 79/5/1 78/5/1
f 84/5/1 81/5/1 83/5/1
f 85/4/1 70/4/1 81/4/1
f 85/5/1 81/5/1 84/5/1
f 86/4/1 70/4/1 85/4/1
f 88/4/1 83/4/1 82/4/1
f 89/1/1 84/1/1 83/1/1
f 89/4/1 83/4/1 88/4/1
f 90/1/1 84/1/1 89/1/1
f 93/4/1 92/4/1 91/4/1
f 94/4/1 92/4/1 93/4/1
f 97/4/1 87/4/1 86/4/1
f 98/4/1 87/4/1 97/4/1
f 99/4/1 95/4/1 94/4/1
f 100/4/1 95/4/1 99/4/1
f 101/4/1 97/4/1 96/4/1
f 102/4/1 97/4/1 101/4/1
f 103/4/1 101/4/1 100/4/1
f 104/4/1 101/4/1 103/4/1
f 107/4/1 106/4/1 105/4/1
f 108/4/1 106/4/1 107/4/1
f 111/4/1 110/4/1 109/4/1
f 112/4/1 110/4/1 111/4/1
f 115/4/1 114/4/1 113/4/1
f 116/4/1 115/4/1 113/4/1
f 117/4/1 115/4/1 116/4/1
f 120/7/1 119/7/1 118/7/1
f 121/7/1 119/7/1 120/7/1
f 122/3/1 121/3/1 120/3/1
f 123/3/1 121/3/1 122/3/1
f 124/5/1 123/5/1 122/5/1
f 125/5/1 123/5/1 124/5/1
f 128/4/1 127/4/1 126/4/1
f 129/4/1 127/4/1 128/4/1
f 130/4/2 131/4/2 132/4/2
f 132/4/2 131/4/2 133/4/2
f 134/7/2 135/7/2 136/7/2
f 136/7/2 135/7/2 137/7/2
f 136/3/2 137/3/2 138/3/2
f 138/3/2 137/3/2 139/3/2
f 138/5/2 139/5/2 140/5/2
f 140/5/2 139/5/2 141/5/2
f 142/4/2 143/4/2 144/4/2
f 144/4/2 143/4/2 145/4/2
f 146/4/2 147/4/2 148/4/2
f 148/4/2 147/4/2 149/4/2
f 150/4/2 151/4/2 152/4/2
f 152/4/2 151/4/2 153/4/2
f 154/4/2 155/4/2 156/4/2
f 156/4/2 155/4/2 157/4/2
f 158/4/2 159/4/2 160/4/2
f 160/4/2 159/4/2 161/4/2
f 162/7/2 163/7/2 164/7/2
f 164/7/2 163/7/2 165/7/2
f 164/3/2 165/3/2 166/3/2
f 166/3/2 165/3/2 167/3/2
f 166/5/2 167/5/2 169/5/2
f 169/5/2 167/5/2 170/5/2
f 168/5/2 169/5/2 172/5/2
f 170/5/2 171/5/2 173/5/2
f 173/5/2 171/5/2 174/5/2
f 168/5/2 172/5/2 176/5/2
f 176/5/2 172/5/2 177/5/2
f 173/5/2 174/5/2 178/5/2
f 174/4/2 175/4/2 179/4/2
f 178/5/2 174/5/2 179/5/2
f 176/3/2 177/3/2 181/3/2
f 180/3/2 181/3/2 182/3/2
f 181/3/2 177/3/2 183/3/2
f 182/3/2 181/3/2 183/3/2
f 183/3/2 177/3/2 184/3/2
f 178/3/2 179/3/2 185/3/2
f 179/4/2 175/4/2 186/4/2
f 185/3/2 179/3/2 186/3/2
f 184/5/2 185/5/2 188/5/2
f 185/5/2 186/5/2 188/5/2
f 186/4/2 175/4/2 189/4/2
f 188/5/2 186/5/2 189/5/2
f 189/4/2 175/4/2 190/4/2
f 187/1/2 188/1/2 192/1/2
f 192/1/2 188/1/2 193/1/2
f 194/4/2 195/4/2 196/4/2
f 196/4/2 195/4/2 197/4/2
f 190/4/2 191/4/2 200/4/2
f 200/4/2 191/4/2 201/4/2
f 197/4/2 198/4/2 202/4/2
f 202/4/2 198/4/2 203/4/2
f 199/4/2 200/4/2 204/4/2
f 204/4/2 200/4/2 205/4/2
f 203/4/2 204/4/2 206/4/2
f 206/4/2 204/4/2 207/4/2
f 208/1/2 209/1/2 210/1/2
f 210/1/2 209/1/2 211/1/2
f 210/5/2 211/5/2 212/5/2
f 212/5/2 211/5/2 213/5/2
f 212/7/2 213/7/2 215/7/2
f 215/7/2 213/7/2 216/7/2
f 214/4/2 215/4/2 217/4/2
f 217/4/2 215/4/2 218/4/2
f 218/4/2 219/4/2 221/4/2
f 221/4/2 219/4/2 222/4/2
f 222/4/2 219/4/2 223/4/2
f 223/4/2 219/4/2 224/4/2
f 220/4/2 221/4/2 226/4/2
f 226/4/2 221/4/2 227/4/2
f 222/4/2 223/4/2 228/4/2
f 228/4/2 223/4/2 229/4/2
f 226/4/2 227/4/2 230/4/2
f 225/4/2 226/4/2 230/4/2
f 230/4/2 227/4/2 231/4/2
f 225/4/2 230/4/2 234/4/2
f 234/4/2 230/4/2 235/4/2
f 232/4/2 233/4/2 238/4/2
f 235/4/2 236/4/2 239/4/2
f 239/4/2 236/4/2 240/4/2
f 237/4/2 238/4/2 241/4/2
f 238/4/2 233/4/2 242/4/2
f 241/4/2 238/4/2 242/4/2
f 242/4/2 233/4/2 243/4/2
f 240/4/2 241/4/2 244/4/2
f 241/4/2 242/4/2 244/4/2
f 244/4/2 242/4/2 245/4/2
f 246/1/2 247/1/2 250/1/2
f 250/1/2 247/1/2 251/1/2
f 248/4/2 249/4/2 252/4/2
f 250/4/2 251/4/2 254/4/2
f 251/4/2 252/4/2 254/4/2
f 252/4/2 249/4/2 255/4/2
f 254/4/2 252/4/2 255/4/2
f 255/4/2 249/4/2 256/4/2
f 253/4/2 254/4/2 257/4/2
f 254/4/2 255/4/2 257/4/2
f 257/4/2 255/4/2 258/4/2
f 258/4/2 255/4/2 259/4/2
f 259/4/2 255/4/2 260/4/2
f 258/4/2 259/4/2 261/4/2
f 261/4/2 259/4/2 262/4/2
f 268/4/3 264/4/3 263/4/3
f 269/4/3 264/4/3 268/4/3
f 271/4/3 266/4/3 265/4/3
f 273/4/3 270/4/3 269/4/3
f 274/4/3 270/4/3 273/4/3
f 275/4/3 272/4/3 271/4/3
f 275/4/3 271/4/3 265/4/3
f 276/4/3 275/4/3 274/4/3
f 277/4/3 275/4/3 276/4/3
f 278/4/3 275/4/3 277/4/3
f 279/4/3 272/4/3 275/4/3
f 279/4/3 275/4/3 278/4/3
f 280/3/3 268/3/3 267/3/3
f 281/3/3 268/3/3 280/3/3
f 283/4/3 272/4/3 279/4/3
f 284/4/3 272/4/3 283/4/3
f 285/4/3 272/4/3 284/4/3
f 286/4/3 283/4/3 282/4/3
f 286/4/3 284/4/3 283/4/3
f 287/4/3 284/4/3 286/4/3
f 291/4/3 289/4/3 288/4/3
f 292/4/3 289/4/3 291/4/3
f 299/4/3 291/4/3 290/4/3
f 300/4/3 291/4/3 299/4/3
f 301/4/3 293/4/3 292/4/3
f 302/4/3 293/4/3 301/4/3
f 304/5/3 298/5/3 297/5/3
f 305/8/3 300/8/3 299/8/3
f 306/4/3 291/4/3 300/4/3
f 306/8/3 300/8/3 305/8/3
f 307/4/3 291/4/3 306/4/3
f 308/1/3 305/1/3 304/1/3
f 310/1/3 308/1/3 304/1/3
f 310/1/3 309/1/3 308/1/3
f 311/1/3 309/1/3 310/1/3
f 313/5/3 295/5/3 294/5/3
f 314/3/3 296/3/3 295/3/3
f 314/5/3 295/5/3 313/5/3
f 315/3/3 296/3/3 314/3/3
f 316/5/3 304/5/3 297/5/3
f 317/1/3 310/1/3 304/1/3
f 317/5/3 304/5/3 316/5/3
f 318/8/3 311/8/3 310/8/3
f 318/1/3 310/1/3 317/1/3
f 319/4/3 312/4/3 311/4/3
f 319/8/3 311/8/3 318/8/3
f 320/4/3 312/4/3 319/4/3
f 322/4/3 303/4/3 302/4/3
f 323/4/3 303/4/3 322/4/3
f 324/4/3 317/4/3 316/4/3
f 325/4/3 317/4/3 324/4/3
f 326/4/3 319/4/3 318/4/3
f 327/4/3 319/4/3 326/4/3
f 329/4/3 322/4/3 321/4/3
f 330/4/3 322/4/3 329/4/3
f 331/4/3 329/4/3 328/4/3
f 332/4/3 329/4/3 331/4/3
f 343/1/3 334/1/3 333/1/3
f 344/4/3 335/4/3 334/4/3
f 344/1/3 334/1/3 343/1/3
f 345/4/3 335/4/3 344/4/3
f 346/4/3 337/4/3 336/4/3
f 347/4/3 337/4/3 346/4/3
f 352/1/3 339/1/3 338/1/3
f 353/5/3 340/5/3 339/5/3
f 353/1/3 339/1/3 352/1/3
f 354/7/3 341/7/3 340/7/3
f 354/5/3 340/5/3 353/5/3
f 355/7/3 341/7/3 354/7/3
f 356/4/3 343/4/3 342/4/3
f 357/4/3 343/4/3 356/4/3
f 358/4/3 348/4/3 347/4/3
f 359/4/3 348/4/3 358/4/3
f 361/7/3 350/7/3 349/7/3
f 362/3/3 351/3/3 350/3/3
f 362/7/3 350/7/3 361/7/3
f 363/5/3 352/5/3 351/5/3
f 363/3/3 351/3/3 362/3/3
f 364/5/3 352/5/3 363/5/3
f 369/7/3 366/7/3 365/7/3
f 370/3/3 367/3/3 366/3/3
f 370/7/3 366/7/3 369/7/3
f 371/5/3 368/5/3 367/5/3
f 371/3/3 367/3/3 370/3/3
f 372/5/3 368/5/3 371/5/3
f 379/4/3 360/4/3 359/4/3
f 380/4/3 360/4/3 379/4/3
f 381/1/3 373/1/3 372/1/3
f 382/5/3 374/5/3 373/5/3
f 382/1/3 373/1/3 381/1/3
f 383/7/3 375/7/3 374/7/3
f 383/5/3 374/5/3 382/5/3
f 384/7/3 375/7/3 383/7/3
f 385/4/3 377/4/3 376/4/3
f 386/4/3 377/4/3 385/4/3
f 390/4/3 379/4/3 378/4/3
f 391/4/3 379/4/3 390/4/3
f 392/1/3 387/1/3 386/1/3
f 393/4/3 388/4/3 387/4/3
f 393/1/3 387/1/3 392/1/3
f 394/4/3 388/4/3 393/4/3
f 395/4/3 390/4/3 389/4/3
f 396/4/3 390/4/3 395/4/3
f 399/4/3 398/4/3 397/4/3
f 400/4/3 398/4/3 399/4/3
f 403/4/3 402/4/3 401/4/3
f 404/4/3 402/4/3 403/4/3
f 405/4/4 406/4/4 407/4/4
f 407/4/4 406/4/4 408/4/4
f 409/4/4 410/4/4 411/4/4
f 411/4/4 410/4/4 412/4/4
f 413/1/4 414/1/4 421/1/4
f 421/1/4 414/1/4 422/1/4
f 415/4/4 416/4/4 423/4/4
f 423/4/4 416/4/4 424/4/4
f 417/1/4 418/1/4 428/1/4
f 418/5/4 419/5/4 429/5/4
f 428/1/4 418/1/4 429/1/4
f 419/7/4 420/7/4 430/7/4
f 429/5/4 419/5/4 430/5/4
f 430/7/4 420/7/4 431/7/4
f 425/7/4 426/7/4 432/7/4
f 426/3/4 427/3/4 433/3/4
f 432/7/4 426/7/4 433/7/4
f 427/5/4 428/5/4 434/5/4
f 433/3/4 427/3/4 434/3/4
f 434/5/4 428/5/4 435/5/4
f 436/7/4 437/7/4 440/7/4
f 437/3/4 438/3/4 441/3/4
f 440/7/4 437/7/4 441/7/4
f 438/5/4 439/5/4 442/5/4
f 441/3/4 438/3/4 442/3/4
f 442/5/4 439/5/4 443/5/4
f 443/1/4 444/1/4 447/1/4
f 444/5/4 445/5/4 448/5/4
f 447/1/4 444/1/4 448/1/4
f 445/7/4 446/7/4 449/7/4
f 448/5/4 445/5/4 449/5/4
f 449/7/4 446/7/4 450/7/4
f 451/1/4 452/1/4 455/1/4
f 455/1/4 452/1/4 456/1/4
f 453/4/4 454/4/4 457/4/4
f 457/4/4 454/4/4 458/4/4
f 459/4/4 460/4/4 461/4/4
f 461/4/4 460/4/4 462/4/4
f 463/4/4 464/4/4 467/4/4
f 467/4/4 464/4/4 468/4/4
f 465/5/4 466/5/4 470/5/4
f 470/5/4 466/5/4 471/5/4
f 472/5/4 473/5/4 474/5/4
f 474/5/4 473/5/4 475/5/4
f 468/4/4 469/4/4 477/4/4
f 477/4/4 469/4/4 478/4/4
f 476/4/4 477/4/4 481/4/4
f 481/4/4 477/4/4 482/4/4
f 479/4/4 480/4/4 483/4/4
f 483/4/4 480/4/4 484/4/4
f 485/4/4 486/4/4 488/4/4
f 488/4/4 486/4/4 489/4/4
f 487/4/4 488/4/4 492/4/4
f 489/4/4 490/4/4 492/4/4
f 488/4/4 489/4/4 492/4/4
f 492/4/4 490/4/4 493/4/4
f 491/4/4 492/4/4 496/4/4
f 496/4/4 492/4/4 497/4/4
f 497/4/4 492/4/4 498/4/4
f 495/4/4 496/4/4 499/4/4
f 496/4/4 497/4/4 499/4/4
f 499/4/4 497/4/4 500/4/4
f 500/4/4 497/4/4 501/4/4
f 501/4/4 502/4/4 503/4/4
f 500/4/4 501/4/4 503/4/4
f 503/4/4 502/4/4 504/4/4
f 493/4/4 494/4/4 505/4/4
f 505/4/4 494/4/4 506/4/4
f 504/4/4 505/4/4 507/4/4
f 507/4/4 505/4/4 508/4/4
f 508/4/4 505/4/4 509/4/4
f 509/4/4 505/4/4 510/4/4
f 508/4/4 509/4/4 511/4/4
f 511/4/4 509/4/4 512/4/4
f 513/4/4 514/4/4 516/4/4
f 515/4/4 516/4/4 517/4/4
f 516/4/4 514/4/4 518/4/4
f 517/4/4 516/4/4 518/4/4
f 518/4/4 514/4/4 519/4/4
f 519/4/4 514/4/4 520/4/4
f 525/7/5 522/7/5 521/7/5
f 526/7/5 522/7/5 525/7/5
f 527/7/5 524/7/5 523/7/5
f 528/7/5 524/7/5 527/7/5
f 532/5/5 530/5/5 529/5/5
f 533/5/5 530/5/5 532/5/5
f 534/5/5 530/5/5 533/5/5
f 535/5/5 530/5/5 534/5/5
f 537/1/5 532/1/5 531/1/5
f 538/1/5 532/1/5 537/1/5
f 539/5/5 534/5/5 533/5/5
f 540/5/5 534/5/5 539/5/5
f 541/1/5 536/1/5 535/1/5
f 542/1/5 536/1/5 541/1/5
f 543/5/5 540/5/5 539/5/5
f 543/5/5 541/5/5 540/5/5
f 543/5/5 539/5/5 538/5/5
f 544/5/5 541/5/5 543/5/5
f 545/5/5 541/5/5 544/5/5
f 546/5/5 541/5/5 545/5/5
f 547/4/5 545/4/5 544/4/5
f 548/4/5 545/4/5 547/4/5
f 553/4/5 550/4/5 549/4/5
f 554/4/5 550/4/5 553/4/5
f 555/4/5 552/4/5 551/4/5
f 556/4/5 552/4/5 555/4/5
f 559/4/5 558/4/5 557/4/5
f 560/4/5 558/4/5 559/4/5
f 563/3/5 562/3/5 561/3/5
f 564/3/5 562/3/5 563/3/5
f 567/4/5 566/4/5 565/4/5
f 568/4/5 566/4/5 567/4/5
f 571/4/5 570/4/5 569/4/5
f 572/4/5 570/4/5 571/4/5
f 575/4/5 574/4/5 573/4/5
f 576/4/5 574/4/5 575/4/5
f 581/4/5 578/4/5 577/4/5
f 582/4/5 580/4/5 579/4/5
f 583/4/5 581/4/5 577/4/5
f 584/4/5 581/4/5 583/4/5
f 587/4/5 580/4/5 582/4/5
f 588/4/5 580/4/5 587/4/5
f 589/4/5 585/4/5 584/4/5
f 590/4/5 585/4/5 589/4/5
f 591/4/5 587/4/5 586/4/5
f 592/4/5 587/4/5 591/4/5
f 597/4/5 594/4/5 593/4/5
f 598/4/5 594/4/5 597/4/5
f 602/4/5 596/4/5 595/4/5
f 603/4/5 596/4/5 602/4/5
f 604/4/5 600/4/5 599/4/5
f 605/4/5 600/4/5 604/4/5
f 607/1/5 602/1/5 601/1/5
f 608/1/5 602/1/5 607/1/5
f 609/1/5 606/1/5 605/1/5
f 610/1/5 606/1/5 609/1/5
f 615/4/5 612/4/5 611/4/5
f 616/4/5 612/4/5 615/4/5
f 617/4/5 614/4/5 613/4/5
f 618/4/5 614/4/5 617/4/5
f 623/4/5 620/4/5 619/4/5
f 624/4/5 620/4/5 623/4/5
f 625/4/5 622/4/5 621/4/5
f 626/4/5 622/4/5 625/4/5
f 631/4/5 628/4/5 627/4/5
f 632/4/5 628/4/5 631/4/5
f 633/4/5 630/4/5 629/4/5
f 634/4/5 630/4/5 633/4/5
f 640/4/5 636/4/5 635/4/5
f 641/4/5 636/4/5 640/4/5
f 642/4/5 638/4/5 637/4/5
f 643/4/5 638/4/5 642/4/5
f 646/4/5 640/4/5 639/4/5
f 647/4/5 640/4/5 646/4/5
f 648/4/5 645/4/5 644/4/5
f 649/4/5 645/4/5 648/4/5
f 650/3/6 651/3/6 652/3/6
f 652/3/6 651/3/6 653/3/6
f 654/7/6 655/7/6 658/7/6
f 658/7/6 655/7/6 659/7/6
f 656/7/6 657/7/6 660/7/6
f 660/7/6 657/7/6 661/7/6
f 662/4/6 663/4/6 664/4/6
f 664/4/6 663/4/6 665/4/6
f 666/4/6 667/4/6 668/4/6
f 668/4/6 667/4/6 669/4/6
f 670/4/6 671/4/6 672/4/6
f 672/4/6 671/4/6 673/4/6
f 674/4/6 675/4/6 678/4/6
f 678/4/6 675/4/6 679/4/6
f 676/4/6 677/4/6 680/4/6
f 680/4/6 677/4/6 681/4/6
f 682/4/6 683/4/6 687/4/6
f 687/4/6 683/4/6 688/4/6
f 684/4/6 685/4/6 689/4/6
f 689/4/6 685/4/6 690/4/6
f 686/4/6 687/4/6 692/4/6
f 692/4/6 687/4/6 693/4/6
f 690/4/6 691/4/6 694/4/6
f 694/4/6 691/4/6 695/4/6
f 696/4/6 697/4/6 700/4/6
f 700/4/6 697/4/6 701/4/6
f 698/4/6 699/4/6 702/4/6
f 702/4/6 699/4/6 703/4/6
f 704/4/6 705/4/6 707/4/6
f 707/4/6 705/4/6 708/4/6
f 706/4/6 707/4/6 711/4/6
f 711/4/6 707/4/6 712/4/6
f 708/4/6 709/4/6 713/4/6
f 713/4/6 709/4/6 714/4/6
f 710/4/6 711/4/6 716/4/6
f 716/4/6 711/4/6 717/4/6
f 714/4/6 715/4/6 718/4/6
f 718/4/6 715/4/6 719/4/6
f 720/4/6 721/4/6 724/4/6
f 724/4/6 721/4/6 725/4/6
f 722/4/6 723/4/6 726/4/6
f 726/4/6 723/4/6 727/4/6
f 725/4/6 726/4/6 728/4/6
f 728/4/6 726/4/6 729/4/6
f 730/4/6 731/4/6 733/4/6
f 733/4/6 731/4/6 734/4/6
f 732/4/6 733/4/6 736/4/6
f 736/4/6 733/4/6 737/4/6
f 734/4/6 735/4/6 738/4/6
f 738/4/6 735/4/6 739/4/6
f 737/4/6 738/4/6 740/4/6
f 740/4/6 738/4/6 741/4/6
f 742/4/6 743/4/6 744/4/6
f 744/4/6 743/4/6 745/4/6
