# MagicaVoxel @ Ephtracy

# group
g vegan03

# material
mtllib vegan03.mtl
usemtl palette

# normals
vn -1 0 0
vn 1 0 0
vn 0 0 1
vn 0 0 -1
vn 0 -1 0
vn 0 1 0

# texcoords
vt 0.0605469 0.5
vt 0.0917969 0.5
vt 0.208984 0.5
vt 0.396484 0.5
vt 0.634766 0.5
vt 0.646484 0.5
vt 0.650391 0.5
vt 0.666016 0.5
vt 0.673828 0.5
vt 0.677734 0.5
vt 0.802734 0.5
vt 0.982422 0.5
vt 0.994141 0.5

# verts
v -4 9 -0
v -4 9 -1
v -4 10 1
v -4 10 -0
v -4 10 -1
v -4 11 1
v -4 11 -0
v -3 3 -0
v -3 3 -1
v -3 4 -0
v -3 4 -1
v -3 5 2
v -3 5 1
v -3 5 -0
v -3 5 -1
v -3 6 2
v -3 6 1
v -3 6 -2
v -3 6 -3
v -3 7 2
v -3 7 1
v -3 7 -0
v -3 7 -1
v -3 7 -2
v -3 7 -3
v -3 8 2
v -3 8 1
v -3 8 -0
v -3 8 -3
v -3 9 -0
v -3 9 -1
v -3 9 -2
v -3 10 2
v -3 10 1
v -3 10 -0
v -3 10 -1
v -3 10 -2
v -3 11 2
v -3 11 1
v -3 11 -0
v -3 12 2
v -3 12 1
v -3 12 -2
v -3 12 -3
v -3 13 1
v -3 13 -0
v -3 13 -2
v -3 13 -3
v -3 14 -0
v -3 14 -2
v -2 0 -0
v -2 0 -1
v -2 1 -0
v -2 1 -1
v -2 2 -0
v -2 2 -1
v -2 3 1
v -2 3 -0
v -2 3 -1
v -2 3 -2
v -2 4 1
v -2 4 -0
v -2 4 -1
v -2 4 -2
v -2 5 1
v -2 5 -0
v -2 5 -1
v -2 6 2
v -2 6 1
v -2 6 -2
v -2 7 2
v -2 7 1
v -2 7 -0
v -2 7 -1
v -2 7 -2
v -2 7 -3
v -2 8 -0
v -2 8 -2
v -2 8 -3
v -2 10 -3
v -2 10 -4
v -2 12 2
v -2 12 1
v -2 12 -3
v -2 12 -4
v -2 13 2
v -2 13 1
v -2 13 -0
v -2 13 -2
v -2 13 -3
v -2 14 1
v -2 14 -0
v -2 14 -2
v -2 14 -3
v -2 15 -0
v -2 15 -2
v -1 5 2
v -1 5 1
v -1 6 2
v -1 6 1
v -1 9 -3
v -1 9 -4
v -1 10 -3
v -1 10 -4
v -1 12 -3
v -1 12 -4
v -1 13 -3
v -1 13 -4
v 0 7 -2
v 0 7 -3
v 0 8 -2
v 0 8 -3
v 0 11 3
v 0 11 2
v 0 12 3
v 0 12 2
v 1 0 -0
v 1 0 -1
v 1 1 -0
v 1 1 -1
v 1 2 -0
v 1 2 -1
v 1 3 -0
v 1 3 -1
v 1 5 3
v 1 5 2
v 1 6 3
v 1 6 2
v 1 6 -2
v 1 6 -3
v 1 7 -2
v 1 7 -3
v 2 8 2
v 2 8 1
v 2 9 1
v 2 10 2
v 2 10 1
v -2 5 2
v -2 5 1
v -2 6 2
v -2 6 1
v -2 6 -2
v -2 6 -3
v -2 7 -2
v -2 7 -3
v -2 8 2
v -2 8 1
v -2 9 1
v -2 10 2
v -2 10 1
v -1 0 -0
v -1 0 -1
v -1 1 -0
v -1 1 -1
v -1 2 -0
v -1 2 -1
v -1 3 -0
v -1 3 -1
v -1 7 -2
v -1 7 -3
v -1 8 -2
v -1 8 -3
v 1 5 2
v 1 5 1
v 1 6 2
v 1 6 1
v 1 7 -2
v 1 7 -3
v 1 8 -2
v 1 8 -3
v 1 9 -3
v 1 9 -4
v 1 10 -3
v 1 10 -4
v 1 11 3
v 1 11 2
v 1 12 3
v 1 12 2
v 1 12 -3
v 1 12 -4
v 1 13 -3
v 1 13 -4
v 2 0 -0
v 2 0 -1
v 2 1 -0
v 2 1 -1
v 2 2 -0
v 2 2 -1
v 2 3 1
v 2 3 -0
v 2 3 -1
v 2 3 -2
v 2 4 1
v 2 4 -0
v 2 4 -1
v 2 4 -2
v 2 5 3
v 2 5 2
v 2 5 -0
v 2 5 -1
v 2 6 3
v 2 6 2
v 2 6 1
v 2 6 -2
v 2 6 -3
v 2 7 2
v 2 7 1
v 2 7 -0
v 2 7 -1
v 2 7 -2
v 2 7 -3
v 2 8 -0
v 2 8 -1
v 2 8 -2
v 2 8 -3
v 2 9 -2
v 2 9 -3
v 2 10 -3
v 2 10 -4
v 2 11 -3
v 2 12 2
v 2 12 1
v 2 12 -3
v 2 12 -4
v 2 13 2
v 2 13 1
v 2 13 -0
v 2 13 -2
v 2 13 -3
v 2 14 1
v 2 14 -0
v 2 14 -1
v 2 14 -2
v 2 14 -3
v 2 15 -0
v 2 15 -2
v 3 3 -0
v 3 3 -1
v 3 4 -0
v 3 4 -1
v 3 5 -0
v 3 5 -1
v 3 7 2
v 3 7 -0
v 3 7 -1
v 3 8 -0
v 3 8 -1
v 3 8 -2
v 3 9 -0
v 3 9 -1
v 3 9 -2
v 3 9 -3
v 3 10 2
v 3 10 1
v 3 10 -0
v 3 10 -1
v 3 10 -2
v 3 10 -3
v 3 11 2
v 3 11 1
v 3 11 -1
v 3 11 -2
v 3 11 -3
v 3 12 2
v 3 12 1
v 3 13 1
v 3 13 -0
v 3 13 -1
v 3 13 -2
v 3 13 -3
v 3 14 -0
v 3 14 -1
v 3 14 -2
v 4 9 -0
v 4 9 -1
v 4 10 2
v 4 10 1
v 4 10 -0
v 4 10 -1
v 4 10 -2
v 4 11 2
v 4 11 1
v 4 11 -1
v 4 11 -2
v 0 11 3
v 0 12 3
v 1 5 3
v 1 6 3
v 1 11 3
v 1 12 3
v 2 5 3
v 2 6 3
v -3 5 2
v -3 6 2
v -3 7 2
v -3 8 2
v -3 10 2
v -3 11 2
v -3 12 2
v -2 5 2
v -2 6 2
v -2 7 2
v -2 8 2
v -2 10 2
v -2 11 2
v -2 12 2
v -2 13 2
v -1 5 2
v -1 6 2
v -1 7 2
v -1 12 2
v -1 13 2
v 0 11 2
v 0 12 2
v 1 5 2
v 1 6 2
v 1 8 2
v 1 11 2
v 1 12 2
v 2 6 2
v 2 7 2
v 2 8 2
v 2 10 2
v 2 11 2
v 2 12 2
v 2 13 2
v 3 7 2
v 3 10 2
v 3 11 2
v 3 12 2
v 4 10 2
v 4 11 2
v -4 10 1
v -4 11 1
v -3 10 1
v -3 11 1
v -3 12 1
v -3 13 1
v -2 3 1
v -2 4 1
v -2 5 1
v -2 6 1
v -2 8 1
v -2 9 1
v -2 10 1
v -2 12 1
v -2 13 1
v -2 14 1
v -1 5 1
v -1 6 1
v -1 9 1
v -1 10 1
v -1 13 1
v 1 5 1
v 1 6 1
v 1 8 1
v 1 9 1
v 1 10 1
v 2 3 1
v 2 4 1
v 2 6 1
v 2 8 1
v 2 9 1
v 2 10 1
v 2 12 1
v 2 13 1
v 2 14 1
v 3 12 1
v 3 13 1
v -4 9 -0
v -4 10 -0
v -3 3 -0
v -3 4 -0
v -3 5 -0
v -3 7 -0
v -3 9 -0
v -3 10 -0
v -3 13 -0
v -3 14 -0
v -2 0 -0
v -2 1 -0
v -2 2 -0
v -2 3 -0
v -2 4 -0
v -2 5 -0
v -2 7 -0
v -2 13 -0
v -2 14 -0
v -2 15 -0
v -1 0 -0
v -1 1 -0
v -1 2 -0
v -1 3 -0
v 1 0 -0
v 1 1 -0
v 1 2 -0
v 1 3 -0
v 2 0 -0
v 2 1 -0
v 2 2 -0
v 2 3 -0
v 2 4 -0
v 2 5 -0
v 2 7 -0
v 2 13 -0
v 2 14 -0
v 2 15 -0
v 3 3 -0
v 3 4 -0
v 3 5 -0
v 3 7 -0
v 3 9 -0
v 3 10 -0
v 3 13 -0
v 3 14 -0
v 4 9 -0
v 4 10 -0
v 3 10 -1
v 3 11 -1
v 4 10 -1
v 4 11 -1
v -3 6 -2
v -3 7 -2
v -2 6 -2
v -2 7 -2
v 1 5 2
v 1 6 2
v 2 5 2
v 2 6 2
v -3 5 1
v -3 6 1
v -2 5 1
v -2 6 1
v 3 10 1
v 3 11 1
v 4 10 1
v 4 11 1
v -4 10 -0
v -4 11 -0
v -3 7 -0
v -3 8 -0
v -3 10 -0
v -3 11 -0
v -2 7 -0
v -2 8 -0
v 2 7 -0
v 2 8 -0
v 3 7 -0
v 3 8 -0
v -4 9 -1
v -4 10 -1
v -3 3 -1
v -3 4 -1
v -3 5 -1
v -3 7 -1
v -3 9 -1
v -3 10 -1
v -2 0 -1
v -2 1 -1
v -2 2 -1
v -2 3 -1
v -2 4 -1
v -2 5 -1
v -2 7 -1
v -1 0 -1
v -1 1 -1
v -1 2 -1
v -1 3 -1
v 1 0 -1
v 1 1 -1
v 1 2 -1
v 1 3 -1
v 2 0 -1
v 2 1 -1
v 2 2 -1
v 2 3 -1
v 2 4 -1
v 2 5 -1
v 2 7 -1
v 3 3 -1
v 3 4 -1
v 3 5 -1
v 3 7 -1
v 3 9 -1
v 3 10 -1
v 4 9 -1
v 4 10 -1
v -3 13 -2
v -3 14 -2
v -2 3 -2
v -2 4 -2
v -2 6 -2
v -2 7 -2
v -2 13 -2
v -2 14 -2
v -2 15 -2
v -1 7 -2
v -1 8 -2
v -1 14 -2
v -1 15 -2
v 0 7 -2
v 0 8 -2
v 0 14 -2
v 0 15 -2
v 1 6 -2
v 1 7 -2
v 1 8 -2
v 2 3 -2
v 2 4 -2
v 2 6 -2
v 2 7 -2
v 2 8 -2
v 2 9 -2
v 2 13 -2
v 2 14 -2
v 2 15 -2
v 3 8 -2
v 3 9 -2
v 3 10 -2
v 3 11 -2
v 3 13 -2
v 3 14 -2
v 4 10 -2
v 4 11 -2
v -3 6 -3
v -3 7 -3
v -3 8 -3
v -3 12 -3
v -3 13 -3
v -2 6 -3
v -2 7 -3
v -2 8 -3
v -2 10 -3
v -2 12 -3
v -2 13 -3
v -2 14 -3
v -1 7 -3
v -1 8 -3
v -1 9 -3
v -1 10 -3
v -1 12 -3
v -1 13 -3
v 0 7 -3
v 0 8 -3
v 0 9 -3
v 0 13 -3
v 1 6 -3
v 1 7 -3
v 1 8 -3
v 1 9 -3
v 1 10 -3
v 1 12 -3
v 1 13 -3
v 2 6 -3
v 2 7 -3
v 2 8 -3
v 2 9 -3
v 2 10 -3
v 2 11 -3
v 2 12 -3
v 2 13 -3
v 2 14 -3
v 3 9 -3
v 3 10 -3
v 3 11 -3
v 3 13 -3
v -2 10 -4
v -2 12 -4
v -1 9 -4
v -1 10 -4
v -1 12 -4
v -1 13 -4
v 0 9 -4
v 0 10 -4
v 0 12 -4
v 0 13 -4
v 1 9 -4
v 1 10 -4
v 1 12 -4
v 1 13 -4
v 2 10 -4
v 2 12 -4
v -2 0 -0
v -1 0 -0
v 1 0 -0
v 2 0 -0
v -2 0 -1
v -1 0 -1
v 1 0 -1
v 2 0 -1
v -2 3 1
v 2 3 1
v -3 3 -0
v -2 3 -0
v -1 3 -0
v 1 3 -0
v 2 3 -0
v 3 3 -0
v -3 3 -1
v -2 3 -1
v -1 3 -1
v 1 3 -1
v 2 3 -1
v 3 3 -1
v -2 3 -2
v 2 3 -2
v 1 5 3
v 2 5 3
v -3 5 2
v -2 5 2
v -1 5 2
v 1 5 2
v 2 5 2
v -3 5 1
v -2 5 1
v -1 5 1
v 1 5 1
v -2 6 2
v -1 6 2
v 1 6 2
v 2 6 2
v -2 6 1
v -1 6 1
v 1 6 1
v 2 6 1
v -3 6 -2
v -2 6 -2
v 1 6 -2
v 2 6 -2
v -3 6 -3
v -2 6 -3
v 1 6 -3
v 2 6 -3
v -3 7 2
v -2 7 2
v 2 7 2
v 3 7 2
v -3 7 1
v -2 7 1
v 2 7 1
v -3 7 -0
v -2 7 -0
v 2 7 -0
v 3 7 -0
v -2 7 -2
v -1 7 -2
v 0 7 -2
v 1 7 -2
v -2 7 -3
v -1 7 -3
v 0 7 -3
v 1 7 -3
v -3 8 -0
v -2 8 -0
v 2 8 -0
v 3 8 -0
v 2 8 -1
v 3 8 -1
v -2 8 -2
v -1 8 -2
v 0 8 -2
v 1 8 -2
v 2 8 -2
v 3 8 -2
v -3 8 -3
v -2 8 -3
v -1 8 -3
v 0 8 -3
v 1 8 -3
v 2 8 -3
v -4 9 -0
v -3 9 -0
v 3 9 -0
v 4 9 -0
v -4 9 -1
v -3 9 -1
v 3 9 -1
v 4 9 -1
v 2 9 -2
v 3 9 -2
v -1 9 -3
v 0 9 -3
v 1 9 -3
v 2 9 -3
v 3 9 -3
v -1 9 -4
v 0 9 -4
v 1 9 -4
v -2 10 2
v 2 10 2
v 3 10 2
v 4 10 2
v -4 10 1
v -3 10 1
v -2 10 1
v -1 10 1
v 1 10 1
v 2 10 1
v 3 10 1
v 4 10 1
v -4 10 -0
v -3 10 -0
v 3 10 -1
v 4 10 -1
v 3 10 -2
v 4 10 -2
v -2 10 -3
v -1 10 -3
v 1 10 -3
v 2 10 -3
v -2 10 -4
v -1 10 -4
v 1 10 -4
v 2 10 -4
v 0 11 3
v 1 11 3
v 0 11 2
v 1 11 2
v 1 6 3
v 2 6 3
v -3 6 2
v -2 6 2
v 1 6 2
v 2 6 2
v -3 6 1
v -2 6 1
v -3 7 -0
v -2 7 -0
v 2 7 -0
v 3 7 -0
v -3 7 -1
v -2 7 -1
v 2 7 -1
v 3 7 -1
v -3 7 -2
v -2 7 -2
v 1 7 -2
v 2 7 -2
v -3 7 -3
v -2 7 -3
v 1 7 -3
v 2 7 -3
v -2 8 2
v 1 8 2
v 2 8 2
v -2 8 1
v 1 8 1
v 2 8 1
v -4 10 -0
v -3 10 -0
v 3 10 -0
v 4 10 -0
v -4 10 -1
v -3 10 -1
v 3 10 -1
v 4 10 -1
v 3 11 2
v 4 11 2
v -4 11 1
v -3 11 1
v 3 11 1
v 4 11 1
v -4 11 -0
v -3 11 -0
v 3 11 -1
v 4 11 -1
v 3 11 -2
v 4 11 -2
v 0 12 3
v 1 12 3
v -3 12 2
v -2 12 2
v 0 12 2
v 1 12 2
v 2 12 2
v 3 12 2
v -3 12 1
v -2 12 1
v 2 12 1
v 3 12 1
v -2 12 -3
v -1 12 -3
v 1 12 -3
v 2 12 -3
v -2 12 -4
v -1 12 -4
v 1 12 -4
v 2 12 -4
v -2 13 2
v -1 13 2
v 2 13 2
v -3 13 1
v -2 13 1
v -1 13 1
v 2 13 1
v 3 13 1
v -3 13 -0
v -2 13 -0
v 2 13 -0
v 3 13 -0
v -3 13 -2
v -2 13 -2
v 2 13 -2
v 3 13 -2
v -3 13 -3
v -2 13 -3
v -1 13 -3
v 0 13 -3
v 1 13 -3
v 2 13 -3
v 3 13 -3
v -1 13 -4
v 0 13 -4
v 1 13 -4
v -2 14 1
v 2 14 1
v -3 14 -0
v -2 14 -0
v 2 14 -0
v 3 14 -0
v 2 14 -1
v 3 14 -1
v -3 14 -2
v -2 14 -2
v -1 14 -2
v 0 14 -2
v 2 14 -2
v 3 14 -2
v -2 14 -3
v 2 14 -3
v -2 15 -0
v 2 15 -0
v -1 15 -1
v 0 15 -1
v -2 15 -2
v -1 15 -2
v 0 15 -2
v 2 15 -2

# faces
f 4/1/1 2/1/1 1/1/1
f 5/1/1 2/1/1 4/1/1
f 6/7/1 4/7/1 3/7/1
f 7/7/1 4/7/1 6/7/1
f 10/1/1 9/1/1 8/1/1
f 11/1/1 9/1/1 10/1/1
f 14/10/1 11/10/1 10/10/1
f 15/10/1 11/10/1 14/10/1
f 16/7/1 13/7/1 12/7/1
f 17/7/1 13/7/1 16/7/1
f 22/9/1 15/9/1 14/9/1
f 23/9/1 15/9/1 22/9/1
f 24/7/1 19/7/1 18/7/1
f 25/7/1 19/7/1 24/7/1
f 26/6/1 21/6/1 20/6/1
f 27/7/1 22/7/1 21/7/1
f 27/6/1 21/6/1 26/6/1
f 28/7/1 22/7/1 27/7/1
f 30/7/1 27/7/1 26/7/1
f 30/7/1 29/7/1 28/7/1
f 30/7/1 28/7/1 27/7/1
f 31/7/1 29/7/1 30/7/1
f 32/7/1 29/7/1 31/7/1
f 33/7/1 30/7/1 26/7/1
f 34/7/1 30/7/1 33/7/1
f 35/7/1 30/7/1 34/7/1
f 36/6/1 32/6/1 31/6/1
f 37/7/1 29/7/1 32/7/1
f 37/6/1 32/6/1 36/6/1
f 38/6/1 34/6/1 33/6/1
f 39/6/1 34/6/1 38/6/1
f 40/7/1 36/7/1 35/7/1
f 40/7/1 37/7/1 36/7/1
f 41/7/1 39/7/1 38/7/1
f 41/7/1 40/7/1 39/7/1
f 42/7/1 40/7/1 41/7/1
f 43/7/1 37/7/1 40/7/1
f 43/7/1 40/7/1 42/7/1
f 43/7/1 29/7/1 37/7/1
f 44/7/1 29/7/1 43/7/1
f 45/7/1 43/7/1 42/7/1
f 46/7/1 43/7/1 45/7/1
f 47/6/1 44/6/1 43/6/1
f 47/7/1 43/7/1 46/7/1
f 48/6/1 44/6/1 47/6/1
f 49/7/1 47/7/1 46/7/1
f 50/7/1 47/7/1 49/7/1
f 53/4/1 52/4/1 51/4/1
f 54/4/1 52/4/1 53/4/1
f 55/9/1 54/9/1 53/9/1
f 56/9/1 54/9/1 55/9/1
f 58/10/1 56/10/1 55/10/1
f 59/10/1 56/10/1 58/10/1
f 61/10/1 58/10/1 57/10/1
f 62/10/1 58/10/1 61/10/1
f 63/10/1 60/10/1 59/10/1
f 64/10/1 60/10/1 63/10/1
f 65/8/1 62/8/1 61/8/1
f 66/8/1 62/8/1 65/8/1
f 67/8/1 64/8/1 63/8/1
f 69/8/1 66/8/1 65/8/1
f 70/8/1 64/8/1 67/8/1
f 71/6/1 69/6/1 68/6/1
f 72/8/1 66/8/1 69/8/1
f 72/6/1 69/6/1 71/6/1
f 73/8/1 66/8/1 72/8/1
f 74/8/1 70/8/1 67/8/1
f 75/8/1 70/8/1 74/8/1
f 77/8/1 75/8/1 74/8/1
f 77/8/1 74/8/1 73/8/1
f 78/7/1 76/7/1 75/7/1
f 78/8/1 75/8/1 77/8/1
f 79/7/1 76/7/1 78/7/1
f 84/7/1 81/7/1 80/7/1
f 85/7/1 81/7/1 84/7/1
f 86/6/1 83/6/1 82/6/1
f 87/6/1 83/6/1 86/6/1
f 91/7/1 88/7/1 87/7/1
f 92/7/1 88/7/1 91/7/1
f 93/7/1 90/7/1 89/7/1
f 94/7/1 90/7/1 93/7/1
f 95/7/1 93/7/1 92/7/1
f 96/7/1 93/7/1 95/7/1
f 99/7/1 98/7/1 97/7/1
f 100/7/1 98/7/1 99/7/1
f 103/6/1 102/6/1 101/6/1
f 104/6/1 102/6/1 103/6/1
f 107/6/1 106/6/1 105/6/1
f 108/6/1 106/6/1 107/6/1
f 111/7/1 110/7/1 109/7/1
f 112/7/1 110/7/1 111/7/1
f 115/7/1 114/7/1 113/7/1
f 116/7/1 114/7/1 115/7/1
f 119/4/1 118/4/1 117/4/1
f 120/4/1 118/4/1 119/4/1
f 121/9/1 120/9/1 119/9/1
f 122/9/1 120/9/1 121/9/1
f 123/10/1 122/10/1 121/10/1
f 124/10/1 122/10/1 123/10/1
f 127/7/1 126/7/1 125/7/1
f 128/7/1 126/7/1 127/7/1
f 131/6/1 130/6/1 129/6/1
f 132/6/1 130/6/1 131/6/1
f 135/7/1 134/7/1 133/7/1
f 136/7/1 135/7/1 133/7/1
f 137/7/1 135/7/1 136/7/1
f 138/7/2 139/7/2 140/7/2
f 140/7/2 139/7/2 141/7/2
f 142/7/2 143/7/2 144/7/2
f 144/7/2 143/7/2 145/7/2
f 146/7/2 147/7/2 148/7/2
f 146/7/2 148/7/2 149/7/2
f 149/7/2 148/7/2 150/7/2
f 151/4/2 152/4/2 153/4/2
f 153/4/2 152/4/2 154/4/2
f 153/9/2 154/9/2 155/9/2
f 155/9/2 154/9/2 156/9/2
f 155/10/2 156/10/2 157/10/2
f 157/10/2 156/10/2 158/10/2
f 159/7/2 160/7/2 161/7/2
f 161/7/2 160/7/2 162/7/2
f 163/7/2 164/7/2 165/7/2
f 165/7/2 164/7/2 166/7/2
f 167/7/2 168/7/2 169/7/2
f 169/7/2 168/7/2 170/7/2
f 171/7/2 172/7/2 173/7/2
f 173/7/2 172/7/2 174/7/2
f 175/7/2 176/7/2 177/7/2
f 177/7/2 176/7/2 178/7/2
f 179/7/2 180/7/2 181/7/2
f 181/7/2 180/7/2 182/7/2
f 183/4/2 184/4/2 185/4/2
f 185/4/2 184/4/2 186/4/2
f 185/9/2 186/9/2 187/9/2
f 187/9/2 186/9/2 188/9/2
f 187/10/2 188/10/2 190/10/2
f 190/10/2 188/10/2 191/10/2
f 189/10/2 190/10/2 193/10/2
f 193/10/2 190/10/2 194/10/2
f 191/10/2 192/10/2 195/10/2
f 195/10/2 192/10/2 196/10/2
f 193/8/2 194/8/2 199/8/2
f 195/8/2 196/8/2 200/8/2
f 197/7/2 198/7/2 201/7/2
f 201/7/2 198/7/2 202/7/2
f 193/8/2 199/8/2 203/8/2
f 200/8/2 196/8/2 204/8/2
f 202/6/2 203/6/2 206/6/2
f 203/8/2 199/8/2 207/8/2
f 206/6/2 203/6/2 207/6/2
f 207/8/2 199/8/2 208/8/2
f 200/8/2 204/8/2 209/8/2
f 204/6/2 205/6/2 210/6/2
f 209/8/2 204/8/2 210/8/2
f 210/6/2 205/6/2 211/6/2
f 208/8/2 209/8/2 212/8/2
f 209/8/2 210/8/2 212/8/2
f 212/8/2 210/8/2 213/8/2
f 213/8/2 210/8/2 214/8/2
f 214/7/2 215/7/2 216/7/2
f 216/7/2 215/7/2 217/7/2
f 218/7/2 219/7/2 220/7/2
f 220/7/2 219/7/2 223/7/2
f 223/7/2 219/7/2 224/7/2
f 221/7/2 222/7/2 225/7/2
f 225/7/2 222/7/2 226/7/2
f 226/7/2 227/7/2 230/7/2
f 230/7/2 227/7/2 231/7/2
f 228/7/2 229/7/2 233/7/2
f 233/7/2 229/7/2 234/7/2
f 231/7/2 232/7/2 235/7/2
f 232/7/2 233/7/2 235/7/2
f 235/7/2 233/7/2 236/7/2
f 237/1/2 238/1/2 239/1/2
f 239/1/2 238/1/2 240/1/2
f 239/10/2 240/10/2 241/10/2
f 241/10/2 240/10/2 242/10/2
f 241/9/2 242/9/2 244/9/2
f 244/9/2 242/9/2 245/9/2
f 243/7/2 244/7/2 246/7/2
f 246/7/2 247/7/2 249/7/2
f 243/7/2 246/7/2 249/7/2
f 247/6/2 248/6/2 250/6/2
f 249/7/2 247/7/2 250/7/2
f 250/6/2 248/6/2 251/6/2
f 243/7/2 249/7/2 253/7/2
f 253/7/2 249/7/2 254/7/2
f 254/7/2 249/7/2 255/7/2
f 251/7/2 252/7/2 256/7/2
f 250/7/2 251/7/2 256/7/2
f 256/7/2 252/7/2 257/7/2
f 257/7/2 252/7/2 258/7/2
f 254/7/2 255/7/2 260/7/2
f 255/7/2 256/7/2 260/7/2
f 260/7/2 256/7/2 261/7/2
f 257/6/2 258/6/2 262/6/2
f 262/6/2 258/6/2 263/6/2
f 259/6/2 260/6/2 264/6/2
f 260/7/2 261/7/2 265/7/2
f 264/6/2 260/6/2 265/6/2
f 261/7/2 262/7/2 265/7/2
f 262/7/2 263/7/2 265/7/2
f 265/7/2 263/7/2 266/7/2
f 266/7/2 263/7/2 267/7/2
f 267/7/2 263/7/2 268/7/2
f 268/7/2 263/7/2 269/7/2
f 269/7/2 263/7/2 270/7/2
f 267/7/2 268/7/2 271/7/2
f 268/6/2 269/6/2 272/6/2
f 271/7/2 268/7/2 272/7/2
f 272/6/2 269/6/2 273/6/2
f 274/1/2 275/1/2 278/1/2
f 278/1/2 275/1/2 279/1/2
f 276/7/2 277/7/2 281/7/2
f 281/7/2 277/7/2 282/7/2
f 279/7/2 280/7/2 283/7/2
f 283/7/2 280/7/2 284/7/2
f 289/7/3 286/7/3 285/7/3
f 290/7/3 286/7/3 289/7/3
f 291/7/3 288/7/3 287/7/3
f 292/7/3 288/7/3 291/7/3
f 300/7/3 294/7/3 293/7/3
f 301/7/3 294/7/3 300/7/3
f 302/6/3 296/6/3 295/6/3
f 303/7/3 297/7/3 296/7/3
f 303/6/3 296/6/3 302/6/3
f 304/6/3 298/6/3 297/6/3
f 304/7/3 297/7/3 303/7/3
f 305/7/3 299/7/3 298/7/3
f 305/6/3 298/6/3 304/6/3
f 306/7/3 299/7/3 305/7/3
f 309/6/3 302/6/3 301/6/3
f 310/7/3 303/7/3 302/7/3
f 310/6/3 302/6/3 309/6/3
f 311/6/3 307/6/3 306/6/3
f 311/7/3 306/7/3 305/7/3
f 311/7/3 305/7/3 304/7/3
f 312/6/3 307/6/3 311/6/3
f 313/7/3 311/7/3 304/7/3
f 313/7/3 312/7/3 311/7/3
f 314/7/3 312/7/3 313/7/3
f 315/7/3 310/7/3 309/7/3
f 315/7/3 309/7/3 308/7/3
f 316/7/3 310/7/3 315/7/3
f 317/7/3 303/7/3 310/7/3
f 317/7/3 310/7/3 316/7/3
f 318/7/3 313/7/3 304/7/3
f 319/7/3 312/7/3 314/7/3
f 320/6/3 317/6/3 316/6/3
f 321/6/3 317/6/3 320/6/3
f 322/6/3 317/6/3 321/6/3
f 323/7/3 319/7/3 318/7/3
f 323/7/3 318/7/3 304/7/3
f 324/7/3 319/7/3 323/7/3
f 325/7/3 312/7/3 319/7/3
f 325/7/3 319/7/3 324/7/3
f 326/7/3 312/7/3 325/7/3
f 327/7/3 322/7/3 321/7/3
f 327/7/3 324/7/3 323/7/3
f 327/7/3 323/7/3 322/7/3
f 328/7/3 324/7/3 327/7/3
f 329/6/3 325/6/3 324/6/3
f 329/7/3 324/7/3 328/7/3
f 330/6/3 325/6/3 329/6/3
f 331/7/3 329/7/3 328/7/3
f 332/7/3 329/7/3 331/7/3
f 335/7/3 334/7/3 333/7/3
f 336/7/3 334/7/3 335/7/3
f 346/7/3 338/7/3 337/7/3
f 347/7/3 338/7/3 346/7/3
f 349/8/3 341/8/3 340/8/3
f 349/8/3 342/8/3 341/8/3
f 350/8/3 342/8/3 349/8/3
f 351/12/3 345/12/3 344/12/3
f 351/1/3 344/1/3 343/1/3
f 352/12/3 345/12/3 351/12/3
f 353/7/3 348/7/3 347/7/3
f 354/8/3 349/8/3 340/8/3
f 356/1/3 352/1/3 351/1/3
f 356/1/3 351/1/3 343/1/3
f 357/1/3 352/1/3 356/1/3
f 358/1/3 352/1/3 357/1/3
f 359/10/3 340/10/3 339/10/3
f 360/8/3 355/8/3 354/8/3
f 360/10/3 340/10/3 359/10/3
f 360/8/3 354/8/3 340/8/3
f 361/8/3 355/8/3 360/8/3
f 362/1/3 357/1/3 356/1/3
f 363/13/3 358/13/3 357/13/3
f 363/1/3 357/1/3 362/1/3
f 364/13/3 358/13/3 363/13/3
f 366/7/3 348/7/3 353/7/3
f 367/7/3 348/7/3 366/7/3
f 368/7/3 366/7/3 365/7/3
f 369/7/3 366/7/3 368/7/3
f 376/1/3 371/1/3 370/1/3
f 377/1/3 371/1/3 376/1/3
f 383/1/3 373/1/3 372/1/3
f 384/10/3 374/10/3 373/10/3
f 384/1/3 373/1/3 383/1/3
f 385/9/3 375/9/3 374/9/3
f 385/10/3 374/10/3 384/10/3
f 386/9/3 375/9/3 385/9/3
f 387/7/3 379/7/3 378/7/3
f 388/7/3 379/7/3 387/7/3
f 390/4/3 381/4/3 380/4/3
f 391/9/3 382/9/3 381/9/3
f 391/4/3 381/4/3 390/4/3
f 392/10/3 383/10/3 382/10/3
f 392/9/3 382/9/3 391/9/3
f 393/10/3 383/10/3 392/10/3
f 398/4/3 395/4/3 394/4/3
f 399/9/3 396/9/3 395/9/3
f 399/4/3 395/4/3 398/4/3
f 400/10/3 397/10/3 396/10/3
f 400/9/3 396/9/3 399/9/3
f 401/10/3 397/10/3 400/10/3
f 406/7/3 389/7/3 388/7/3
f 407/7/3 389/7/3 406/7/3
f 408/1/3 402/1/3 401/1/3
f 409/10/3 403/10/3 402/10/3
f 409/1/3 402/1/3 408/1/3
f 410/9/3 404/9/3 403/9/3
f 410/10/3 403/10/3 409/10/3
f 411/9/3 404/9/3 410/9/3
f 414/7/3 406/7/3 405/7/3
f 415/7/3 406/7/3 414/7/3
f 416/1/3 413/1/3 412/1/3
f 417/1/3 413/1/3 416/1/3
f 420/7/3 419/7/3 418/7/3
f 421/7/3 419/7/3 420/7/3
f 424/7/3 423/7/3 422/7/3
f 425/7/3 423/7/3 424/7/3
f 426/7/4 427/7/4 428/7/4
f 428/7/4 427/7/4 429/7/4
f 430/7/4 431/7/4 432/7/4
f 432/7/4 431/7/4 433/7/4
f 434/7/4 435/7/4 436/7/4
f 436/7/4 435/7/4 437/7/4
f 438/7/4 439/7/4 442/7/4
f 442/7/4 439/7/4 443/7/4
f 440/7/4 441/7/4 444/7/4
f 444/7/4 441/7/4 445/7/4
f 446/7/4 447/7/4 448/7/4
f 448/7/4 447/7/4 449/7/4
f 450/1/4 451/1/4 456/1/4
f 456/1/4 451/1/4 457/1/4
f 452/1/4 453/1/4 461/1/4
f 453/10/4 454/10/4 462/10/4
f 461/1/4 453/1/4 462/1/4
f 454/9/4 455/9/4 463/9/4
f 462/10/4 454/10/4 463/10/4
f 463/9/4 455/9/4 464/9/4
f 458/4/4 459/4/4 465/4/4
f 459/9/4 460/9/4 466/9/4
f 465/4/4 459/4/4 466/4/4
f 460/10/4 461/10/4 467/10/4
f 466/9/4 460/9/4 467/9/4
f 467/10/4 461/10/4 468/10/4
f 469/4/4 470/4/4 473/4/4
f 470/9/4 471/9/4 474/9/4
f 473/4/4 470/4/4 474/4/4
f 471/10/4 472/10/4 475/10/4
f 474/9/4 471/9/4 475/9/4
f 475/10/4 472/10/4 476/10/4
f 476/1/4 477/1/4 480/1/4
f 477/10/4 478/10/4 481/10/4
f 480/1/4 477/1/4 481/1/4
f 478/9/4 479/9/4 482/9/4
f 481/10/4 478/10/4 482/10/4
f 482/9/4 479/9/4 483/9/4
f 484/1/4 485/1/4 486/1/4
f 486/1/4 485/1/4 487/1/4
f 488/7/4 489/7/4 494/7/4
f 494/7/4 489/7/4 495/7/4
f 492/8/4 493/8/4 497/8/4
f 491/8/4 492/8/4 497/8/4
f 495/7/4 496/7/4 499/7/4
f 499/7/4 496/7/4 500/7/4
f 497/11/4 498/11/4 501/11/4
f 491/8/4 497/8/4 501/8/4
f 501/11/4 498/11/4 502/11/4
f 499/6/4 500/6/4 503/6/4
f 503/6/4 500/6/4 504/6/4
f 491/8/4 501/8/4 505/8/4
f 505/8/4 501/8/4 506/8/4
f 490/10/4 491/10/4 508/10/4
f 491/8/4 505/8/4 509/8/4
f 508/10/4 491/10/4 509/10/4
f 509/8/4 505/8/4 510/8/4
f 506/8/4 507/8/4 511/8/4
f 511/8/4 507/8/4 512/8/4
f 503/7/4 504/7/4 515/7/4
f 515/7/4 504/7/4 516/7/4
f 512/6/4 513/6/4 517/6/4
f 517/6/4 513/6/4 518/6/4
f 514/6/4 515/6/4 521/6/4
f 521/6/4 515/6/4 522/6/4
f 519/7/4 520/7/4 523/7/4
f 523/7/4 520/7/4 524/7/4
f 525/7/4 526/7/4 530/7/4
f 530/7/4 526/7/4 531/7/4
f 527/7/4 528/7/4 532/7/4
f 532/7/4 528/7/4 533/7/4
f 528/6/4 529/6/4 534/6/4
f 533/7/4 528/7/4 534/7/4
f 534/6/4 529/6/4 535/6/4
f 532/7/4 533/7/4 537/7/4
f 531/7/4 532/7/4 537/7/4
f 537/7/4 533/7/4 538/7/4
f 538/7/4 533/7/4 539/7/4
f 539/7/4 533/7/4 540/7/4
f 535/7/4 536/7/4 541/7/4
f 534/7/4 535/7/4 541/7/4
f 541/7/4 536/7/4 542/7/4
f 538/7/4 539/7/4 544/7/4
f 544/7/4 539/7/4 545/7/4
f 542/7/4 536/7/4 546/7/4
f 544/7/4 545/7/4 548/7/4
f 543/7/4 544/7/4 548/7/4
f 548/7/4 545/7/4 549/7/4
f 549/7/4 545/7/4 550/7/4
f 546/7/4 536/7/4 553/7/4
f 547/6/4 548/6/4 554/6/4
f 554/6/4 548/6/4 555/6/4
f 550/7/4 551/7/4 556/7/4
f 549/7/4 550/7/4 556/7/4
f 556/7/4 551/7/4 557/7/4
f 557/7/4 551/7/4 558/7/4
f 552/7/4 553/7/4 560/7/4
f 553/7/4 536/7/4 561/7/4
f 560/7/4 553/7/4 561/7/4
f 561/7/4 536/7/4 562/7/4
f 557/7/4 558/7/4 563/7/4
f 558/6/4 559/6/4 564/6/4
f 563/7/4 558/7/4 564/7/4
f 559/7/4 560/7/4 565/7/4
f 564/6/4 559/6/4 565/6/4
f 560/7/4 561/7/4 565/7/4
f 565/7/4 561/7/4 566/7/4
f 567/7/4 568/7/4 570/7/4
f 570/7/4 568/7/4 571/7/4
f 569/6/4 570/6/4 573/6/4
f 570/7/4 571/7/4 574/7/4
f 573/6/4 570/6/4 574/6/4
f 571/6/4 572/6/4 575/6/4
f 574/7/4 571/7/4 575/7/4
f 575/6/4 572/6/4 576/6/4
f 573/7/4 574/7/4 577/7/4
f 574/7/4 575/7/4 577/7/4
f 575/7/4 576/7/4 577/7/4
f 577/7/4 576/7/4 578/7/4
f 578/7/4 576/7/4 579/7/4
f 579/7/4 576/7/4 580/7/4
f 578/7/4 579/7/4 581/7/4
f 581/7/4 579/7/4 582/7/4
f 587/4/5 584/4/5 583/4/5
f 588/4/5 584/4/5 587/4/5
f 589/4/5 586/4/5 585/4/5
f 590/4/5 586/4/5 589/4/5
f 594/10/5 592/10/5 591/10/5
f 595/10/5 592/10/5 594/10/5
f 596/10/5 592/10/5 595/10/5
f 597/10/5 592/10/5 596/10/5
f 599/1/5 594/1/5 593/1/5
f 600/1/5 594/1/5 599/1/5
f 601/10/5 596/10/5 595/10/5
f 602/10/5 596/10/5 601/10/5
f 603/1/5 598/1/5 597/1/5
f 604/1/5 598/1/5 603/1/5
f 605/10/5 602/10/5 601/10/5
f 605/10/5 603/10/5 602/10/5
f 605/10/5 601/10/5 600/10/5
f 606/10/5 603/10/5 605/10/5
f 612/7/5 608/7/5 607/7/5
f 613/7/5 608/7/5 612/7/5
f 614/7/5 610/7/5 609/7/5
f 615/7/5 610/7/5 614/7/5
f 616/7/5 612/7/5 611/7/5
f 617/7/5 612/7/5 616/7/5
f 622/6/5 619/6/5 618/6/5
f 623/6/5 619/6/5 622/6/5
f 624/6/5 621/6/5 620/6/5
f 625/6/5 621/6/5 624/6/5
f 630/7/5 627/7/5 626/7/5
f 631/7/5 627/7/5 630/7/5
f 632/6/5 629/6/5 628/6/5
f 633/6/5 629/6/5 632/6/5
f 638/6/5 635/6/5 634/6/5
f 639/6/5 635/6/5 638/6/5
f 640/7/5 637/7/5 636/7/5
f 641/7/5 639/7/5 638/7/5
f 642/7/5 639/7/5 641/7/5
f 643/7/5 637/7/5 640/7/5
f 644/7/5 637/7/5 643/7/5
f 649/7/5 646/7/5 645/7/5
f 650/7/5 646/7/5 649/7/5
f 651/7/5 648/7/5 647/7/5
f 652/7/5 648/7/5 651/7/5
f 657/7/5 656/7/5 655/7/5
f 658/7/5 656/7/5 657/7/5
f 659/7/5 654/7/5 653/7/5
f 663/6/5 658/6/5 657/6/5
f 664/6/5 658/6/5 663/6/5
f 665/7/5 659/7/5 653/7/5
f 666/7/5 659/7/5 665/7/5
f 667/7/5 661/7/5 660/7/5
f 668/7/5 661/7/5 667/7/5
f 669/7/5 663/7/5 662/7/5
f 670/7/5 663/7/5 669/7/5
f 675/1/5 672/1/5 671/1/5
f 676/1/5 672/1/5 675/1/5
f 677/1/5 674/1/5 673/1/5
f 678/1/5 674/1/5 677/1/5
f 684/7/5 680/7/5 679/7/5
f 685/7/5 680/7/5 684/7/5
f 686/6/5 682/6/5 681/6/5
f 687/7/5 683/7/5 682/7/5
f 687/6/5 682/6/5 686/6/5
f 688/7/5 683/7/5 687/7/5
f 695/7/5 690/7/5 689/7/5
f 696/7/5 690/7/5 695/7/5
f 697/7/5 690/7/5 696/7/5
f 698/7/5 690/7/5 697/7/5
f 699/7/5 692/7/5 691/7/5
f 700/7/5 692/7/5 699/7/5
f 701/7/5 694/7/5 693/7/5
f 702/7/5 694/7/5 701/7/5
f 705/7/5 704/7/5 703/7/5
f 706/7/5 704/7/5 705/7/5
f 711/7/5 708/7/5 707/7/5
f 712/7/5 708/7/5 711/7/5
f 713/7/5 710/7/5 709/7/5
f 714/7/5 710/7/5 713/7/5
f 717/7/5 716/7/5 715/7/5
f 718/7/5 716/7/5 717/7/5
f 719/7/6 720/7/6 723/7/6
f 723/7/6 720/7/6 724/7/6
f 721/7/6 722/7/6 725/7/6
f 725/7/6 722/7/6 726/7/6
f 727/9/6 728/9/6 731/9/6
f 731/9/6 728/9/6 732/9/6
f 729/9/6 730/9/6 733/9/6
f 733/9/6 730/9/6 734/9/6
f 735/7/6 736/7/6 739/7/6
f 739/7/6 736/7/6 740/7/6
f 737/6/6 738/6/6 741/6/6
f 741/6/6 738/6/6 742/6/6
f 743/7/6 744/7/6 746/7/6
f 744/6/6 745/6/6 747/6/6
f 746/7/6 744/7/6 747/7/6
f 747/6/6 745/6/6 748/6/6
f 749/1/6 750/1/6 753/1/6
f 753/1/6 750/1/6 754/1/6
f 751/1/6 752/1/6 755/1/6
f 755/1/6 752/1/6 756/1/6
f 757/7/6 758/7/6 761/7/6
f 761/7/6 758/7/6 762/7/6
f 759/7/6 760/7/6 763/7/6
f 763/7/6 760/7/6 764/7/6
f 765/7/6 766/7/6 767/7/6
f 767/7/6 766/7/6 768/7/6
f 769/7/6 770/7/6 773/7/6
f 773/7/6 770/7/6 774/7/6
f 771/7/6 772/7/6 777/7/6
f 777/7/6 772/7/6 778/7/6
f 775/6/6 776/6/6 779/6/6
f 779/6/6 776/6/6 780/6/6
f 781/7/6 782/7/6 785/7/6
f 785/7/6 782/7/6 786/7/6
f 783/7/6 784/7/6 787/7/6
f 787/7/6 784/7/6 788/7/6
f 789/6/6 790/6/6 793/6/6
f 790/7/6 791/7/6 794/7/6
f 793/6/6 790/6/6 794/6/6
f 794/7/6 791/7/6 795/7/6
f 792/7/6 793/7/6 797/7/6
f 797/7/6 793/7/6 798/7/6
f 795/7/6 796/7/6 799/7/6
f 799/7/6 796/7/6 800/7/6
f 801/6/6 802/6/6 805/6/6
f 805/6/6 802/6/6 806/6/6
f 803/7/6 804/7/6 810/7/6
f 810/7/6 804/7/6 811/7/6
f 807/6/6 808/6/6 812/6/6
f 808/7/6 809/7/6 813/7/6
f 812/6/6 808/6/6 813/6/6
f 813/7/6 809/7/6 814/7/6
f 815/7/6 816/7/6 818/7/6
f 818/7/6 816/7/6 819/7/6
f 819/7/6 820/7/6 821/7/6
f 821/7/6 820/7/6 822/7/6
f 817/7/6 818/7/6 823/7/6
f 823/7/6 818/7/6 824/7/6
f 821/6/6 822/6/6 827/6/6
f 827/6/6 822/6/6 828/6/6
f 825/7/6 826/7/6 829/7/6
f 826/7/6 827/7/6 829/7/6
f 824/7/6 825/7/6 829/7/6
f 829/7/6 827/7/6 830/7/6
f 831/7/6 832/7/6 833/7/6
f 833/7/6 832/7/6 834/7/6
f 831/7/6 833/7/6 835/7/6
f 833/6/6 834/6/6 836/6/6
f 835/7/6 833/7/6 836/7/6
f 834/7/6 832/7/6 837/7/6
f 836/6/6 834/6/6 837/6/6
f 837/7/6 832/7/6 838/7/6
