# MagicaVoxel @ Ephtracy

# group
g vegan01_happy

# material
mtllib vegan01_happy.mtl
usemtl palette

# normals
vn -1 0 0
vn 1 0 0
vn 0 0 1
vn 0 0 -1
vn 0 -1 0
vn 0 1 0

# texcoords
vt 0.00195313 0.5
vt 0.0332031 0.5
vt 0.0605469 0.5
vt 0.166016 0.5
vt 0.634766 0.5
vt 0.638672 0.5
vt 0.962891 0.5
vt 0.974609 0.5
vt 0.978516 0.5
vt 0.982422 0.5
vt 0.994141 0.5

# verts
v -5 8 -0
v -5 8 -1
v -5 9 -0
v -5 9 -1
v -5 10 -0
v -5 10 -1
v -5 11 -0
v -5 11 -1
v -5 12 -0
v -5 12 -1
v -4 7 -0
v -4 7 -1
v -4 8 -0
v -4 8 -1
v -4 9 -2
v -4 9 -4
v -4 10 -0
v -4 10 -1
v -4 10 -2
v -4 10 -3
v -4 10 -4
v -4 11 1
v -4 11 -0
v -4 11 -1
v -4 11 -2
v -4 11 -3
v -4 12 1
v -4 12 -0
v -4 12 -1
v -4 12 -2
v -4 13 -0
v -4 13 -1
v -3 6 -0
v -3 6 -1
v -3 7 -0
v -3 7 -1
v -3 8 -0
v -3 8 -1
v -3 8 -3
v -3 9 1
v -3 9 -0
v -3 9 -1
v -3 9 -2
v -3 9 -3
v -3 10 2
v -3 10 1
v -3 10 -0
v -3 10 -1
v -3 10 -2
v -3 11 1
v -3 11 -0
v -3 11 -2
v -3 11 -3
v -3 12 2
v -3 12 1
v -3 12 -0
v -3 12 -1
v -3 12 -2
v -3 13 1
v -3 13 -0
v -3 13 -1
v -3 13 -2
v -3 13 -3
v -3 14 -0
v -3 14 -2
v -2 0 -0
v -2 0 -1
v -2 1 -0
v -2 1 -1
v -2 3 1
v -2 3 -0
v -2 3 -1
v -2 3 -2
v -2 4 1
v -2 4 -0
v -2 4 -1
v -2 4 -2
v -2 5 1
v -2 5 -0
v -2 5 -1
v -2 5 -2
v -2 6 1
v -2 6 -0
v -2 6 -1
v -2 6 -2
v -2 7 1
v -2 7 -0
v -2 7 -1
v -2 8 1
v -2 8 -0
v -2 8 -2
v -2 8 -3
v -2 8 -4
v -2 9 1
v -2 9 -0
v -2 11 3
v -2 11 2
v -2 12 3
v -2 12 2
v -2 12 1
v -2 13 2
v -2 13 1
v -2 13 -0
v -2 13 -2
v -2 13 -3
v -2 13 -4
v -2 14 1
v -2 14 -0
v -2 14 -2
v -2 14 -3
v -2 15 -0
v -2 15 -2
v -1 9 -4
v -1 9 -5
v -1 12 -4
v -1 12 -5
v 0 10 2
v 0 10 1
v 0 11 2
v 0 11 1
v 1 0 -0
v 1 0 -1
v 1 1 -0
v 1 1 -1
v 1 2 -0
v 1 2 -1
v 1 3 -0
v 1 3 -1
v 2 10 2
v 2 10 1
v 2 11 2
v 2 11 1
v 3 7 -0
v 3 7 -1
v 3 8 -0
v 3 8 -1
v 3 9 -3
v 3 9 -4
v 3 10 -3
v 3 10 -4
v 3 12 2
v 3 12 1
v 3 13 2
v 3 13 1
v 4 8 -0
v 4 8 -1
v 4 9 -0
v 4 9 -1
v -4 8 -0
v -4 8 -1
v -4 9 -0
v -4 9 -1
v -3 7 -0
v -3 7 -1
v -3 8 -0
v -3 8 -1
v -3 9 -3
v -3 9 -4
v -3 10 -3
v -3 10 -4
v -2 10 2
v -2 10 1
v -2 11 2
v -2 11 1
v -1 0 -0
v -1 0 -1
v -1 1 -0
v -1 1 -1
v -1 3 -0
v -1 3 -1
v 1 9 -4
v 1 9 -5
v 1 10 2
v 1 10 1
v 1 11 2
v 1 11 1
v 1 12 -4
v 1 12 -5
v 2 0 -0
v 2 0 -1
v 2 1 -0
v 2 1 -1
v 2 2 -0
v 2 2 -1
v 2 3 1
v 2 3 -0
v 2 3 -1
v 2 3 -2
v 2 4 1
v 2 4 -0
v 2 4 -1
v 2 4 -2
v 2 5 1
v 2 5 -0
v 2 5 -1
v 2 5 -2
v 2 6 1
v 2 6 -0
v 2 6 -1
v 2 6 -2
v 2 7 -0
v 2 7 -1
v 2 8 1
v 2 8 -0
v 2 8 -2
v 2 8 -3
v 2 8 -4
v 2 9 1
v 2 9 -0
v 2 11 3
v 2 11 2
v 2 12 3
v 2 12 2
v 2 12 1
v 2 13 2
v 2 13 1
v 2 13 -0
v 2 13 -2
v 2 13 -3
v 2 13 -4
v 2 14 1
v 2 14 -0
v 2 14 -2
v 2 14 -3
v 2 15 -0
v 2 15 -2
v 3 6 -0
v 3 6 -1
v 3 7 -0
v 3 7 -1
v 3 8 -0
v 3 8 -1
v 3 8 -3
v 3 9 1
v 3 9 -0
v 3 9 -1
v 3 9 -2
v 3 9 -3
v 3 10 2
v 3 10 1
v 3 10 -0
v 3 10 -1
v 3 10 -2
v 3 11 1
v 3 11 -0
v 3 11 -2
v 3 11 -3
v 3 12 2
v 3 12 1
v 3 12 -0
v 3 13 1
v 3 13 -0
v 3 13 -2
v 3 13 -3
v 3 14 -0
v 3 14 -2
v 4 7 -0
v 4 7 -1
v 4 8 -0
v 4 8 -1
v 4 9 -2
v 4 9 -4
v 4 10 -0
v 4 10 -1
v 4 10 -2
v 4 10 -3
v 4 10 -4
v 4 11 1
v 4 11 -0
v 4 11 -1
v 4 11 -2
v 4 11 -3
v 4 12 2
v 4 12 1
v 4 12 -0
v 4 12 -1
v 4 13 2
v 4 13 1
v 4 13 -0
v 4 13 -2
v 5 8 -0
v 5 8 -1
v 5 9 -0
v 5 9 -1
v 5 10 -0
v 5 10 -1
v 5 11 -0
v 5 11 -1
v 5 12 -0
v 5 12 -1
v -2 11 3
v -2 12 3
v 2 11 3
v 2 12 3
v -3 10 2
v -3 12 2
v -2 10 2
v -2 11 2
v -2 12 2
v -2 13 2
v 0 10 2
v 0 11 2
v 1 10 2
v 1 11 2
v 2 10 2
v 2 11 2
v 2 12 2
v 2 13 2
v 3 10 2
v 3 12 2
v 3 13 2
v 4 12 2
v 4 13 2
v -4 11 1
v -4 12 1
v -3 9 1
v -3 10 1
v -3 11 1
v -3 12 1
v -3 13 1
v -2 3 1
v -2 4 1
v -2 5 1
v -2 6 1
v -2 7 1
v -2 8 1
v -2 9 1
v -2 10 1
v -2 11 1
v -2 12 1
v -2 13 1
v -2 14 1
v -1 9 1
v -1 10 1
v 0 3 1
v 0 4 1
v 0 5 1
v 0 6 1
v 0 7 1
v 0 8 1
v 0 9 1
v 0 10 1
v 0 11 1
v 1 3 1
v 1 4 1
v 1 5 1
v 1 6 1
v 1 9 1
v 1 10 1
v 1 11 1
v 2 3 1
v 2 4 1
v 2 5 1
v 2 6 1
v 2 8 1
v 2 9 1
v 2 10 1
v 2 11 1
v 2 12 1
v 2 13 1
v 2 14 1
v 3 9 1
v 3 10 1
v 3 11 1
v 3 12 1
v 3 13 1
v 4 11 1
v 4 12 1
v -5 8 -0
v -5 9 -0
v -5 10 -0
v -5 11 -0
v -5 12 -0
v -4 7 -0
v -4 8 -0
v -4 9 -0
v -4 10 -0
v -4 11 -0
v -4 12 -0
v -4 13 -0
v -3 6 -0
v -3 7 -0
v -3 8 -0
v -3 9 -0
v -3 10 -0
v -3 11 -0
v -3 12 -0
v -3 13 -0
v -3 14 -0
v -2 0 -0
v -2 1 -0
v -2 3 -0
v -2 6 -0
v -2 7 -0
v -2 8 -0
v -2 9 -0
v -2 13 -0
v -2 14 -0
v -2 15 -0
v -1 0 -0
v -1 1 -0
v -1 3 -0
v 1 0 -0
v 1 1 -0
v 1 2 -0
v 1 3 -0
v 2 0 -0
v 2 1 -0
v 2 2 -0
v 2 3 -0
v 2 6 -0
v 2 7 -0
v 2 8 -0
v 2 9 -0
v 2 13 -0
v 2 14 -0
v 2 15 -0
v 3 6 -0
v 3 7 -0
v 3 8 -0
v 3 9 -0
v 3 10 -0
v 3 11 -0
v 3 12 -0
v 3 13 -0
v 3 14 -0
v 4 7 -0
v 4 8 -0
v 4 9 -0
v 4 10 -0
v 4 11 -0
v 4 12 -0
v 4 13 -0
v 5 8 -0
v 5 9 -0
v 5 10 -0
v 5 11 -0
v 5 12 -0
v -4 9 -2
v -4 10 -2
v -3 9 -2
v -3 10 -2
v 3 9 -2
v 3 10 -2
v 4 9 -2
v 4 10 -2
v 3 12 1
v 3 13 1
v 4 12 1
v 4 13 1
v -5 8 -1
v -5 9 -1
v -5 10 -1
v -5 11 -1
v -5 12 -1
v -4 7 -1
v -4 8 -1
v -4 9 -1
v -4 10 -1
v -4 11 -1
v -4 12 -1
v -4 13 -1
v -3 6 -1
v -3 7 -1
v -3 8 -1
v -3 9 -1
v -3 10 -1
v -3 12 -1
v -3 13 -1
v -2 0 -1
v -2 1 -1
v -2 3 -1
v -2 6 -1
v -2 7 -1
v -1 0 -1
v -1 1 -1
v -1 3 -1
v 1 0 -1
v 1 1 -1
v 1 2 -1
v 1 3 -1
v 2 0 -1
v 2 1 -1
v 2 2 -1
v 2 3 -1
v 2 6 -1
v 2 7 -1
v 3 6 -1
v 3 7 -1
v 3 8 -1
v 3 9 -1
v 3 10 -1
v 4 7 -1
v 4 8 -1
v 4 9 -1
v 4 10 -1
v 4 11 -1
v 4 12 -1
v 5 8 -1
v 5 9 -1
v 5 10 -1
v 5 11 -1
v 5 12 -1
v -4 11 -2
v -4 12 -2
v -3 11 -2
v -3 12 -2
v -3 13 -2
v -3 14 -2
v -2 3 -2
v -2 4 -2
v -2 5 -2
v -2 6 -2
v -2 8 -2
v -2 13 -2
v -2 14 -2
v -2 15 -2
v 2 3 -2
v 2 4 -2
v 2 5 -2
v 2 6 -2
v 2 8 -2
v 2 13 -2
v 2 14 -2
v 2 15 -2
v 3 11 -2
v 3 13 -2
v 3 14 -2
v 4 11 -2
v 4 13 -2
v -4 10 -3
v -4 11 -3
v -3 8 -3
v -3 9 -3
v -3 10 -3
v -3 11 -3
v -3 13 -3
v -2 8 -3
v -2 13 -3
v -2 14 -3
v 2 8 -3
v 2 13 -3
v 2 14 -3
v 3 8 -3
v 3 9 -3
v 3 10 -3
v 3 11 -3
v 3 13 -3
v 4 10 -3
v 4 11 -3
v -4 9 -4
v -4 10 -4
v -3 9 -4
v -3 10 -4
v -2 8 -4
v -2 13 -4
v -1 9 -4
v -1 12 -4
v 1 9 -4
v 1 12 -4
v 2 8 -4
v 2 13 -4
v 3 9 -4
v 3 10 -4
v 4 9 -4
v 4 10 -4
v -1 9 -5
v -1 12 -5
v 1 9 -5
v 1 12 -5
v -2 0 -0
v -1 0 -0
v 1 0 -0
v 2 0 -0
v -2 0 -1
v -1 0 -1
v 1 0 -1
v 2 0 -1
v -2 3 1
v 0 3 1
v 1 3 1
v 2 3 1
v -2 3 -0
v -1 3 -0
v 0 3 -0
v 1 3 -0
v 2 3 -0
v -2 3 -1
v -1 3 -1
v 1 3 -1
v 2 3 -1
v -2 3 -2
v 2 3 -2
v -3 6 -0
v -2 6 -0
v 2 6 -0
v 3 6 -0
v -3 6 -1
v -2 6 -1
v 2 6 -1
v 3 6 -1
v -4 7 -0
v -3 7 -0
v 3 7 -0
v 4 7 -0
v -4 7 -1
v -3 7 -1
v 3 7 -1
v 4 7 -1
v -5 8 -0
v -4 8 -0
v -3 8 -0
v -2 8 -0
v 2 8 -0
v 3 8 -0
v 4 8 -0
v 5 8 -0
v -5 8 -1
v -4 8 -1
v -3 8 -1
v 3 8 -1
v 4 8 -1
v 5 8 -1
v -2 8 -2
v 2 8 -2
v -3 8 -3
v -2 8 -3
v 2 8 -3
v 3 8 -3
v -2 8 -4
v 2 8 -4
v -3 9 1
v -2 9 1
v 2 9 1
v 3 9 1
v -4 9 -0
v -3 9 -0
v -2 9 -0
v 2 9 -0
v 3 9 -0
v 4 9 -0
v -4 9 -1
v -3 9 -1
v 3 9 -1
v 4 9 -1
v -4 9 -2
v -3 9 -2
v 3 9 -2
v 4 9 -2
v -3 9 -3
v 3 9 -3
v -4 9 -4
v -3 9 -4
v -1 9 -4
v 1 9 -4
v 3 9 -4
v 4 9 -4
v -1 9 -5
v 1 9 -5
v -3 10 2
v -2 10 2
v 0 10 2
v 1 10 2
v 2 10 2
v 3 10 2
v -3 10 1
v -2 10 1
v 0 10 1
v 1 10 1
v 2 10 1
v 3 10 1
v -4 10 -1
v -3 10 -1
v 3 10 -1
v 4 10 -1
v -4 10 -2
v -3 10 -2
v 3 10 -2
v 4 10 -2
v -2 11 3
v 2 11 3
v -2 11 2
v 0 11 2
v 1 11 2
v 2 11 2
v -4 11 1
v -3 11 1
v -2 11 1
v 0 11 1
v 1 11 1
v 2 11 1
v 3 11 1
v 4 11 1
v -5 11 -0
v -4 11 -0
v -3 11 -0
v 3 11 -0
v 4 11 -0
v 5 11 -0
v -5 11 -1
v -4 11 -1
v 4 11 -1
v 5 11 -1
v 3 12 2
v 4 12 2
v 3 12 1
v 4 12 1
v -3 7 -0
v -2 7 -0
v 2 7 -0
v 3 7 -0
v -3 7 -1
v -2 7 -1
v 2 7 -1
v 3 7 -1
v -4 8 -0
v -3 8 -0
v 3 8 -0
v 4 8 -0
v -4 8 -1
v -3 8 -1
v 3 8 -1
v 4 8 -1
v -5 10 -0
v -4 10 -0
v 4 10 -0
v 5 10 -0
v -5 10 -1
v -4 10 -1
v 4 10 -1
v 5 10 -1
v -4 10 -3
v -3 10 -3
v 3 10 -3
v 4 10 -3
v -4 10 -4
v -3 10 -4
v 3 10 -4
v 4 10 -4
v -4 11 -2
v -3 11 -2
v 3 11 -2
v 4 11 -2
v -4 11 -3
v -3 11 -3
v 3 11 -3
v 4 11 -3
v -2 12 3
v 2 12 3
v -3 12 2
v -2 12 2
v 2 12 2
v 3 12 2
v -4 12 1
v -3 12 1
v -2 12 1
v 2 12 1
v 3 12 1
v 4 12 1
v -5 12 -0
v -4 12 -0
v -3 12 -0
v 3 12 -0
v 4 12 -0
v 5 12 -0
v -5 12 -1
v -4 12 -1
v -3 12 -1
v 4 12 -1
v 5 12 -1
v -4 12 -2
v -3 12 -2
v -1 12 -4
v 1 12 -4
v -1 12 -5
v 1 12 -5
v -2 13 2
v 2 13 2
v 3 13 2
v 4 13 2
v -3 13 1
v -2 13 1
v 2 13 1
v 3 13 1
v 4 13 1
v -4 13 -0
v -3 13 -0
v -2 13 -0
v 2 13 -0
v 3 13 -0
v 4 13 -0
v -4 13 -1
v -3 13 -1
v -3 13 -2
v -2 13 -2
v 2 13 -2
v 3 13 -2
v 4 13 -2
v -3 13 -3
v -2 13 -3
v 2 13 -3
v 3 13 -3
v -2 13 -4
v 2 13 -4
v -2 14 1
v 2 14 1
v -3 14 -0
v -2 14 -0
v 2 14 -0
v 3 14 -0
v -3 14 -2
v -2 14 -2
v 2 14 -2
v 3 14 -2
v -2 14 -3
v 2 14 -3
v -2 15 -0
v 2 15 -0
v -2 15 -2
v 2 15 -2

# faces
f 3/1/1 2/1/1 1/1/1
f 4/1/1 2/1/1 3/1/1
f 5/2/1 4/2/1 3/2/1
f 6/2/1 4/2/1 5/2/1
f 9/5/1 8/5/1 7/5/1
f 10/5/1 8/5/1 9/5/1
f 13/10/1 12/10/1 11/10/1
f 14/10/1 12/10/1 13/10/1
f 19/5/1 16/5/1 15/5/1
f 20/5/1 16/5/1 19/5/1
f 21/5/1 16/5/1 20/5/1
f 23/5/1 18/5/1 17/5/1
f 23/5/1 19/5/1 18/5/1
f 23/5/1 20/5/1 19/5/1
f 24/5/1 20/5/1 23/5/1
f 25/5/1 20/5/1 24/5/1
f 26/5/1 20/5/1 25/5/1
f 27/5/1 23/5/1 22/5/1
f 28/5/1 23/5/1 27/5/1
f 29/5/1 25/5/1 24/5/1
f 30/5/1 25/5/1 29/5/1
f 31/5/1 29/5/1 28/5/1
f 32/5/1 29/5/1 31/5/1
f 35/6/1 34/6/1 33/6/1
f 36/6/1 34/6/1 35/6/1
f 41/5/1 38/5/1 37/5/1
f 41/5/1 39/5/1 38/5/1
f 42/5/1 39/5/1 41/5/1
f 43/5/1 39/5/1 42/5/1
f 44/5/1 39/5/1 43/5/1
f 46/5/1 41/5/1 40/5/1
f 47/5/1 41/5/1 46/5/1
f 48/5/1 43/5/1 42/5/1
f 49/5/1 43/5/1 48/5/1
f 50/5/1 47/5/1 46/5/1
f 50/5/1 46/5/1 45/5/1
f 51/5/1 47/5/1 50/5/1
f 54/5/1 50/5/1 45/5/1
f 55/5/1 50/5/1 54/5/1
f 58/5/1 53/5/1 52/5/1
f 59/5/1 56/5/1 55/5/1
f 60/5/1 56/5/1 59/5/1
f 61/5/1 58/5/1 57/5/1
f 62/5/1 53/5/1 58/5/1
f 62/5/1 58/5/1 61/5/1
f 63/5/1 53/5/1 62/5/1
f 64/5/1 61/5/1 60/5/1
f 64/5/1 62/5/1 61/5/1
f 65/5/1 62/5/1 64/5/1
f 68/6/1 67/6/1 66/6/1
f 69/6/1 67/6/1 68/6/1
f 71/7/1 69/7/1 68/7/1
f 72/7/1 69/7/1 71/7/1
f 74/4/1 71/4/1 70/4/1
f 75/5/1 72/5/1 71/5/1
f 75/4/1 71/4/1 74/4/1
f 76/4/1 73/4/1 72/4/1
f 76/5/1 72/5/1 75/5/1
f 77/4/1 73/4/1 76/4/1
f 78/10/1 75/10/1 74/10/1
f 79/5/1 76/5/1 75/5/1
f 79/10/1 75/10/1 78/10/1
f 80/9/1 77/9/1 76/9/1
f 80/5/1 76/5/1 79/5/1
f 81/9/1 77/9/1 80/9/1
f 82/4/1 79/4/1 78/4/1
f 83/5/1 80/5/1 79/5/1
f 83/4/1 79/4/1 82/4/1
f 84/4/1 81/4/1 80/4/1
f 84/5/1 80/5/1 83/5/1
f 85/4/1 81/4/1 84/4/1
f 86/6/1 83/6/1 82/6/1
f 87/6/1 83/6/1 86/6/1
f 88/5/1 85/5/1 84/5/1
f 89/5/1 87/5/1 86/5/1
f 89/5/1 88/5/1 87/5/1
f 90/5/1 88/5/1 89/5/1
f 91/5/1 85/5/1 88/5/1
f 91/5/1 88/5/1 90/5/1
f 94/3/1 90/3/1 89/3/1
f 95/3/1 90/3/1 94/3/1
f 98/5/1 97/5/1 96/5/1
f 99/5/1 97/5/1 98/5/1
f 101/5/1 100/5/1 99/5/1
f 102/5/1 100/5/1 101/5/1
f 105/5/1 93/5/1 92/5/1
f 106/5/1 93/5/1 105/5/1
f 107/5/1 103/5/1 102/5/1
f 108/5/1 103/5/1 107/5/1
f 109/5/1 105/5/1 104/5/1
f 110/5/1 105/5/1 109/5/1
f 111/5/1 109/5/1 108/5/1
f 112/5/1 109/5/1 111/5/1
f 115/5/1 114/5/1 113/5/1
f 116/5/1 114/5/1 115/5/1
f 119/5/1 118/5/1 117/5/1
f 120/5/1 118/5/1 119/5/1
f 123/6/1 122/6/1 121/6/1
f 124/6/1 122/6/1 123/6/1
f 125/7/1 124/7/1 123/7/1
f 126/7/1 124/7/1 125/7/1
f 127/4/1 126/4/1 125/4/1
f 128/4/1 126/4/1 127/4/1
f 131/5/1 130/5/1 129/5/1
f 132/5/1 130/5/1 131/5/1
f 135/8/1 134/8/1 133/8/1
f 136/8/1 134/8/1 135/8/1
f 139/5/1 138/5/1 137/5/1
f 140/5/1 138/5/1 139/5/1
f 143/5/1 142/5/1 141/5/1
f 144/5/1 142/5/1 143/5/1
f 147/1/1 146/1/1 145/1/1
f 148/1/1 146/1/1 147/1/1
f 149/1/2 150/1/2 151/1/2
f 151/1/2 150/1/2 152/1/2
f 153/10/2 154/10/2 155/10/2
f 155/10/2 154/10/2 156/10/2
f 157/5/2 158/5/2 159/5/2
f 159/5/2 158/5/2 160/5/2
f 161/5/2 162/5/2 163/5/2
f 163/5/2 162/5/2 164/5/2
f 165/6/2 166/6/2 167/6/2
f 167/6/2 166/6/2 168/6/2
f 167/7/2 168/7/2 169/7/2
f 169/7/2 168/7/2 170/7/2
f 173/5/2 174/5/2 175/5/2
f 175/5/2 174/5/2 176/5/2
f 171/5/2 172/5/2 177/5/2
f 177/5/2 172/5/2 178/5/2
f 179/6/2 180/6/2 181/6/2
f 181/6/2 180/6/2 182/6/2
f 181/7/2 182/7/2 183/7/2
f 183/7/2 182/7/2 184/7/2
f 183/4/2 184/4/2 186/4/2
f 186/4/2 184/4/2 187/4/2
f 185/4/2 186/4/2 189/4/2
f 186/5/2 187/5/2 190/5/2
f 189/4/2 186/4/2 190/4/2
f 187/4/2 188/4/2 191/4/2
f 190/5/2 187/5/2 191/5/2
f 191/4/2 188/4/2 192/4/2
f 189/9/2 190/9/2 193/9/2
f 190/5/2 191/5/2 194/5/2
f 193/9/2 190/9/2 194/9/2
f 191/9/2 192/9/2 195/9/2
f 194/5/2 191/5/2 195/5/2
f 195/9/2 192/9/2 196/9/2
f 193/1/2 194/1/2 197/1/2
f 194/5/2 195/5/2 198/5/2
f 197/1/2 194/1/2 198/1/2
f 195/4/2 196/4/2 199/4/2
f 198/5/2 195/5/2 199/5/2
f 199/4/2 196/4/2 200/4/2
f 197/5/2 198/5/2 201/5/2
f 199/5/2 200/5/2 202/5/2
f 197/5/2 201/5/2 203/5/2
f 201/5/2 202/5/2 203/5/2
f 203/5/2 202/5/2 204/5/2
f 202/5/2 200/5/2 205/5/2
f 204/5/2 202/5/2 205/5/2
f 203/2/2 204/2/2 208/2/2
f 208/2/2 204/2/2 209/2/2
f 210/5/2 211/5/2 212/5/2
f 212/5/2 211/5/2 213/5/2
f 213/5/2 214/5/2 215/5/2
f 215/5/2 214/5/2 216/5/2
f 206/5/2 207/5/2 219/5/2
f 219/5/2 207/5/2 220/5/2
f 216/5/2 217/5/2 221/5/2
f 221/5/2 217/5/2 222/5/2
f 218/5/2 219/5/2 223/5/2
f 223/5/2 219/5/2 224/5/2
f 222/5/2 223/5/2 225/5/2
f 225/5/2 223/5/2 226/5/2
f 227/6/2 228/6/2 229/6/2
f 229/6/2 228/6/2 230/6/2
f 231/5/2 232/5/2 235/5/2
f 232/5/2 233/5/2 235/5/2
f 235/5/2 233/5/2 236/5/2
f 236/5/2 233/5/2 237/5/2
f 237/5/2 233/5/2 238/5/2
f 234/5/2 235/5/2 240/5/2
f 240/5/2 235/5/2 241/5/2
f 236/5/2 237/5/2 242/5/2
f 242/5/2 237/5/2 243/5/2
f 240/5/2 241/5/2 244/5/2
f 239/5/2 240/5/2 244/5/2
f 244/5/2 241/5/2 245/5/2
f 239/5/2 244/5/2 248/5/2
f 248/5/2 244/5/2 249/5/2
f 249/5/2 250/5/2 251/5/2
f 251/5/2 250/5/2 252/5/2
f 246/5/2 247/5/2 253/5/2
f 253/5/2 247/5/2 254/5/2
f 252/5/2 253/5/2 255/5/2
f 255/5/2 253/5/2 256/5/2
f 257/8/2 258/8/2 259/8/2
f 259/8/2 258/8/2 260/8/2
f 261/5/2 262/5/2 265/5/2
f 265/5/2 262/5/2 266/5/2
f 266/5/2 262/5/2 267/5/2
f 263/5/2 264/5/2 269/5/2
f 264/5/2 265/5/2 269/5/2
f 265/5/2 266/5/2 269/5/2
f 269/5/2 266/5/2 270/5/2
f 270/5/2 266/5/2 271/5/2
f 271/5/2 266/5/2 272/5/2
f 268/5/2 269/5/2 274/5/2
f 274/5/2 269/5/2 275/5/2
f 270/5/2 271/5/2 276/5/2
f 273/5/2 274/5/2 277/5/2
f 277/5/2 274/5/2 278/5/2
f 275/5/2 276/5/2 279/5/2
f 276/5/2 271/5/2 280/5/2
f 279/5/2 276/5/2 280/5/2
f 281/1/2 282/1/2 283/1/2
f 283/1/2 282/1/2 284/1/2
f 283/2/2 284/2/2 285/2/2
f 285/2/2 284/2/2 286/2/2
f 287/5/2 288/5/2 289/5/2
f 289/5/2 288/5/2 290/5/2
f 293/5/3 292/5/3 291/5/3
f 294/5/3 292/5/3 293/5/3
f 297/5/3 296/5/3 295/5/3
f 298/5/3 296/5/3 297/5/3
f 299/5/3 296/5/3 298/5/3
f 303/5/3 302/5/3 301/5/3
f 304/5/3 302/5/3 303/5/3
f 307/5/3 300/5/3 299/5/3
f 308/5/3 300/5/3 307/5/3
f 309/5/3 306/5/3 305/5/3
f 309/5/3 307/5/3 306/5/3
f 310/5/3 307/5/3 309/5/3
f 312/5/3 311/5/3 310/5/3
f 313/5/3 311/5/3 312/5/3
f 318/5/3 315/5/3 314/5/3
f 319/5/3 315/5/3 318/5/3
f 327/5/3 317/5/3 316/5/3
f 328/5/3 317/5/3 327/5/3
f 330/5/3 320/5/3 319/5/3
f 331/5/3 320/5/3 330/5/3
f 333/3/3 327/3/3 326/3/3
f 333/11/3 328/11/3 327/11/3
f 334/5/3 329/5/3 328/5/3
f 334/11/3 328/11/3 333/11/3
f 335/4/3 322/4/3 321/4/3
f 336/10/3 323/10/3 322/10/3
f 336/4/3 322/4/3 335/4/3
f 337/4/3 324/4/3 323/4/3
f 337/10/3 323/10/3 336/10/3
f 338/6/3 325/6/3 324/6/3
f 338/4/3 324/4/3 337/4/3
f 339/5/3 326/5/3 325/5/3
f 339/6/3 325/6/3 338/6/3
f 340/3/3 333/3/3 326/3/3
f 340/5/3 326/5/3 339/5/3
f 341/2/3 334/2/3 333/2/3
f 341/3/3 333/3/3 340/3/3
f 342/5/3 329/5/3 334/5/3
f 342/2/3 334/2/3 341/2/3
f 343/5/3 329/5/3 342/5/3
f 344/1/3 336/1/3 335/1/3
f 344/1/3 337/1/3 336/1/3
f 345/1/3 337/1/3 344/1/3
f 346/4/3 338/4/3 337/4/3
f 346/1/3 337/1/3 345/1/3
f 347/5/3 339/5/3 338/5/3
f 347/4/3 338/4/3 346/4/3
f 347/5/3 340/5/3 339/5/3
f 348/2/3 341/2/3 340/2/3
f 348/2/3 342/2/3 341/2/3
f 349/2/3 342/2/3 348/2/3
f 351/4/3 345/4/3 344/4/3
f 352/9/3 346/9/3 345/9/3
f 352/4/3 345/4/3 351/4/3
f 353/1/3 347/1/3 346/1/3
f 353/9/3 346/9/3 352/9/3
f 354/5/3 340/5/3 347/5/3
f 354/1/3 347/1/3 353/1/3
f 355/2/3 348/2/3 340/2/3
f 355/5/3 340/5/3 354/5/3
f 356/11/3 349/11/3 348/11/3
f 356/2/3 348/2/3 355/2/3
f 357/5/3 350/5/3 349/5/3
f 357/11/3 349/11/3 356/11/3
f 358/5/3 350/5/3 357/5/3
f 360/5/3 332/5/3 331/5/3
f 361/5/3 332/5/3 360/5/3
f 362/5/3 357/5/3 356/5/3
f 363/5/3 357/5/3 362/5/3
f 365/5/3 360/5/3 359/5/3
f 366/5/3 360/5/3 365/5/3
f 367/5/3 365/5/3 364/5/3
f 368/5/3 365/5/3 367/5/3
f 375/1/3 370/1/3 369/1/3
f 376/2/3 371/2/3 370/2/3
f 376/1/3 370/1/3 375/1/3
f 377/2/3 371/2/3 376/2/3
f 378/5/3 373/5/3 372/5/3
f 379/5/3 373/5/3 378/5/3
f 382/10/3 375/10/3 374/10/3
f 383/10/3 375/10/3 382/10/3
f 384/3/3 377/3/3 376/3/3
f 385/5/3 378/5/3 377/5/3
f 385/3/3 377/3/3 384/3/3
f 386/5/3 378/5/3 385/5/3
f 387/5/3 380/5/3 379/5/3
f 388/5/3 380/5/3 387/5/3
f 393/6/3 382/6/3 381/6/3
f 394/6/3 382/6/3 393/6/3
f 395/5/3 384/5/3 383/5/3
f 396/5/3 384/5/3 395/5/3
f 397/5/3 389/5/3 388/5/3
f 398/5/3 389/5/3 397/5/3
f 400/6/3 391/6/3 390/6/3
f 401/7/3 392/7/3 391/7/3
f 401/6/3 391/6/3 400/6/3
f 402/7/3 392/7/3 401/7/3
f 407/6/3 404/6/3 403/6/3
f 408/7/3 405/7/3 404/7/3
f 408/6/3 404/6/3 407/6/3
f 409/4/3 406/4/3 405/4/3
f 409/7/3 405/7/3 408/7/3
f 410/4/3 406/4/3 409/4/3
f 416/5/3 399/5/3 398/5/3
f 417/5/3 399/5/3 416/5/3
f 418/6/3 412/6/3 411/6/3
f 419/6/3 412/6/3 418/6/3
f 420/5/3 414/5/3 413/5/3
f 421/5/3 414/5/3 420/5/3
f 425/5/3 416/5/3 415/5/3
f 426/5/3 416/5/3 425/5/3
f 427/8/3 420/8/3 419/8/3
f 428/8/3 420/8/3 427/8/3
f 429/3/3 422/3/3 421/3/3
f 430/5/3 423/5/3 422/5/3
f 430/3/3 422/3/3 429/3/3
f 431/5/3 423/5/3 430/5/3
f 432/5/3 425/5/3 424/5/3
f 433/5/3 425/5/3 432/5/3
f 434/1/3 429/1/3 428/1/3
f 435/2/3 430/2/3 429/2/3
f 435/1/3 429/1/3 434/1/3
f 436/2/3 430/2/3 435/2/3
f 437/5/3 432/5/3 431/5/3
f 438/5/3 432/5/3 437/5/3
f 441/5/3 440/5/3 439/5/3
f 442/5/3 440/5/3 441/5/3
f 445/5/3 444/5/3 443/5/3
f 446/5/3 444/5/3 445/5/3
f 447/5/4 448/5/4 449/5/4
f 449/5/4 448/5/4 450/5/4
f 451/1/4 452/1/4 457/1/4
f 452/2/4 453/2/4 458/2/4
f 457/1/4 452/1/4 458/1/4
f 458/2/4 453/2/4 459/2/4
f 454/5/4 455/5/4 460/5/4
f 460/5/4 455/5/4 461/5/4
f 456/10/4 457/10/4 464/10/4
f 464/10/4 457/10/4 465/10/4
f 458/3/4 459/3/4 466/3/4
f 466/3/4 459/3/4 467/3/4
f 461/5/4 462/5/4 468/5/4
f 468/5/4 462/5/4 469/5/4
f 463/6/4 464/6/4 473/6/4
f 473/6/4 464/6/4 474/6/4
f 470/6/4 471/6/4 475/6/4
f 471/7/4 472/7/4 476/7/4
f 475/6/4 471/6/4 476/6/4
f 476/7/4 472/7/4 477/7/4
f 478/6/4 479/6/4 482/6/4
f 479/7/4 480/7/4 483/7/4
f 482/6/4 479/6/4 483/6/4
f 480/4/4 481/4/4 484/4/4
f 483/7/4 480/7/4 484/7/4
f 484/4/4 481/4/4 485/4/4
f 486/6/4 487/6/4 488/6/4
f 488/6/4 487/6/4 489/6/4
f 489/8/4 490/8/4 493/8/4
f 493/8/4 490/8/4 494/8/4
f 491/3/4 492/3/4 495/3/4
f 495/3/4 492/3/4 496/3/4
f 494/1/4 495/1/4 499/1/4
f 495/2/4 496/2/4 500/2/4
f 499/1/4 495/1/4 500/1/4
f 500/2/4 496/2/4 501/2/4
f 497/5/4 498/5/4 502/5/4
f 502/5/4 498/5/4 503/5/4
f 504/5/4 505/5/4 506/5/4
f 506/5/4 505/5/4 507/5/4
f 508/5/4 509/5/4 515/5/4
f 515/5/4 509/5/4 516/5/4
f 510/4/4 511/4/4 518/4/4
f 511/9/4 512/9/4 519/9/4
f 518/4/4 511/4/4 519/4/4
f 512/4/4 513/4/4 520/4/4
f 519/9/4 512/9/4 520/9/4
f 513/5/4 514/5/4 521/5/4
f 520/4/4 513/4/4 521/4/4
f 521/5/4 514/5/4 522/5/4
f 516/5/4 517/5/4 524/5/4
f 524/5/4 517/5/4 525/5/4
f 523/5/4 524/5/4 527/5/4
f 527/5/4 524/5/4 528/5/4
f 526/5/4 527/5/4 529/5/4
f 529/5/4 527/5/4 530/5/4
f 531/5/4 532/5/4 535/5/4
f 535/5/4 532/5/4 536/5/4
f 533/5/4 534/5/4 538/5/4
f 536/5/4 537/5/4 538/5/4
f 535/5/4 536/5/4 538/5/4
f 534/5/4 535/5/4 538/5/4
f 538/5/4 537/5/4 539/5/4
f 539/5/4 540/5/4 542/5/4
f 542/5/4 540/5/4 543/5/4
f 541/5/4 542/5/4 544/5/4
f 544/5/4 542/5/4 545/5/4
f 545/5/4 542/5/4 546/5/4
f 546/5/4 542/5/4 547/5/4
f 547/5/4 542/5/4 548/5/4
f 546/5/4 547/5/4 549/5/4
f 549/5/4 547/5/4 550/5/4
f 551/5/4 552/5/4 553/5/4
f 553/5/4 552/5/4 554/5/4
f 555/5/4 556/5/4 557/5/4
f 557/5/4 556/5/4 558/5/4
f 555/5/4 557/5/4 559/5/4
f 558/5/4 556/5/4 560/5/4
f 555/5/4 559/5/4 561/5/4
f 559/5/4 560/5/4 561/5/4
f 560/5/4 556/5/4 562/5/4
f 561/5/4 560/5/4 562/5/4
f 563/5/4 564/5/4 565/5/4
f 565/5/4 564/5/4 566/5/4
f 567/5/4 568/5/4 569/5/4
f 569/5/4 568/5/4 570/5/4
f 575/6/5 572/6/5 571/6/5
f 576/6/5 572/6/5 575/6/5
f 577/6/5 574/6/5 573/6/5
f 578/6/5 574/6/5 577/6/5
f 583/4/5 580/4/5 579/4/5
f 584/4/5 580/4/5 583/4/5
f 585/1/5 581/1/5 580/1/5
f 585/4/5 580/4/5 584/4/5
f 586/4/5 582/4/5 581/4/5
f 586/1/5 581/1/5 585/1/5
f 587/4/5 582/4/5 586/4/5
f 589/4/5 585/4/5 584/4/5
f 589/4/5 586/4/5 585/4/5
f 590/4/5 586/4/5 589/4/5
f 592/4/5 589/4/5 588/4/5
f 592/4/5 591/4/5 590/4/5
f 592/4/5 590/4/5 589/4/5
f 593/4/5 591/4/5 592/4/5
f 598/6/5 595/6/5 594/6/5
f 599/6/5 595/6/5 598/6/5
f 600/6/5 597/6/5 596/6/5
f 601/6/5 597/6/5 600/6/5
f 606/10/5 603/10/5 602/10/5
f 607/10/5 603/10/5 606/10/5
f 608/8/5 605/8/5 604/8/5
f 609/8/5 605/8/5 608/8/5
f 618/1/5 611/1/5 610/1/5
f 619/1/5 611/1/5 618/1/5
f 620/5/5 613/5/5 612/5/5
f 621/5/5 615/5/5 614/5/5
f 622/1/5 617/1/5 616/1/5
f 623/1/5 617/1/5 622/1/5
f 624/5/5 613/5/5 620/5/5
f 625/5/5 621/5/5 614/5/5
f 626/5/5 624/5/5 620/5/5
f 626/5/5 625/5/5 624/5/5
f 627/5/5 625/5/5 626/5/5
f 628/5/5 621/5/5 625/5/5
f 628/5/5 625/5/5 627/5/5
f 629/5/5 621/5/5 628/5/5
f 630/5/5 628/5/5 627/5/5
f 631/5/5 628/5/5 630/5/5
f 637/5/5 633/5/5 632/5/5
f 638/5/5 633/5/5 637/5/5
f 639/5/5 635/5/5 634/5/5
f 640/5/5 635/5/5 639/5/5
f 642/3/5 637/3/5 636/3/5
f 643/3/5 637/3/5 642/3/5
f 644/3/5 641/3/5 640/3/5
f 645/3/5 641/3/5 644/3/5
f 650/5/5 647/5/5 646/5/5
f 651/5/5 649/5/5 648/5/5
f 652/5/5 650/5/5 646/5/5
f 653/5/5 650/5/5 652/5/5
f 656/5/5 649/5/5 651/5/5
f 657/5/5 649/5/5 656/5/5
f 658/5/5 655/5/5 654/5/5
f 659/5/5 655/5/5 658/5/5
f 666/5/5 661/5/5 660/5/5
f 667/5/5 661/5/5 666/5/5
f 668/5/5 663/5/5 662/5/5
f 669/5/5 663/5/5 668/5/5
f 670/5/5 665/5/5 664/5/5
f 671/5/5 665/5/5 670/5/5
f 676/5/5 673/5/5 672/5/5
f 677/5/5 673/5/5 676/5/5
f 678/5/5 675/5/5 674/5/5
f 679/5/5 675/5/5 678/5/5
f 682/5/5 681/5/5 680/5/5
f 683/5/5 681/5/5 682/5/5
f 684/5/5 681/5/5 683/5/5
f 685/5/5 681/5/5 684/5/5
f 688/5/5 683/5/5 682/5/5
f 689/5/5 683/5/5 688/5/5
f 690/5/5 685/5/5 684/5/5
f 691/5/5 685/5/5 690/5/5
f 695/5/5 687/5/5 686/5/5
f 696/5/5 687/5/5 695/5/5
f 697/5/5 693/5/5 692/5/5
f 698/5/5 693/5/5 697/5/5
f 700/5/5 695/5/5 694/5/5
f 701/5/5 695/5/5 700/5/5
f 702/5/5 699/5/5 698/5/5
f 703/5/5 699/5/5 702/5/5
f 706/5/5 705/5/5 704/5/5
f 707/5/5 705/5/5 706/5/5
f 708/6/6 709/6/6 712/6/6
f 712/6/6 709/6/6 713/6/6
f 710/6/6 711/6/6 714/6/6
f 714/6/6 711/6/6 715/6/6
f 716/10/6 717/10/6 720/10/6
f 720/10/6 717/10/6 721/10/6
f 718/8/6 719/8/6 722/8/6
f 722/8/6 719/8/6 723/8/6
f 724/2/6 725/2/6 728/2/6
f 728/2/6 725/2/6 729/2/6
f 726/2/6 727/2/6 730/2/6
f 730/2/6 727/2/6 731/2/6
f 732/5/6 733/5/6 736/5/6
f 736/5/6 733/5/6 737/5/6
f 734/5/6 735/5/6 738/5/6
f 738/5/6 735/5/6 739/5/6
f 740/5/6 741/5/6 744/5/6
f 744/5/6 741/5/6 745/5/6
f 742/5/6 743/5/6 746/5/6
f 746/5/6 743/5/6 747/5/6
f 748/5/6 749/5/6 751/5/6
f 751/5/6 749/5/6 752/5/6
f 750/5/6 751/5/6 755/5/6
f 755/5/6 751/5/6 756/5/6
f 752/5/6 753/5/6 757/5/6
f 757/5/6 753/5/6 758/5/6
f 754/5/6 755/5/6 761/5/6
f 761/5/6 755/5/6 762/5/6
f 758/5/6 759/5/6 763/5/6
f 763/5/6 759/5/6 764/5/6
f 760/5/6 761/5/6 766/5/6
f 766/5/6 761/5/6 767/5/6
f 764/5/6 765/5/6 769/5/6
f 769/5/6 765/5/6 770/5/6
f 767/5/6 768/5/6 771/5/6
f 771/5/6 768/5/6 772/5/6
f 773/5/6 774/5/6 775/5/6
f 775/5/6 774/5/6 776/5/6
f 777/5/6 778/5/6 782/5/6
f 782/5/6 778/5/6 783/5/6
f 779/5/6 780/5/6 784/5/6
f 784/5/6 780/5/6 785/5/6
f 781/5/6 782/5/6 787/5/6
f 787/5/6 782/5/6 788/5/6
f 783/5/6 784/5/6 789/5/6
f 789/5/6 784/5/6 790/5/6
f 786/5/6 787/5/6 792/5/6
f 792/5/6 787/5/6 793/5/6
f 790/5/6 791/5/6 797/5/6
f 797/5/6 791/5/6 798/5/6
f 794/5/6 795/5/6 799/5/6
f 799/5/6 795/5/6 800/5/6
f 796/5/6 797/5/6 801/5/6
f 801/5/6 797/5/6 802/5/6
f 800/5/6 801/5/6 803/5/6
f 803/5/6 801/5/6 804/5/6
f 805/5/6 806/5/6 808/5/6
f 808/5/6 806/5/6 809/5/6
f 807/5/6 808/5/6 811/5/6
f 811/5/6 808/5/6 812/5/6
f 809/5/6 810/5/6 813/5/6
f 813/5/6 810/5/6 814/5/6
f 812/5/6 813/5/6 815/5/6
f 815/5/6 813/5/6 816/5/6
f 817/5/6 818/5/6 819/5/6
f 819/5/6 818/5/6 820/5/6
