# MagicaVoxel @ Ephtracy

# group
g vegan02_step2

# material
mtllib vegan02_step2.mtl
usemtl palette

# normals
vn -1 0 0
vn 1 0 0
vn 0 0 1
vn 0 0 -1
vn 0 -1 0
vn 0 1 0

# texcoords
vt 0.00976563 0.5
vt 0.0332031 0.5
vt 0.0917969 0.5
vt 0.115234 0.5
vt 0.208984 0.5
vt 0.634766 0.5
vt 0.986328 0.5
vt 0.994141 0.5

# verts
v -4 9 -0
v -4 9 -1
v -4 9 -2
v -4 9 -3
v -4 10 -0
v -4 10 -1
v -4 10 -2
v -4 11 1
v -4 11 -0
v -4 11 -2
v -4 11 -3
v -4 12 1
v -4 12 -0
v -4 12 -1
v -4 12 -2
v -4 13 -0
v -4 13 -1
v -3 3 2
v -3 3 1
v -3 4 2
v -3 4 1
v -3 4 -0
v -3 5 1
v -3 5 -0
v -3 5 -1
v -3 7 2
v -3 7 1
v -3 7 -0
v -3 7 -1
v -3 8 2
v -3 8 1
v -3 8 -0
v -3 8 -3
v -3 9 1
v -3 9 -0
v -3 9 -1
v -3 9 -2
v -3 9 -3
v -3 10 -0
v -3 10 -1
v -3 10 -2
v -3 11 2
v -3 11 1
v -3 11 -0
v -3 11 -2
v -3 11 -3
v -3 12 2
v -3 12 1
v -3 12 -0
v -3 12 -1
v -3 12 -2
v -3 13 1
v -3 13 -0
v -3 13 -1
v -3 13 -2
v -3 13 -3
v -3 14 -0
v -3 14 -2
v -2 0 -1
v -2 0 -2
v -2 1 -1
v -2 1 -2
v -2 2 -1
v -2 2 -2
v -2 3 1
v -2 3 -1
v -2 4 1
v -2 4 -0
v -2 4 -2
v -2 4 -3
v -2 5 1
v -2 5 -0
v -2 5 -1
v -2 5 -2
v -2 6 2
v -2 6 1
v -2 7 2
v -2 7 1
v -2 7 -0
v -2 7 -1
v -2 7 -2
v -2 8 2
v -2 8 1
v -2 8 -0
v -2 8 -2
v -2 8 -3
v -2 8 -4
v -2 9 2
v -2 9 1
v -2 9 -0
v -2 12 2
v -2 12 1
v -2 13 2
v -2 13 1
v -2 13 -0
v -2 13 -2
v -2 13 -3
v -2 13 -4
v -2 14 1
v -2 14 -0
v -2 14 -2
v -2 14 -3
v -2 15 -0
v -2 15 -2
v -1 3 -2
v -1 3 -3
v -1 4 -2
v -1 4 -3
v -1 5 -3
v -1 5 -4
v -1 8 -3
v -1 8 -4
v -1 9 2
v -1 9 1
v -1 10 1
v -1 11 2
v -1 11 1
v 1 0 1
v 1 0 -0
v 1 1 1
v 1 1 -0
v 1 2 1
v 1 2 -0
v 1 3 1
v 1 3 -0
v 2 10 2
v 2 10 1
v 2 11 2
v 2 11 1
v -2 3 2
v -2 3 1
v -2 4 2
v -2 4 1
v -2 7 2
v -2 7 1
v -2 8 2
v -2 8 1
v -1 0 -1
v -1 0 -2
v -1 1 -1
v -1 1 -2
v -1 2 -1
v -1 2 -2
v -1 3 -1
v -1 3 -2
v -1 8 2
v -1 8 1
v -1 9 2
v -1 9 1
v 0 9 2
v 0 9 1
v 0 10 2
v 0 10 1
v 1 3 -2
v 1 3 -3
v 1 4 -2
v 1 4 -3
v 1 5 -3
v 1 5 -4
v 1 8 -3
v 1 8 -4
v 1 10 2
v 1 10 1
v 1 11 2
v 1 11 1
v 2 0 1
v 2 0 -0
v 2 1 1
v 2 1 -0
v 2 2 1
v 2 2 -0
v 2 3 -0
v 2 3 -1
v 2 4 -1
v 2 4 -2
v 2 4 -3
v 2 5 1
v 2 5 -0
v 2 5 -1
v 2 5 -2
v 2 6 2
v 2 6 1
v 2 7 2
v 2 7 1
v 2 7 -0
v 2 7 -1
v 2 7 -2
v 2 8 1
v 2 8 -0
v 2 8 -1
v 2 8 -2
v 2 8 -3
v 2 8 -4
v 2 9 1
v 2 9 -0
v 2 12 2
v 2 12 1
v 2 13 2
v 2 13 1
v 2 13 -0
v 2 13 -2
v 2 13 -3
v 2 13 -4
v 2 14 1
v 2 14 -0
v 2 14 -2
v 2 14 -3
v 2 15 -0
v 2 15 -2
v 3 3 -1
v 3 3 -2
v 3 4 -1
v 3 4 -2
v 3 5 -0
v 3 5 -1
v 3 5 -2
v 3 7 -0
v 3 7 -1
v 3 8 -1
v 3 8 -3
v 3 9 1
v 3 9 -0
v 3 9 -1
v 3 9 -2
v 3 9 -3
v 3 10 2
v 3 10 1
v 3 10 -0
v 3 10 -1
v 3 10 -2
v 3 11 1
v 3 11 -0
v 3 11 -2
v 3 11 -3
v 3 12 2
v 3 12 1
v 3 12 -0
v 3 12 -1
v 3 12 -2
v 3 13 1
v 3 13 -0
v 3 13 -1
v 3 13 -2
v 3 13 -3
v 3 14 -0
v 3 14 -2
v 4 9 -0
v 4 9 -1
v 4 9 -2
v 4 9 -3
v 4 10 -0
v 4 10 -1
v 4 10 -2
v 4 11 1
v 4 11 -0
v 4 11 -2
v 4 11 -3
v 4 12 1
v 4 12 -0
v 4 12 -1
v 4 12 -2
v 4 13 -0
v 4 13 -1
v -3 3 2
v -3 4 2
v -3 7 2
v -3 8 2
v -3 11 2
v -3 12 2
v -2 3 2
v -2 4 2
v -2 6 2
v -2 7 2
v -2 8 2
v -2 9 2
v -2 12 2
v -2 13 2
v -1 8 2
v -1 9 2
v -1 11 2
v 0 9 2
v 0 10 2
v 1 10 2
v 1 11 2
v 2 6 2
v 2 7 2
v 2 10 2
v 2 11 2
v 2 12 2
v 2 13 2
v 3 10 2
v 3 12 2
v -4 11 1
v -4 12 1
v -3 4 1
v -3 5 1
v -3 9 1
v -3 11 1
v -3 12 1
v -3 13 1
v -2 3 1
v -2 4 1
v -2 5 1
v -2 6 1
v -2 7 1
v -2 8 1
v -2 9 1
v -2 10 1
v -2 12 1
v -2 13 1
v -2 14 1
v -1 8 1
v -1 9 1
v -1 10 1
v -1 11 1
v 0 9 1
v 0 10 1
v 1 0 1
v 1 1 1
v 1 2 1
v 1 3 1
v 1 9 1
v 1 10 1
v 1 11 1
v 2 0 1
v 2 1 1
v 2 2 1
v 2 5 1
v 2 6 1
v 2 7 1
v 2 8 1
v 2 9 1
v 2 10 1
v 2 11 1
v 2 12 1
v 2 13 1
v 2 14 1
v 3 9 1
v 3 10 1
v 3 11 1
v 3 12 1
v 3 13 1
v 4 11 1
v 4 12 1
v -4 9 -0
v -4 10 -0
v -4 11 -0
v -4 12 -0
v -4 13 -0
v -3 5 -0
v -3 7 -0
v -3 8 -0
v -3 9 -0
v -3 10 -0
v -3 11 -0
v -3 12 -0
v -3 13 -0
v -3 14 -0
v -2 5 -0
v -2 7 -0
v -2 8 -0
v -2 9 -0
v -2 13 -0
v -2 14 -0
v -2 15 -0
v 2 5 -0
v 2 7 -0
v 2 8 -0
v 2 9 -0
v 2 13 -0
v 2 14 -0
v 2 15 -0
v 3 5 -0
v 3 7 -0
v 3 9 -0
v 3 10 -0
v 3 11 -0
v 3 12 -0
v 3 13 -0
v 3 14 -0
v 4 9 -0
v 4 10 -0
v 4 11 -0
v 4 12 -0
v 4 13 -0
v -2 0 -1
v -2 1 -1
v -2 2 -1
v -2 3 -1
v -1 0 -1
v -1 1 -1
v -1 2 -1
v -1 3 -1
v 2 3 -1
v 2 4 -1
v 2 5 -1
v 3 3 -1
v 3 4 -1
v 3 5 -1
v -4 9 -2
v -4 10 -2
v -3 9 -2
v -3 10 -2
v 3 9 -2
v 3 10 -2
v 4 9 -2
v 4 10 -2
v -3 3 1
v -3 4 1
v -3 7 1
v -3 8 1
v -2 3 1
v -2 4 1
v -2 7 1
v -2 8 1
v -3 4 -0
v -3 5 -0
v -2 4 -0
v -2 5 -0
v 1 0 -0
v 1 1 -0
v 1 2 -0
v 1 3 -0
v 2 0 -0
v 2 1 -0
v 2 2 -0
v 2 3 -0
v -4 9 -1
v -4 10 -1
v -4 12 -1
v -4 13 -1
v -3 5 -1
v -3 7 -1
v -3 9 -1
v -3 10 -1
v -3 12 -1
v -3 13 -1
v -2 5 -1
v -2 7 -1
v 2 5 -1
v 2 7 -1
v 2 8 -1
v 3 5 -1
v 3 7 -1
v 3 8 -1
v 3 9 -1
v 3 10 -1
v 3 12 -1
v 3 13 -1
v 4 9 -1
v 4 10 -1
v 4 12 -1
v 4 13 -1
v -4 11 -2
v -4 12 -2
v -3 11 -2
v -3 12 -2
v -3 13 -2
v -3 14 -2
v -2 0 -2
v -2 1 -2
v -2 2 -2
v -2 4 -2
v -2 13 -2
v -2 14 -2
v -2 15 -2
v -1 0 -2
v -1 1 -2
v -1 2 -2
v -1 3 -2
v -1 4 -2
v 1 3 -2
v 1 4 -2
v 2 3 -2
v 2 4 -2
v 2 5 -2
v 2 13 -2
v 2 14 -2
v 2 15 -2
v 3 3 -2
v 3 4 -2
v 3 5 -2
v 3 11 -2
v 3 12 -2
v 3 13 -2
v 3 14 -2
v 4 11 -2
v 4 12 -2
v -4 9 -3
v -4 11 -3
v -3 8 -3
v -3 9 -3
v -3 11 -3
v -3 13 -3
v -2 4 -3
v -2 8 -3
v -2 13 -3
v -2 14 -3
v -1 3 -3
v -1 4 -3
v -1 5 -3
v -1 8 -3
v 1 3 -3
v 1 4 -3
v 1 5 -3
v 1 8 -3
v 2 4 -3
v 2 8 -3
v 2 13 -3
v 2 14 -3
v 3 8 -3
v 3 9 -3
v 3 11 -3
v 3 13 -3
v 4 9 -3
v 4 11 -3
v -2 8 -4
v -2 13 -4
v -1 5 -4
v -1 8 -4
v 1 5 -4
v 1 8 -4
v 2 8 -4
v 2 13 -4
v 1 0 1
v 2 0 1
v 1 0 -0
v 2 0 -0
v -2 0 -1
v -1 0 -1
v -2 0 -2
v -1 0 -2
v -3 3 2
v -2 3 2
v -3 3 1
v -2 3 1
v 1 3 1
v 1 3 -0
v 2 3 -0
v -2 3 -1
v -1 3 -1
v 2 3 -1
v 3 3 -1
v -1 3 -2
v 1 3 -2
v 2 3 -2
v 3 3 -2
v -1 3 -3
v 1 3 -3
v -3 4 1
v -2 4 1
v -3 4 -0
v -2 4 -0
v -2 4 -2
v -1 4 -2
v 1 4 -2
v 2 4 -2
v -2 4 -3
v -1 4 -3
v 1 4 -3
v 2 4 -3
v -3 5 -0
v -2 5 -0
v 2 5 -0
v 3 5 -0
v -3 5 -1
v -2 5 -1
v 2 5 -1
v 3 5 -1
v -1 5 -3
v 1 5 -3
v -1 5 -4
v 1 5 -4
v -2 6 2
v 2 6 2
v -2 6 1
v 2 6 1
v -3 7 2
v -2 7 2
v -3 7 1
v -2 7 1
v -2 8 2
v -1 8 2
v -2 8 1
v -1 8 1
v -3 8 -0
v -2 8 -0
v 2 8 -1
v 3 8 -1
v -2 8 -2
v 2 8 -2
v -3 8 -3
v -2 8 -3
v -1 8 -3
v 1 8 -3
v 2 8 -3
v 3 8 -3
v -2 8 -4
v -1 8 -4
v 1 8 -4
v 2 8 -4
v -1 9 2
v 0 9 2
v -3 9 1
v -2 9 1
v -1 9 1
v 0 9 1
v 2 9 1
v 3 9 1
v -4 9 -0
v -3 9 -0
v -2 9 -0
v 2 9 -0
v 3 9 -0
v 4 9 -0
v -4 9 -1
v -3 9 -1
v 3 9 -1
v 4 9 -1
v -4 9 -2
v -3 9 -2
v 3 9 -2
v 4 9 -2
v -4 9 -3
v -3 9 -3
v 3 9 -3
v 4 9 -3
v 0 10 2
v 1 10 2
v 2 10 2
v 3 10 2
v 0 10 1
v 1 10 1
v 2 10 1
v 3 10 1
v -4 10 -1
v -3 10 -1
v 3 10 -1
v 4 10 -1
v -4 10 -2
v -3 10 -2
v 3 10 -2
v 4 10 -2
v -3 11 2
v -1 11 2
v 1 11 2
v 2 11 2
v -4 11 1
v -3 11 1
v -1 11 1
v 1 11 1
v 2 11 1
v 3 11 1
v 4 11 1
v -4 11 -0
v -3 11 -0
v 3 11 -0
v 4 11 -0
v -3 4 2
v -2 4 2
v -3 4 1
v -2 4 1
v -3 5 1
v -2 5 1
v -3 5 -0
v -2 5 -0
v 2 5 -1
v 3 5 -1
v 2 5 -2
v 3 5 -2
v -2 7 2
v 2 7 2
v -2 7 1
v 2 7 1
v -3 7 -0
v -2 7 -0
v -3 7 -1
v -2 7 -1
v -3 8 2
v -2 8 2
v -3 8 1
v -2 8 1
v -2 9 2
v -1 9 2
v -2 9 1
v -1 9 1
v -4 11 -2
v -3 11 -2
v 3 11 -2
v 4 11 -2
v -4 11 -3
v -3 11 -3
v 3 11 -3
v 4 11 -3
v -3 12 2
v -2 12 2
v 2 12 2
v 3 12 2
v -4 12 1
v -3 12 1
v -2 12 1
v 2 12 1
v 3 12 1
v 4 12 1
v -4 12 -0
v -3 12 -0
v 3 12 -0
v 4 12 -0
v -4 12 -1
v -3 12 -1
v 3 12 -1
v 4 12 -1
v -4 12 -2
v -3 12 -2
v 3 12 -2
v 4 12 -2
v -2 13 2
v 2 13 2
v -3 13 1
v -2 13 1
v 2 13 1
v 3 13 1
v -4 13 -0
v -3 13 -0
v -2 13 -0
v 2 13 -0
v 3 13 -0
v 4 13 -0
v -4 13 -1
v -3 13 -1
v 3 13 -1
v 4 13 -1
v -3 13 -2
v -2 13 -2
v 2 13 -2
v 3 13 -2
v -3 13 -3
v -2 13 -3
v 2 13 -3
v 3 13 -3
v -2 13 -4
v 2 13 -4
v -2 14 1
v 2 14 1
v -3 14 -0
v -2 14 -0
v 2 14 -0
v 3 14 -0
v -3 14 -2
v -2 14 -2
v 2 14 -2
v 3 14 -2
v -2 14 -3
v 2 14 -3
v -2 15 -0
v 2 15 -0
v -2 15 -2
v 2 15 -2

# faces
f 5/1/1 2/1/1 1/1/1
f 6/1/1 2/1/1 5/1/1
f 7/4/1 4/4/1 3/4/1
f 9/4/1 6/4/1 5/4/1
f 9/4/1 7/4/1 6/4/1
f 10/4/1 4/4/1 7/4/1
f 10/4/1 7/4/1 9/4/1
f 11/4/1 4/4/1 10/4/1
f 12/4/1 9/4/1 8/4/1
f 12/4/1 10/4/1 9/4/1
f 13/4/1 10/4/1 12/4/1
f 14/4/1 10/4/1 13/4/1
f 15/4/1 10/4/1 14/4/1
f 16/4/1 14/4/1 13/4/1
f 17/4/1 14/4/1 16/4/1
f 20/1/1 19/1/1 18/1/1
f 21/1/1 19/1/1 20/1/1
f 23/5/1 22/5/1 21/5/1
f 24/5/1 22/5/1 23/5/1
f 28/7/1 25/7/1 24/7/1
f 29/7/1 25/7/1 28/7/1
f 30/4/1 27/4/1 26/4/1
f 31/4/1 27/4/1 30/4/1
f 35/4/1 33/4/1 32/4/1
f 36/4/1 33/4/1 35/4/1
f 37/4/1 33/4/1 36/4/1
f 38/4/1 33/4/1 37/4/1
f 39/4/1 35/4/1 34/4/1
f 40/4/1 37/4/1 36/4/1
f 41/4/1 37/4/1 40/4/1
f 43/4/1 39/4/1 34/4/1
f 44/4/1 39/4/1 43/4/1
f 47/4/1 43/4/1 42/4/1
f 48/4/1 43/4/1 47/4/1
f 51/4/1 46/4/1 45/4/1
f 52/4/1 49/4/1 48/4/1
f 53/4/1 49/4/1 52/4/1
f 54/4/1 51/4/1 50/4/1
f 55/4/1 46/4/1 51/4/1
f 55/4/1 51/4/1 54/4/1
f 56/4/1 46/4/1 55/4/1
f 57/4/1 54/4/1 53/4/1
f 57/4/1 55/4/1 54/4/1
f 58/4/1 55/4/1 57/4/1
f 61/7/1 60/7/1 59/7/1
f 62/7/1 60/7/1 61/7/1
f 63/3/1 62/3/1 61/3/1
f 64/3/1 62/3/1 63/3/1
f 66/5/1 64/5/1 63/5/1
f 67/5/1 66/5/1 65/5/1
f 68/5/1 66/5/1 67/5/1
f 69/5/1 64/5/1 66/5/1
f 69/5/1 66/5/1 68/5/1
f 72/5/1 69/5/1 68/5/1
f 73/5/1 69/5/1 72/5/1
f 74/4/1 70/4/1 69/4/1
f 74/5/1 69/5/1 73/5/1
f 76/3/1 72/3/1 71/3/1
f 77/3/1 76/3/1 75/3/1
f 78/3/1 72/3/1 76/3/1
f 78/3/1 76/3/1 77/3/1
f 79/3/1 72/3/1 78/3/1
f 80/3/1 74/3/1 73/3/1
f 81/4/1 70/4/1 74/4/1
f 81/3/1 74/3/1 80/3/1
f 83/5/1 80/5/1 79/5/1
f 83/5/1 81/5/1 80/5/1
f 83/5/1 79/5/1 78/5/1
f 84/5/1 81/5/1 83/5/1
f 85/4/1 70/4/1 81/4/1
f 85/5/1 81/5/1 84/5/1
f 86/4/1 70/4/1 85/4/1
f 88/4/1 83/4/1 82/4/1
f 89/1/1 84/1/1 83/1/1
f 89/4/1 83/4/1 88/4/1
f 90/1/1 84/1/1 89/1/1
f 93/4/1 92/4/1 91/4/1
f 94/4/1 92/4/1 93/4/1
f 97/4/1 87/4/1 86/4/1
f 98/4/1 87/4/1 97/4/1
f 99/4/1 95/4/1 94/4/1
f 100/4/1 95/4/1 99/4/1
f 101/4/1 97/4/1 96/4/1
f 102/4/1 97/4/1 101/4/1
f 103/4/1 101/4/1 100/4/1
f 104/4/1 101/4/1 103/4/1
f 107/4/1 106/4/1 105/4/1
f 108/4/1 106/4/1 107/4/1
f 111/4/1 110/4/1 109/4/1
f 112/4/1 110/4/1 111/4/1
f 115/4/1 114/4/1 113/4/1
f 116/4/1 115/4/1 113/4/1
f 117/4/1 115/4/1 116/4/1
f 120/7/1 119/7/1 118/7/1
f 121/7/1 119/7/1 120/7/1
f 122/3/1 121/3/1 120/3/1
f 123/3/1 121/3/1 122/3/1
f 124/5/1 123/5/1 122/5/1
f 125/5/1 123/5/1 124/5/1
f 128/4/1 127/4/1 126/4/1
f 129/4/1 127/4/1 128/4/1
f 130/1/2 131/1/2 132/1/2
f 132/1/2 131/1/2 133/1/2
f 134/4/2 135/4/2 136/4/2
f 136/4/2 135/4/2 137/4/2
f 138/7/2 139/7/2 140/7/2
f 140/7/2 139/7/2 141/7/2
f 140/3/2 141/3/2 142/3/2
f 142/3/2 141/3/2 143/3/2
f 142/5/2 143/5/2 144/5/2
f 144/5/2 143/5/2 145/5/2
f 146/4/2 147/4/2 148/4/2
f 148/4/2 147/4/2 149/4/2
f 150/4/2 151/4/2 152/4/2
f 152/4/2 151/4/2 153/4/2
f 154/4/2 155/4/2 156/4/2
f 156/4/2 155/4/2 157/4/2
f 158/4/2 159/4/2 160/4/2
f 160/4/2 159/4/2 161/4/2
f 162/4/2 163/4/2 164/4/2
f 164/4/2 163/4/2 165/4/2
f 166/7/2 167/7/2 168/7/2
f 168/7/2 167/7/2 169/7/2
f 168/3/2 169/3/2 170/3/2
f 170/3/2 169/3/2 171/3/2
f 170/5/2 171/5/2 172/5/2
f 172/5/2 173/5/2 174/5/2
f 170/5/2 172/5/2 177/5/2
f 172/5/2 174/5/2 177/5/2
f 177/5/2 174/5/2 178/5/2
f 178/5/2 174/5/2 179/5/2
f 175/4/2 176/4/2 180/4/2
f 177/3/2 178/3/2 182/3/2
f 181/3/2 182/3/2 183/3/2
f 182/3/2 178/3/2 184/3/2
f 183/3/2 182/3/2 184/3/2
f 184/3/2 178/3/2 185/3/2
f 179/3/2 180/3/2 186/3/2
f 180/4/2 176/4/2 187/4/2
f 186/3/2 180/3/2 187/3/2
f 184/5/2 185/5/2 188/5/2
f 188/5/2 185/5/2 189/5/2
f 186/5/2 187/5/2 190/5/2
f 187/4/2 176/4/2 191/4/2
f 190/5/2 187/5/2 191/5/2
f 191/4/2 176/4/2 192/4/2
f 188/1/2 189/1/2 194/1/2
f 194/1/2 189/1/2 195/1/2
f 196/4/2 197/4/2 198/4/2
f 198/4/2 197/4/2 199/4/2
f 192/4/2 193/4/2 202/4/2
f 202/4/2 193/4/2 203/4/2
f 199/4/2 200/4/2 204/4/2
f 204/4/2 200/4/2 205/4/2
f 201/4/2 202/4/2 206/4/2
f 206/4/2 202/4/2 207/4/2
f 205/4/2 206/4/2 208/4/2
f 208/4/2 206/4/2 209/4/2
f 210/1/2 211/1/2 212/1/2
f 212/1/2 211/1/2 213/1/2
f 212/5/2 213/5/2 215/5/2
f 215/5/2 213/5/2 216/5/2
f 214/7/2 215/7/2 217/7/2
f 217/7/2 215/7/2 218/7/2
f 217/4/2 218/4/2 219/4/2
f 217/4/2 219/4/2 222/4/2
f 219/4/2 220/4/2 222/4/2
f 222/4/2 220/4/2 223/4/2
f 223/4/2 220/4/2 224/4/2
f 224/4/2 220/4/2 225/4/2
f 221/4/2 222/4/2 227/4/2
f 227/4/2 222/4/2 228/4/2
f 223/4/2 224/4/2 229/4/2
f 229/4/2 224/4/2 230/4/2
f 227/4/2 228/4/2 231/4/2
f 226/4/2 227/4/2 231/4/2
f 231/4/2 228/4/2 232/4/2
f 226/4/2 231/4/2 235/4/2
f 235/4/2 231/4/2 236/4/2
f 233/4/2 234/4/2 239/4/2
f 236/4/2 237/4/2 240/4/2
f 240/4/2 237/4/2 241/4/2
f 238/4/2 239/4/2 242/4/2
f 239/4/2 234/4/2 243/4/2
f 242/4/2 239/4/2 243/4/2
f 243/4/2 234/4/2 244/4/2
f 241/4/2 242/4/2 245/4/2
f 242/4/2 243/4/2 245/4/2
f 245/4/2 243/4/2 246/4/2
f 247/1/2 248/1/2 251/1/2
f 251/1/2 248/1/2 252/1/2
f 249/4/2 250/4/2 253/4/2
f 251/4/2 252/4/2 255/4/2
f 252/4/2 253/4/2 255/4/2
f 253/4/2 250/4/2 256/4/2
f 255/4/2 253/4/2 256/4/2
f 256/4/2 250/4/2 257/4/2
f 254/4/2 255/4/2 258/4/2
f 255/4/2 256/4/2 258/4/2
f 258/4/2 256/4/2 259/4/2
f 259/4/2 256/4/2 260/4/2
f 260/4/2 256/4/2 261/4/2
f 259/4/2 260/4/2 262/4/2
f 262/4/2 260/4/2 263/4/2
f 270/1/3 265/1/3 264/1/3
f 271/1/3 265/1/3 270/1/3
f 273/4/3 267/4/3 266/4/3
f 274/4/3 267/4/3 273/4/3
f 276/4/3 269/4/3 268/4/3
f 278/4/3 275/4/3 274/4/3
f 279/4/3 275/4/3 278/4/3
f 280/4/3 277/4/3 276/4/3
f 280/4/3 276/4/3 268/4/3
f 281/4/3 280/4/3 279/4/3
f 282/4/3 280/4/3 281/4/3
f 283/4/3 280/4/3 282/4/3
f 284/4/3 277/4/3 280/4/3
f 284/4/3 280/4/3 283/4/3
f 285/3/3 273/3/3 272/3/3
f 286/3/3 273/3/3 285/3/3
f 288/4/3 277/4/3 284/4/3
f 289/4/3 277/4/3 288/4/3
f 290/4/3 277/4/3 289/4/3
f 291/4/3 288/4/3 287/4/3
f 291/4/3 289/4/3 288/4/3
f 292/4/3 289/4/3 291/4/3
f 298/4/3 294/4/3 293/4/3
f 299/4/3 294/4/3 298/4/3
f 302/5/3 296/5/3 295/5/3
f 303/5/3 296/5/3 302/5/3
f 307/4/3 298/4/3 297/4/3
f 308/4/3 298/4/3 307/4/3
f 309/4/3 300/4/3 299/4/3
f 310/4/3 300/4/3 309/4/3
f 312/5/3 306/5/3 305/5/3
f 313/8/3 308/8/3 307/8/3
f 314/4/3 298/4/3 308/4/3
f 314/8/3 308/8/3 313/8/3
f 315/4/3 298/4/3 314/4/3
f 316/1/3 313/1/3 312/1/3
f 321/5/3 302/5/3 301/5/3
f 321/5/3 303/5/3 302/5/3
f 322/1/3 316/1/3 312/1/3
f 322/1/3 317/1/3 316/1/3
f 323/1/3 317/1/3 322/1/3
f 325/7/3 319/7/3 318/7/3
f 326/3/3 320/3/3 319/3/3
f 326/7/3 319/7/3 325/7/3
f 327/5/3 321/5/3 320/5/3
f 327/3/3 320/3/3 326/3/3
f 328/3/3 304/3/3 303/3/3
f 328/5/3 321/5/3 327/5/3
f 328/5/3 303/5/3 321/5/3
f 329/3/3 304/3/3 328/3/3
f 330/5/3 312/5/3 305/5/3
f 331/1/3 322/1/3 312/1/3
f 331/5/3 312/5/3 330/5/3
f 332/8/3 323/8/3 322/8/3
f 332/1/3 322/1/3 331/1/3
f 333/4/3 324/4/3 323/4/3
f 333/8/3 323/8/3 332/8/3
f 334/4/3 324/4/3 333/4/3
f 336/4/3 311/4/3 310/4/3
f 337/4/3 311/4/3 336/4/3
f 338/4/3 333/4/3 332/4/3
f 339/4/3 333/4/3 338/4/3
f 341/4/3 336/4/3 335/4/3
f 342/4/3 336/4/3 341/4/3
f 343/4/3 341/4/3 340/4/3
f 344/4/3 341/4/3 343/4/3
f 353/1/3 346/1/3 345/1/3
f 354/4/3 347/4/3 346/4/3
f 354/1/3 346/1/3 353/1/3
f 355/4/3 347/4/3 354/4/3
f 356/4/3 349/4/3 348/4/3
f 357/4/3 349/4/3 356/4/3
f 359/7/3 351/7/3 350/7/3
f 360/7/3 351/7/3 359/7/3
f 361/4/3 353/4/3 352/4/3
f 362/4/3 353/4/3 361/4/3
f 363/4/3 358/4/3 357/4/3
f 364/4/3 358/4/3 363/4/3
f 371/4/3 365/4/3 364/4/3
f 372/4/3 365/4/3 371/4/3
f 373/7/3 367/7/3 366/7/3
f 374/4/3 369/4/3 368/4/3
f 374/7/3 367/7/3 373/7/3
f 374/4/3 368/4/3 367/4/3
f 375/4/3 369/4/3 374/4/3
f 379/4/3 371/4/3 370/4/3
f 380/4/3 371/4/3 379/4/3
f 381/1/3 376/1/3 375/1/3
f 382/4/3 377/4/3 376/4/3
f 382/1/3 376/1/3 381/1/3
f 383/4/3 377/4/3 382/4/3
f 384/4/3 379/4/3 378/4/3
f 385/4/3 379/4/3 384/4/3
f 390/7/3 387/7/3 386/7/3
f 391/3/3 388/3/3 387/3/3
f 391/7/3 387/7/3 390/7/3
f 392/5/3 389/5/3 388/5/3
f 392/3/3 388/3/3 391/3/3
f 393/5/3 389/5/3 392/5/3
f 397/1/3 395/1/3 394/1/3
f 398/5/3 396/5/3 395/5/3
f 398/1/3 395/1/3 397/1/3
f 399/5/3 396/5/3 398/5/3
f 402/4/3 401/4/3 400/4/3
f 403/4/3 401/4/3 402/4/3
f 406/4/3 405/4/3 404/4/3
f 407/4/3 405/4/3 406/4/3
f 408/1/4 409/1/4 412/1/4
f 412/1/4 409/1/4 413/1/4
f 410/4/4 411/4/4 414/4/4
f 414/4/4 411/4/4 415/4/4
f 416/5/4 417/5/4 418/5/4
f 418/5/4 417/5/4 419/5/4
f 420/7/4 421/7/4 424/7/4
f 421/3/4 422/3/4 425/3/4
f 424/7/4 421/7/4 425/7/4
f 422/5/4 423/5/4 426/5/4
f 425/3/4 422/3/4 426/3/4
f 426/5/4 423/5/4 427/5/4
f 428/1/4 429/1/4 434/1/4
f 434/1/4 429/1/4 435/1/4
f 430/4/4 431/4/4 436/4/4
f 436/4/4 431/4/4 437/4/4
f 432/7/4 433/7/4 438/7/4
f 438/7/4 433/7/4 439/7/4
f 440/7/4 441/7/4 443/7/4
f 441/4/4 442/4/4 444/4/4
f 443/7/4 441/7/4 444/7/4
f 444/4/4 442/4/4 445/4/4
f 446/1/4 447/1/4 450/1/4
f 450/1/4 447/1/4 451/1/4
f 448/4/4 449/4/4 452/4/4
f 452/4/4 449/4/4 453/4/4
f 454/4/4 455/4/4 456/4/4
f 456/4/4 455/4/4 457/4/4
f 458/4/4 459/4/4 464/4/4
f 464/4/4 459/4/4 465/4/4
f 460/7/4 461/7/4 467/7/4
f 461/3/4 462/3/4 468/3/4
f 467/7/4 461/7/4 468/7/4
f 462/5/4 463/5/4 469/5/4
f 468/3/4 462/3/4 469/3/4
f 469/5/4 463/5/4 470/5/4
f 470/5/4 463/5/4 471/5/4
f 472/5/4 473/5/4 474/5/4
f 474/5/4 473/5/4 475/5/4
f 465/4/4 466/4/4 478/4/4
f 478/4/4 466/4/4 479/4/4
f 474/1/4 475/1/4 480/1/4
f 475/5/4 476/5/4 481/5/4
f 480/1/4 475/1/4 481/1/4
f 481/5/4 476/5/4 482/5/4
f 477/4/4 478/4/4 485/4/4
f 485/4/4 478/4/4 486/4/4
f 483/4/4 484/4/4 487/4/4
f 487/4/4 484/4/4 488/4/4
f 489/4/4 490/4/4 492/4/4
f 492/4/4 490/4/4 493/4/4
f 491/4/4 492/4/4 496/4/4
f 493/4/4 494/4/4 496/4/4
f 492/4/4 493/4/4 496/4/4
f 496/4/4 494/4/4 497/4/4
f 495/4/4 496/4/4 500/4/4
f 500/4/4 496/4/4 501/4/4
f 501/4/4 496/4/4 502/4/4
f 499/4/4 500/4/4 503/4/4
f 500/4/4 501/4/4 503/4/4
f 503/4/4 501/4/4 504/4/4
f 504/4/4 501/4/4 505/4/4
f 505/4/4 506/4/4 507/4/4
f 504/4/4 505/4/4 507/4/4
f 507/4/4 506/4/4 508/4/4
f 497/4/4 498/4/4 509/4/4
f 509/4/4 498/4/4 510/4/4
f 508/4/4 509/4/4 511/4/4
f 511/4/4 509/4/4 512/4/4
f 512/4/4 509/4/4 513/4/4
f 513/4/4 509/4/4 514/4/4
f 512/4/4 513/4/4 515/4/4
f 515/4/4 513/4/4 516/4/4
f 517/4/4 518/4/4 520/4/4
f 519/4/4 520/4/4 521/4/4
f 520/4/4 518/4/4 522/4/4
f 521/4/4 520/4/4 522/4/4
f 522/4/4 518/4/4 523/4/4
f 523/4/4 518/4/4 524/4/4
f 527/7/5 526/7/5 525/7/5
f 528/7/5 526/7/5 527/7/5
f 531/7/5 530/7/5 529/7/5
f 532/7/5 530/7/5 531/7/5
f 535/1/5 534/1/5 533/1/5
f 536/1/5 534/1/5 535/1/5
f 538/5/5 537/5/5 536/5/5
f 540/5/5 538/5/5 536/5/5
f 540/5/5 539/5/5 538/5/5
f 541/5/5 539/5/5 540/5/5
f 542/5/5 539/5/5 541/5/5
f 544/5/5 542/5/5 541/5/5
f 545/5/5 542/5/5 544/5/5
f 546/1/5 543/1/5 542/1/5
f 546/5/5 542/5/5 545/5/5
f 547/1/5 543/1/5 546/1/5
f 548/4/5 545/4/5 544/4/5
f 549/4/5 545/4/5 548/4/5
f 552/5/5 551/5/5 550/5/5
f 553/5/5 551/5/5 552/5/5
f 558/4/5 555/4/5 554/4/5
f 559/4/5 555/4/5 558/4/5
f 560/4/5 557/4/5 556/4/5
f 561/4/5 557/4/5 560/4/5
f 566/7/5 563/7/5 562/7/5
f 567/7/5 563/7/5 566/7/5
f 568/7/5 565/7/5 564/7/5
f 569/7/5 565/7/5 568/7/5
f 572/4/5 571/4/5 570/4/5
f 573/4/5 571/4/5 572/4/5
f 576/3/5 575/3/5 574/3/5
f 577/3/5 575/3/5 576/3/5
f 580/4/5 579/4/5 578/4/5
f 581/4/5 579/4/5 580/4/5
f 584/4/5 583/4/5 582/4/5
f 585/4/5 583/4/5 584/4/5
f 590/4/5 587/4/5 586/4/5
f 591/4/5 589/4/5 588/4/5
f 592/4/5 590/4/5 586/4/5
f 593/4/5 590/4/5 592/4/5
f 596/4/5 589/4/5 591/4/5
f 597/4/5 589/4/5 596/4/5
f 598/4/5 594/4/5 593/4/5
f 599/4/5 594/4/5 598/4/5
f 600/4/5 596/4/5 595/4/5
f 601/4/5 596/4/5 600/4/5
f 606/4/5 603/4/5 602/4/5
f 607/4/5 603/4/5 606/4/5
f 611/4/5 605/4/5 604/4/5
f 612/4/5 605/4/5 611/4/5
f 613/4/5 609/4/5 608/4/5
f 614/4/5 609/4/5 613/4/5
f 616/1/5 611/1/5 610/1/5
f 617/1/5 611/1/5 616/1/5
f 618/1/5 615/1/5 614/1/5
f 619/1/5 615/1/5 618/1/5
f 624/4/5 621/4/5 620/4/5
f 625/4/5 621/4/5 624/4/5
f 626/4/5 623/4/5 622/4/5
f 627/4/5 623/4/5 626/4/5
f 632/4/5 629/4/5 628/4/5
f 633/4/5 629/4/5 632/4/5
f 634/4/5 631/4/5 630/4/5
f 635/4/5 631/4/5 634/4/5
f 640/4/5 637/4/5 636/4/5
f 641/4/5 637/4/5 640/4/5
f 642/4/5 639/4/5 638/4/5
f 643/4/5 639/4/5 642/4/5
f 649/4/5 645/4/5 644/4/5
f 650/4/5 645/4/5 649/4/5
f 651/4/5 647/4/5 646/4/5
f 652/4/5 647/4/5 651/4/5
f 655/4/5 649/4/5 648/4/5
f 656/4/5 649/4/5 655/4/5
f 657/4/5 654/4/5 653/4/5
f 658/4/5 654/4/5 657/4/5
f 659/1/6 660/1/6 661/1/6
f 661/1/6 660/1/6 662/1/6
f 663/5/6 664/5/6 665/5/6
f 665/5/6 664/5/6 666/5/6
f 667/5/6 668/5/6 669/5/6
f 669/5/6 668/5/6 670/5/6
f 671/3/6 672/3/6 673/3/6
f 673/3/6 672/3/6 674/3/6
f 675/7/6 676/7/6 677/7/6
f 677/7/6 676/7/6 678/7/6
f 679/4/6 680/4/6 681/4/6
f 681/4/6 680/4/6 682/4/6
f 683/4/6 684/4/6 685/4/6
f 685/4/6 684/4/6 686/4/6
f 687/4/6 688/4/6 691/4/6
f 691/4/6 688/4/6 692/4/6
f 689/4/6 690/4/6 693/4/6
f 693/4/6 690/4/6 694/4/6
f 695/4/6 696/4/6 700/4/6
f 700/4/6 696/4/6 701/4/6
f 697/4/6 698/4/6 702/4/6
f 702/4/6 698/4/6 703/4/6
f 699/4/6 700/4/6 705/4/6
f 705/4/6 700/4/6 706/4/6
f 703/4/6 704/4/6 707/4/6
f 707/4/6 704/4/6 708/4/6
f 709/4/6 710/4/6 713/4/6
f 713/4/6 710/4/6 714/4/6
f 711/4/6 712/4/6 715/4/6
f 715/4/6 712/4/6 716/4/6
f 717/4/6 718/4/6 720/4/6
f 720/4/6 718/4/6 721/4/6
f 719/4/6 720/4/6 724/4/6
f 724/4/6 720/4/6 725/4/6
f 721/4/6 722/4/6 726/4/6
f 726/4/6 722/4/6 727/4/6
f 723/4/6 724/4/6 729/4/6
f 729/4/6 724/4/6 730/4/6
f 727/4/6 728/4/6 731/4/6
f 731/4/6 728/4/6 732/4/6
f 733/4/6 734/4/6 737/4/6
f 737/4/6 734/4/6 738/4/6
f 735/4/6 736/4/6 739/4/6
f 739/4/6 736/4/6 740/4/6
f 738/4/6 739/4/6 741/4/6
f 741/4/6 739/4/6 742/4/6
f 743/4/6 744/4/6 746/4/6
f 746/4/6 744/4/6 747/4/6
f 745/4/6 746/4/6 749/4/6
f 749/4/6 746/4/6 750/4/6
f 747/4/6 748/4/6 751/4/6
f 751/4/6 748/4/6 752/4/6
f 750/4/6 751/4/6 753/4/6
f 753/4/6 751/4/6 754/4/6
f 755/4/6 756/4/6 757/4/6
f 757/4/6 756/4/6 758/4/6
