# MagicaVoxel @ Ephtracy

# group
g Watermelon

# material
mtllib Watermelon.mtl
usemtl palette

# normals
vn -1 0 0
vn 1 0 0
vn 0 0 1
vn 0 0 -1
vn 0 -1 0
vn 0 1 0

# texcoords
vt 0.767578 0.5
vt 0.849609 0.5
vt 0.904297 0.5
vt 0.994141 0.5

# verts
v -5 3 2
v -5 3 -2
v -5 7 2
v -5 7 -2
v -4 1 1
v -4 1 -1
v -4 2 3
v -4 2 1
v -4 2 -1
v -4 2 -2
v -4 2 -3
v -4 3 2
v -4 3 -2
v -4 3 -3
v -4 4 4
v -4 4 3
v -4 4 -3
v -4 4 -4
v -4 6 4
v -4 6 3
v -4 6 -2
v -4 6 -3
v -4 6 -4
v -4 7 2
v -4 7 -2
v -4 8 3
v -4 8 1
v -4 8 -1
v -4 8 -2
v -4 8 -3
v -4 9 1
v -4 9 -1
v -3 1 3
v -3 1 2
v -3 1 1
v -3 1 -1
v -3 1 -3
v -3 2 4
v -3 2 3
v -3 2 2
v -3 2 1
v -3 2 -1
v -3 2 -2
v -3 2 -3
v -3 2 -4
v -3 3 -3
v -3 4 4
v -3 4 3
v -3 4 -3
v -3 4 -4
v -3 6 4
v -3 6 3
v -3 6 -3
v -3 6 -4
v -3 8 4
v -3 8 3
v -3 8 2
v -3 8 1
v -3 8 -1
v -3 8 -2
v -3 8 -3
v -3 8 -4
v -3 9 3
v -3 9 2
v -3 9 1
v -3 9 -1
v -3 9 -3
v -2 0 2
v -2 0 1
v -2 0 -1
v -2 0 -2
v -2 1 2
v -2 1 1
v -2 1 -1
v -2 1 -2
v -2 3 5
v -2 3 4
v -2 3 -4
v -2 3 -5
v -2 7 5
v -2 7 4
v -2 7 -4
v -2 7 -5
v -2 9 2
v -2 9 1
v -2 9 -1
v -2 9 -2
v -2 10 2
v -2 10 1
v -2 10 -1
v -2 10 -2
v -1 1 4
v -1 1 3
v -1 1 -3
v -1 1 -4
v -1 2 4
v -1 2 3
v -1 2 -3
v -1 2 -4
v -1 8 4
v -1 8 3
v -1 8 -3
v -1 8 -4
v -1 9 4
v -1 9 3
v -1 9 -3
v -1 9 -4
v 1 0 2
v 1 0 1
v 1 1 4
v 1 1 2
v 1 1 1
v 1 1 -3
v 1 1 -4
v 1 2 3
v 1 2 2
v 1 2 -3
v 1 2 -4
v 1 3 5
v 1 3 4
v 1 3 3
v 1 3 2
v 1 3 1
v 1 4 3
v 1 4 2
v 1 4 1
v 1 5 3
v 1 5 2
v 1 5 1
v 1 6 3
v 1 6 2
v 1 6 1
v 1 7 5
v 1 7 4
v 1 7 3
v 1 7 2
v 1 7 1
v 1 8 3
v 1 8 2
v 1 8 1
v 1 8 -3
v 1 8 -4
v 1 9 4
v 1 9 2
v 1 9 1
v 1 9 -3
v 1 9 -4
v 1 10 2
v 1 10 1
v 2 0 1
v 2 0 -1
v 2 0 -2
v 2 1 1
v 2 1 -1
v 2 1 -2
v 2 3 -4
v 2 3 -5
v 2 6 -4
v 2 7 -4
v 2 7 -5
v 2 9 1
v 2 9 -1
v 2 9 -2
v 2 10 1
v 2 10 -1
v 2 10 -2
v 3 1 -1
v 3 1 -2
v 3 1 -3
v 3 2 -1
v 3 2 -2
v 3 2 -3
v 3 2 -4
v 3 4 -3
v 3 4 -4
v 3 6 -3
v 3 6 -4
v 3 8 -1
v 3 8 -2
v 3 8 -3
v 3 8 -4
v 3 9 -1
v 3 9 -2
v 3 9 -3
v 4 1 1
v 4 1 -1
v 4 2 -1
v 4 2 -2
v 4 2 -3
v 4 3 1
v 4 3 -2
v 4 4 -2
v 4 4 -3
v 4 4 -4
v 4 6 -3
v 4 6 -4
v 4 7 1
v 4 7 -2
v 4 8 -1
v 4 8 -3
v 4 9 1
v 4 9 -1
v 5 3 1
v 5 3 -2
v 5 7 1
v 5 7 -2
v -2 3 5
v -2 7 5
v 1 3 5
v 1 7 5
v -4 4 4
v -4 6 4
v -3 2 4
v -3 4 4
v -3 6 4
v -3 8 4
v -2 2 4
v -2 3 4
v -2 7 4
v -2 8 4
v -1 1 4
v -1 2 4
v -1 8 4
v -1 9 4
v 1 1 4
v 1 3 4
v 1 7 4
v 1 9 4
v -4 2 3
v -4 4 3
v -4 6 3
v -4 8 3
v -3 1 3
v -3 2 3
v -3 4 3
v -3 6 3
v -3 8 3
v -3 9 3
v -2 2 3
v -2 8 3
v -1 1 3
v -1 2 3
v -1 8 3
v -1 9 3
v -5 3 2
v -5 7 2
v -4 3 2
v -4 7 2
v -2 0 2
v -2 1 2
v -2 9 2
v -2 10 2
v -1 0 2
v -1 1 2
v -1 9 2
v -1 10 2
v 1 0 2
v 1 1 2
v 1 9 2
v 1 10 2
v -4 1 1
v -4 2 1
v -4 8 1
v -4 9 1
v -3 1 1
v -3 2 1
v -3 8 1
v -3 9 1
v 1 0 1
v 1 1 1
v 1 3 1
v 1 4 1
v 1 5 1
v 1 6 1
v 1 7 1
v 1 8 1
v 1 9 1
v 1 10 1
v 2 0 1
v 2 1 1
v 2 2 1
v 2 3 1
v 2 4 1
v 2 5 1
v 2 6 1
v 2 7 1
v 2 8 1
v 2 9 1
v 2 10 1
v 3 2 1
v 3 3 1
v 3 4 1
v 3 6 1
v 3 7 1
v 3 8 1
v 4 1 1
v 4 3 1
v 4 7 1
v 4 9 1
v 5 3 1
v 5 7 1
v -4 1 -1
v -4 2 -1
v -4 8 -1
v -4 9 -1
v -3 1 -1
v -3 2 -1
v -3 8 -1
v -3 9 -1
v 3 1 -1
v 3 2 -1
v 3 8 -1
v 3 9 -1
v 4 1 -1
v 4 2 -1
v 4 8 -1
v 4 9 -1
v -5 3 -2
v -5 7 -2
v -4 3 -2
v -4 6 -2
v -4 7 -2
v -2 0 -2
v -2 1 -2
v -2 9 -2
v -2 10 -2
v -1 0 -2
v -1 1 -2
v -1 9 -2
v -1 10 -2
v 1 0 -2
v 1 1 -2
v 1 9 -2
v 1 10 -2
v 2 0 -2
v 2 1 -2
v 2 9 -2
v 2 10 -2
v 4 3 -2
v 4 4 -2
v 4 7 -2
v 5 3 -2
v 5 7 -2
v -4 2 -3
v -4 3 -3
v -4 4 -3
v -4 6 -3
v -4 8 -3
v -3 1 -3
v -3 2 -3
v -3 3 -3
v -3 4 -3
v -3 6 -3
v -3 8 -3
v -3 9 -3
v -2 1 -3
v -2 2 -3
v -2 8 -3
v -2 9 -3
v -1 1 -3
v -1 2 -3
v -1 8 -3
v -1 9 -3
v 1 1 -3
v 1 2 -3
v 1 8 -3
v 1 9 -3
v 2 1 -3
v 2 2 -3
v 2 8 -3
v 3 1 -3
v 3 2 -3
v 3 4 -3
v 3 6 -3
v 3 8 -3
v 3 9 -3
v 4 2 -3
v 4 4 -3
v 4 6 -3
v 4 8 -3
v -4 4 -4
v -4 6 -4
v -3 2 -4
v -3 4 -4
v -3 6 -4
v -3 8 -4
v -2 3 -4
v -2 7 -4
v -1 1 -4
v -1 2 -4
v -1 8 -4
v -1 9 -4
v 1 1 -4
v 1 2 -4
v 1 8 -4
v 1 9 -4
v 2 3 -4
v 2 6 -4
v 2 7 -4
v 2 8 -4
v 3 2 -4
v 3 4 -4
v 3 6 -4
v 3 8 -4
v 4 4 -4
v 4 6 -4
v -2 3 -5
v -2 7 -5
v 2 3 -5
v 2 7 -5
v -2 0 2
v -1 0 2
v 1 0 2
v -2 0 1
v -1 0 1
v 1 0 1
v 2 0 1
v -2 0 -1
v -1 0 -1
v 1 0 -1
v 2 0 -1
v -2 0 -2
v -1 0 -2
v 1 0 -2
v 2 0 -2
v -1 1 4
v 1 1 4
v -3 1 3
v -1 1 3
v -3 1 2
v -2 1 2
v -1 1 2
v 1 1 2
v -4 1 1
v -3 1 1
v -2 1 1
v 2 1 1
v 4 1 1
v -4 1 -1
v -3 1 -1
v -2 1 -1
v 2 1 -1
v 3 1 -1
v 4 1 -1
v -2 1 -2
v -1 1 -2
v 1 1 -2
v 2 1 -2
v 3 1 -2
v -3 1 -3
v -2 1 -3
v -1 1 -3
v 1 1 -3
v 2 1 -3
v 3 1 -3
v -1 1 -4
v 1 1 -4
v -3 2 4
v -2 2 4
v -1 2 4
v -4 2 3
v -3 2 3
v -2 2 3
v -1 2 3
v -3 2 2
v -4 2 1
v -3 2 1
v -4 2 -1
v -3 2 -1
v 3 2 -1
v 4 2 -1
v -4 2 -2
v -3 2 -2
v 3 2 -2
v 4 2 -2
v -4 2 -3
v -3 2 -3
v -2 2 -3
v -1 2 -3
v 1 2 -3
v 2 2 -3
v 3 2 -3
v 4 2 -3
v -3 2 -4
v -1 2 -4
v 1 2 -4
v 3 2 -4
v -2 3 5
v 1 3 5
v -2 3 4
v 1 3 4
v -5 3 2
v -4 3 2
v 4 3 1
v 5 3 1
v -5 3 -2
v -4 3 -2
v 4 3 -2
v 5 3 -2
v -2 3 -4
v 2 3 -4
v -2 3 -5
v 2 3 -5
v -4 4 4
v -3 4 4
v -4 4 3
v -3 4 3
v -4 4 -3
v -3 4 -3
v 3 4 -3
v 4 4 -3
v -4 4 -4
v -3 4 -4
v 3 4 -4
v 4 4 -4
v -4 6 4
v -3 6 4
v -4 6 3
v -3 6 3
v -4 6 -3
v -3 6 -3
v 3 6 -3
v 4 6 -3
v -4 6 -4
v -3 6 -4
v 3 6 -4
v 4 6 -4
v -2 7 5
v 1 7 5
v -2 7 4
v 1 7 4
v -5 7 2
v -4 7 2
v 4 7 1
v 5 7 1
v -5 7 -2
v -4 7 -2
v 4 7 -2
v 5 7 -2
v -2 7 -4
v 2 7 -4
v -2 7 -5
v 2 7 -5
v -3 8 4
v -2 8 4
v -1 8 4
v -4 8 3
v -3 8 3
v -2 8 3
v -1 8 3
v -3 8 2
v -4 8 1
v -3 8 1
v -4 8 -1
v -3 8 -1
v 3 8 -1
v 4 8 -1
v -4 8 -2
v -3 8 -2
v 3 8 -2
v -4 8 -3
v -3 8 -3
v -2 8 -3
v -1 8 -3
v 1 8 -3
v 2 8 -3
v 3 8 -3
v 4 8 -3
v -3 8 -4
v -1 8 -4
v 1 8 -4
v 2 8 -4
v 3 8 -4
v -1 9 4
v 1 9 4
v -3 9 3
v -1 9 3
v -3 9 2
v -2 9 2
v -1 9 2
v 1 9 2
v -4 9 1
v -3 9 1
v -2 9 1
v 2 9 1
v 4 9 1
v -4 9 -1
v -3 9 -1
v -2 9 -1
v 2 9 -1
v 3 9 -1
v 4 9 -1
v -2 9 -2
v -1 9 -2
v 1 9 -2
v 2 9 -2
v 3 9 -2
v -3 9 -3
v -2 9 -3
v -1 9 -3
v 1 9 -3
v 3 9 -3
v -1 9 -4
v 1 9 -4
v -2 10 2
v -1 10 2
v 1 10 2
v -2 10 1
v -1 10 1
v 1 10 1
v 2 10 1
v -2 10 -1
v -1 10 -1
v 1 10 -1
v 2 10 -1
v -2 10 -2
v -1 10 -2
v 1 10 -2
v 2 10 -2

# faces
f 3/1/1 2/1/1 1/1/1
f 4/1/1 2/1/1 3/1/1
f 8/1/1 6/1/1 5/1/1
f 9/1/1 6/1/1 8/1/1
f 12/1/1 8/1/1 7/1/1
f 12/1/1 9/1/1 8/1/1
f 12/1/1 10/1/1 9/1/1
f 13/3/1 11/3/1 10/3/1
f 13/1/1 10/1/1 12/1/1
f 14/3/1 11/3/1 13/3/1
f 16/1/1 12/1/1 7/1/1
f 17/1/1 14/1/1 13/1/1
f 19/1/1 16/1/1 15/1/1
f 20/1/1 12/1/1 16/1/1
f 20/1/1 16/1/1 19/1/1
f 21/1/1 17/1/1 13/1/1
f 22/3/1 18/3/1 17/3/1
f 22/1/1 17/1/1 21/1/1
f 23/3/1 18/3/1 22/3/1
f 24/1/1 12/1/1 20/1/1
f 25/3/1 22/3/1 21/3/1
f 26/1/1 24/1/1 20/1/1
f 26/1/1 25/1/1 24/1/1
f 27/1/1 25/1/1 26/1/1
f 28/1/1 25/1/1 27/1/1
f 29/3/1 22/3/1 25/3/1
f 29/1/1 25/1/1 28/1/1
f 30/3/1 22/3/1 29/3/1
f 31/1/1 28/1/1 27/1/1
f 32/1/1 28/1/1 31/1/1
f 39/3/1 34/3/1 33/3/1
f 40/1/1 35/1/1 34/1/1
f 40/3/1 34/3/1 39/3/1
f 41/1/1 35/1/1 40/1/1
f 42/3/1 37/3/1 36/3/1
f 43/3/1 37/3/1 42/3/1
f 44/3/1 37/3/1 43/3/1
f 46/1/1 45/1/1 44/1/1
f 47/3/1 39/3/1 38/3/1
f 48/3/1 39/3/1 47/3/1
f 49/1/1 45/1/1 46/1/1
f 50/1/1 45/1/1 49/1/1
f 55/3/1 52/3/1 51/3/1
f 56/3/1 52/3/1 55/3/1
f 61/1/1 54/1/1 53/1/1
f 62/1/1 54/1/1 61/1/1
f 63/3/1 57/3/1 56/3/1
f 64/1/1 58/1/1 57/1/1
f 64/3/1 57/3/1 63/3/1
f 65/1/1 58/1/1 64/1/1
f 66/3/1 60/3/1 59/3/1
f 66/3/1 61/3/1 60/3/1
f 67/3/1 61/3/1 66/3/1
f 72/3/1 69/3/1 68/3/1
f 73/1/1 70/1/1 69/1/1
f 73/3/1 69/3/1 72/3/1
f 74/3/1 71/3/1 70/3/1
f 74/1/1 70/1/1 73/1/1
f 75/3/1 71/3/1 74/3/1
f 80/1/1 77/1/1 76/1/1
f 81/1/1 77/1/1 80/1/1
f 82/1/1 79/1/1 78/1/1
f 83/1/1 79/1/1 82/1/1
f 88/3/1 85/3/1 84/3/1
f 89/1/1 86/1/1 85/1/1
f 89/3/1 85/3/1 88/3/1
f 90/3/1 87/3/1 86/3/1
f 90/1/1 86/1/1 89/1/1
f 91/3/1 87/3/1 90/3/1
f 96/1/1 93/1/1 92/1/1
f 97/1/1 93/1/1 96/1/1
f 98/1/1 95/1/1 94/1/1
f 99/1/1 95/1/1 98/1/1
f 104/1/1 101/1/1 100/1/1
f 105/1/1 101/1/1 104/1/1
f 106/1/1 103/1/1 102/1/1
f 107/1/1 103/1/1 106/1/1
f 108/1/2 109/1/2 111/1/2
f 111/1/2 109/1/2 112/1/2
f 110/1/2 111/1/2 115/1/2
f 111/2/2 112/2/2 116/2/2
f 115/1/2 111/1/2 116/1/2
f 113/1/2 114/1/2 117/1/2
f 117/1/2 114/1/2 118/1/2
f 110/1/2 115/1/2 120/1/2
f 115/2/2 116/2/2 121/2/2
f 120/1/2 115/1/2 121/1/2
f 116/2/2 112/2/2 122/2/2
f 121/2/2 116/2/2 122/2/2
f 122/2/2 112/2/2 123/2/2
f 120/2/2 121/2/2 124/2/2
f 121/2/2 122/2/2 124/2/2
f 122/4/2 123/4/2 125/4/2
f 124/2/2 122/2/2 125/2/2
f 125/4/2 123/4/2 126/4/2
f 120/2/2 124/2/2 127/2/2
f 124/4/2 125/4/2 127/4/2
f 125/2/2 126/2/2 128/2/2
f 127/4/2 125/4/2 128/4/2
f 128/2/2 126/2/2 129/2/2
f 120/2/2 127/2/2 130/2/2
f 127/2/2 128/2/2 130/2/2
f 128/4/2 129/4/2 131/4/2
f 130/2/2 128/2/2 131/2/2
f 131/4/2 129/4/2 132/4/2
f 119/1/2 120/1/2 133/1/2
f 120/2/2 130/2/2 134/2/2
f 133/1/2 120/1/2 134/1/2
f 130/4/2 131/4/2 135/4/2
f 134/2/2 130/2/2 135/2/2
f 131/2/2 132/2/2 136/2/2
f 135/4/2 131/4/2 136/4/2
f 136/2/2 132/2/2 137/2/2
f 134/1/2 135/1/2 138/1/2
f 136/2/2 137/2/2 138/2/2
f 135/2/2 136/2/2 138/2/2
f 138/2/2 137/2/2 139/2/2
f 139/2/2 137/2/2 140/2/2
f 138/1/2 139/1/2 143/1/2
f 134/1/2 138/1/2 143/1/2
f 139/2/2 140/2/2 144/2/2
f 143/1/2 139/1/2 144/1/2
f 144/2/2 140/2/2 145/2/2
f 141/1/2 142/1/2 146/1/2
f 146/1/2 142/1/2 147/1/2
f 144/1/2 145/1/2 148/1/2
f 148/1/2 145/1/2 149/1/2
f 150/1/2 151/1/2 153/1/2
f 151/3/2 152/3/2 154/3/2
f 153/1/2 151/1/2 154/1/2
f 154/3/2 152/3/2 155/3/2
f 156/1/2 157/1/2 158/1/2
f 158/1/2 157/1/2 159/1/2
f 159/1/2 157/1/2 160/1/2
f 161/1/2 162/1/2 164/1/2
f 162/3/2 163/3/2 165/3/2
f 164/1/2 162/1/2 165/1/2
f 165/3/2 163/3/2 166/3/2
f 167/1/2 168/1/2 170/1/2
f 168/3/2 169/3/2 171/3/2
f 170/1/2 168/1/2 171/1/2
f 171/3/2 169/3/2 172/3/2
f 172/1/2 173/1/2 174/1/2
f 174/1/2 173/1/2 175/1/2
f 176/3/2 177/3/2 180/3/2
f 180/3/2 177/3/2 181/3/2
f 178/1/2 179/1/2 182/1/2
f 179/3/2 180/3/2 183/3/2
f 182/1/2 179/1/2 183/1/2
f 183/3/2 180/3/2 184/3/2
f 185/1/2 186/1/2 187/1/2
f 185/1/2 187/1/2 190/1/2
f 187/1/2 188/1/2 190/1/2
f 188/3/2 189/3/2 191/3/2
f 190/1/2 188/1/2 191/1/2
f 191/3/2 189/3/2 192/3/2
f 192/3/2 189/3/2 193/3/2
f 192/1/2 193/1/2 195/1/2
f 193/3/2 194/3/2 195/3/2
f 195/3/2 194/3/2 196/3/2
f 192/1/2 195/1/2 198/1/2
f 197/1/2 198/1/2 199/1/2
f 198/1/2 195/1/2 200/1/2
f 199/1/2 198/1/2 200/1/2
f 197/1/2 199/1/2 201/1/2
f 201/1/2 199/1/2 202/1/2
f 203/1/2 204/1/2 205/1/2
f 205/1/2 204/1/2 206/1/2
f 209/1/3 208/1/3 207/1/3
f 210/1/3 208/1/3 209/1/3
f 214/1/3 212/1/3 211/1/3
f 215/1/3 212/1/3 214/1/3
f 217/3/3 214/3/3 213/3/3
f 217/3/3 216/3/3 215/3/3
f 217/3/3 215/3/3 214/3/3
f 218/3/3 216/3/3 217/3/3
f 219/3/3 216/3/3 218/3/3
f 220/3/3 216/3/3 219/3/3
f 222/1/3 218/1/3 217/1/3
f 223/1/3 220/1/3 219/1/3
f 225/1/3 222/1/3 221/1/3
f 226/1/3 218/1/3 222/1/3
f 226/1/3 222/1/3 225/1/3
f 227/1/3 224/1/3 223/1/3
f 227/1/3 223/1/3 219/1/3
f 228/1/3 224/1/3 227/1/3
f 234/1/3 230/1/3 229/1/3
f 235/1/3 230/1/3 234/1/3
f 236/1/3 232/1/3 231/1/3
f 237/1/3 232/1/3 236/1/3
f 239/3/3 234/3/3 233/3/3
f 240/3/3 238/3/3 237/3/3
f 241/3/3 239/3/3 233/3/3
f 242/3/3 239/3/3 241/3/3
f 243/3/3 238/3/3 240/3/3
f 244/3/3 238/3/3 243/3/3
f 247/1/3 246/1/3 245/1/3
f 248/1/3 246/1/3 247/1/3
f 253/3/3 250/3/3 249/3/3
f 254/3/3 250/3/3 253/3/3
f 255/3/3 252/3/3 251/3/3
f 256/3/3 252/3/3 255/3/3
f 257/1/3 254/1/3 253/1/3
f 258/1/3 254/1/3 257/1/3
f 259/1/3 256/1/3 255/1/3
f 260/1/3 256/1/3 259/1/3
f 265/1/3 262/1/3 261/1/3
f 266/1/3 262/1/3 265/1/3
f 267/1/3 264/1/3 263/1/3
f 268/1/3 264/1/3 267/1/3
f 279/1/3 270/1/3 269/1/3
f 280/2/3 271/2/3 270/2/3
f 280/1/3 270/1/3 279/1/3
f 280/2/3 272/2/3 271/2/3
f 281/2/3 272/2/3 280/2/3
f 282/2/3 272/2/3 281/2/3
f 283/4/3 273/4/3 272/4/3
f 283/2/3 272/2/3 282/2/3
f 284/2/3 274/2/3 273/2/3
f 284/4/3 273/4/3 283/4/3
f 284/2/3 275/2/3 274/2/3
f 285/2/3 275/2/3 284/2/3
f 286/4/3 276/4/3 275/4/3
f 286/2/3 275/2/3 285/2/3
f 287/2/3 277/2/3 276/2/3
f 287/4/3 276/4/3 286/4/3
f 288/1/3 278/1/3 277/1/3
f 288/2/3 277/2/3 287/2/3
f 289/1/3 278/1/3 288/1/3
f 290/2/3 282/2/3 281/2/3
f 290/1/3 281/1/3 280/1/3
f 291/4/3 283/4/3 282/4/3
f 291/2/3 282/2/3 290/2/3
f 292/2/3 285/2/3 284/2/3
f 292/4/3 283/4/3 291/4/3
f 292/2/3 284/2/3 283/2/3
f 293/4/3 286/4/3 285/4/3
f 293/2/3 285/2/3 292/2/3
f 294/2/3 287/2/3 286/2/3
f 294/4/3 286/4/3 293/4/3
f 295/1/3 288/1/3 287/1/3
f 295/2/3 287/2/3 294/2/3
f 296/1/3 291/1/3 290/1/3
f 296/1/3 290/1/3 280/1/3
f 297/2/3 292/2/3 291/2/3
f 297/1/3 291/1/3 296/1/3
f 297/2/3 293/2/3 292/2/3
f 297/2/3 294/2/3 293/2/3
f 298/1/3 295/1/3 294/1/3
f 298/2/3 294/2/3 297/2/3
f 299/1/3 288/1/3 295/1/3
f 299/1/3 295/1/3 298/1/3
f 300/1/3 298/1/3 297/1/3
f 301/1/3 298/1/3 300/1/3
f 302/1/4 303/1/4 306/1/4
f 306/1/4 303/1/4 307/1/4
f 304/1/4 305/1/4 308/1/4
f 308/1/4 305/1/4 309/1/4
f 310/1/4 311/1/4 314/1/4
f 314/1/4 311/1/4 315/1/4
f 312/1/4 313/1/4 316/1/4
f 316/1/4 313/1/4 317/1/4
f 318/1/4 319/1/4 320/1/4
f 320/1/4 319/1/4 321/1/4
f 321/1/4 319/1/4 322/1/4
f 323/3/4 324/3/4 327/3/4
f 327/3/4 324/3/4 328/3/4
f 325/3/4 326/3/4 329/3/4
f 329/3/4 326/3/4 330/3/4
f 327/1/4 328/1/4 331/1/4
f 331/1/4 328/1/4 332/1/4
f 329/1/4 330/1/4 333/1/4
f 333/1/4 330/1/4 334/1/4
f 331/3/4 332/3/4 335/3/4
f 335/3/4 332/3/4 336/3/4
f 333/3/4 334/3/4 337/3/4
f 337/3/4 334/3/4 338/3/4
f 339/1/4 340/1/4 342/1/4
f 340/1/4 341/1/4 342/1/4
f 342/1/4 341/1/4 343/1/4
f 344/3/4 345/3/4 350/3/4
f 345/1/4 346/1/4 351/1/4
f 350/3/4 345/3/4 351/3/4
f 351/1/4 346/1/4 352/1/4
f 347/3/4 348/3/4 353/3/4
f 353/3/4 348/3/4 354/3/4
f 349/3/4 350/3/4 356/3/4
f 356/3/4 350/3/4 357/3/4
f 354/3/4 355/3/4 358/3/4
f 358/3/4 355/3/4 359/3/4
f 356/1/4 357/1/4 360/1/4
f 360/1/4 357/1/4 361/1/4
f 358/1/4 359/1/4 362/1/4
f 362/1/4 359/1/4 363/1/4
f 364/1/4 365/1/4 368/1/4
f 368/1/4 365/1/4 369/1/4
f 366/3/4 367/3/4 370/3/4
f 368/3/4 369/3/4 371/3/4
f 371/3/4 369/3/4 372/3/4
f 370/3/4 367/3/4 375/3/4
f 375/3/4 367/3/4 376/3/4
f 372/3/4 373/3/4 377/3/4
f 377/3/4 373/3/4 378/3/4
f 374/1/4 375/1/4 379/1/4
f 379/1/4 375/1/4 380/1/4
f 381/3/4 382/3/4 384/3/4
f 384/3/4 382/3/4 385/3/4
f 383/1/4 384/1/4 387/1/4
f 385/1/4 386/1/4 387/1/4
f 384/1/4 385/1/4 387/1/4
f 387/1/4 386/1/4 388/1/4
f 383/1/4 387/1/4 390/1/4
f 388/1/4 386/1/4 391/1/4
f 389/1/4 390/1/4 393/1/4
f 390/1/4 387/1/4 394/1/4
f 393/1/4 390/1/4 394/1/4
f 391/1/4 392/1/4 395/1/4
f 388/1/4 391/1/4 395/1/4
f 395/1/4 392/1/4 396/1/4
f 394/1/4 387/1/4 397/1/4
f 388/1/4 395/1/4 399/1/4
f 399/1/4 395/1/4 400/1/4
f 397/1/4 398/1/4 401/1/4
f 394/1/4 397/1/4 401/1/4
f 401/1/4 398/1/4 402/1/4
f 399/3/4 400/3/4 403/3/4
f 402/1/4 398/1/4 403/1/4
f 398/3/4 399/3/4 403/3/4
f 403/3/4 400/3/4 404/3/4
f 402/3/4 403/3/4 405/3/4
f 405/3/4 403/3/4 406/3/4
f 407/1/4 408/1/4 409/1/4
f 409/1/4 408/1/4 410/1/4
f 414/3/5 412/3/5 411/3/5
f 415/1/5 413/1/5 412/1/5
f 415/3/5 412/3/5 414/3/5
f 416/1/5 413/1/5 415/1/5
f 418/1/5 415/1/5 414/1/5
f 419/3/5 416/3/5 415/3/5
f 419/1/5 415/1/5 418/1/5
f 420/1/5 417/1/5 416/1/5
f 420/3/5 416/3/5 419/3/5
f 421/1/5 417/1/5 420/1/5
f 422/3/5 419/3/5 418/3/5
f 423/1/5 420/1/5 419/1/5
f 423/3/5 419/3/5 422/3/5
f 424/3/5 421/3/5 420/3/5
f 424/1/5 420/1/5 423/1/5
f 425/3/5 421/3/5 424/3/5
f 429/1/5 427/1/5 426/1/5
f 430/3/5 429/3/5 428/3/5
f 431/3/5 429/3/5 430/3/5
f 432/1/5 427/1/5 429/1/5
f 432/3/5 429/3/5 431/3/5
f 433/1/5 427/1/5 432/1/5
f 435/1/5 431/1/5 430/1/5
f 436/1/5 431/1/5 435/1/5
f 439/1/5 436/1/5 435/1/5
f 439/1/5 435/1/5 434/1/5
f 440/1/5 436/1/5 439/1/5
f 441/1/5 436/1/5 440/1/5
f 442/1/5 438/1/5 437/1/5
f 443/1/5 438/1/5 442/1/5
f 444/1/5 438/1/5 443/1/5
f 445/3/5 441/3/5 440/3/5
f 448/1/5 443/1/5 442/1/5
f 449/1/5 443/1/5 448/1/5
f 450/3/5 445/3/5 440/3/5
f 451/1/5 447/1/5 446/1/5
f 451/3/5 445/3/5 450/3/5
f 451/1/5 446/1/5 445/1/5
f 451/1/5 448/1/5 447/1/5
f 452/1/5 448/1/5 451/1/5
f 453/1/5 448/1/5 452/1/5
f 454/3/5 449/3/5 448/3/5
f 454/1/5 448/1/5 453/1/5
f 455/3/5 449/3/5 454/3/5
f 456/1/5 453/1/5 452/1/5
f 457/1/5 453/1/5 456/1/5
f 462/3/5 459/3/5 458/3/5
f 463/1/5 460/1/5 459/1/5
f 463/3/5 459/3/5 462/3/5
f 464/1/5 460/1/5 463/1/5
f 465/1/5 462/1/5 461/1/5
f 466/1/5 465/1/5 461/1/5
f 467/1/5 465/1/5 466/1/5
f 472/1/5 469/1/5 468/1/5
f 473/1/5 469/1/5 472/1/5
f 474/1/5 471/1/5 470/1/5
f 475/1/5 471/1/5 474/1/5
f 476/3/5 473/3/5 472/3/5
f 477/3/5 473/3/5 476/3/5
f 482/3/5 475/3/5 474/3/5
f 483/3/5 475/3/5 482/3/5
f 484/1/5 478/1/5 477/1/5
f 484/1/5 479/1/5 478/1/5
f 485/1/5 479/1/5 484/1/5
f 486/1/5 481/1/5 480/1/5
f 486/1/5 482/1/5 481/1/5
f 487/1/5 482/1/5 486/1/5
f 490/1/5 489/1/5 488/1/5
f 491/1/5 489/1/5 490/1/5
f 496/1/5 493/1/5 492/1/5
f 497/1/5 493/1/5 496/1/5
f 498/1/5 495/1/5 494/1/5
f 499/1/5 495/1/5 498/1/5
f 502/1/5 501/1/5 500/1/5
f 503/1/5 501/1/5 502/1/5
f 506/1/5 505/1/5 504/1/5
f 507/1/5 505/1/5 506/1/5
f 512/3/5 509/3/5 508/3/5
f 513/3/5 509/3/5 512/3/5
f 514/3/5 511/3/5 510/3/5
f 515/3/5 511/3/5 514/3/5
f 516/1/6 517/1/6 518/1/6
f 518/1/6 517/1/6 519/1/6
f 520/3/6 521/3/6 524/3/6
f 524/3/6 521/3/6 525/3/6
f 522/3/6 523/3/6 526/3/6
f 526/3/6 523/3/6 527/3/6
f 528/1/6 529/1/6 530/1/6
f 530/1/6 529/1/6 531/1/6
f 532/1/6 533/1/6 536/1/6
f 536/1/6 533/1/6 537/1/6
f 534/1/6 535/1/6 538/1/6
f 538/1/6 535/1/6 539/1/6
f 540/1/6 541/1/6 542/1/6
f 542/1/6 541/1/6 543/1/6
f 544/3/6 545/3/6 548/3/6
f 545/1/6 546/1/6 549/1/6
f 548/3/6 545/3/6 549/3/6
f 549/1/6 546/1/6 550/1/6
f 547/1/6 548/1/6 551/1/6
f 547/1/6 551/1/6 552/1/6
f 552/1/6 551/1/6 553/1/6
f 554/1/6 555/1/6 558/1/6
f 558/1/6 555/1/6 559/1/6
f 556/1/6 557/1/6 560/1/6
f 558/3/6 559/3/6 561/3/6
f 561/3/6 559/3/6 562/3/6
f 560/1/6 557/1/6 567/1/6
f 567/1/6 557/1/6 568/1/6
f 562/1/6 563/1/6 569/1/6
f 563/1/6 564/1/6 569/1/6
f 569/1/6 564/1/6 570/1/6
f 565/1/6 566/1/6 571/1/6
f 566/3/6 567/3/6 572/3/6
f 571/1/6 566/1/6 572/1/6
f 572/3/6 567/3/6 573/3/6
f 574/1/6 575/1/6 577/1/6
f 576/3/6 577/3/6 578/3/6
f 578/3/6 577/3/6 579/3/6
f 577/1/6 575/1/6 580/1/6
f 579/3/6 577/3/6 580/3/6
f 580/1/6 575/1/6 581/1/6
f 578/1/6 579/1/6 583/1/6
f 583/1/6 579/1/6 584/1/6
f 583/1/6 584/1/6 587/1/6
f 582/1/6 583/1/6 587/1/6
f 587/1/6 584/1/6 588/1/6
f 588/1/6 584/1/6 589/1/6
f 585/1/6 586/1/6 590/1/6
f 590/1/6 586/1/6 591/1/6
f 591/1/6 586/1/6 592/1/6
f 588/3/6 589/3/6 593/3/6
f 590/1/6 591/1/6 596/1/6
f 596/1/6 591/1/6 597/1/6
f 588/3/6 593/3/6 598/3/6
f 594/1/6 595/1/6 599/1/6
f 598/3/6 593/3/6 599/3/6
f 593/1/6 594/1/6 599/1/6
f 599/1/6 595/1/6 600/1/6
f 596/3/6 597/3/6 601/3/6
f 600/1/6 595/1/6 601/1/6
f 595/3/6 596/3/6 601/3/6
f 601/3/6 597/3/6 602/3/6
f 600/1/6 601/1/6 603/1/6
f 603/1/6 601/1/6 604/1/6
f 605/3/6 606/3/6 608/3/6
f 606/1/6 607/1/6 609/1/6
f 608/3/6 606/3/6 609/3/6
f 609/1/6 607/1/6 610/1/6
f 608/1/6 609/1/6 612/1/6
f 609/3/6 610/3/6 613/3/6
f 612/1/6 609/1/6 613/1/6
f 610/1/6 611/1/6 614/1/6
f 613/3/6 610/3/6 614/3/6
f 614/1/6 611/1/6 615/1/6
f 612/3/6 613/3/6 616/3/6
f 613/1/6 614/1/6 617/1/6
f 616/3/6 613/3/6 617/3/6
f 614/3/6 615/3/6 618/3/6
f 617/1/6 614/1/6 618/1/6
f 618/3/6 615/3/6 619/3/6
